  0
SECTION
  2
HEADER
  9
$ACADVER
  1
AC1032
  9
$ACADMAINTVER
 90
      155
  9
$DWGCODEPAGE
  3
ANSI_1251
  9
$LASTSAVEDBY
  1
Ladniy
  9
$REQUIREDVERSIONS
160
                 0
  9
$INSBASE
 10
0.0
 20
0.0
 30
0.0
  9
$EXTMIN
 10
10.52704892070366
 20
6.154266693636402
 30
0.0
  9
$EXTMAX
 10
369.0835174508393
 20
193.9722237257972
 30
0.0
  9
$LIMMIN
 10
0.0
 20
0.0
  9
$LIMMAX
 10
12.0
 20
9.0
  9
$ORTHOMODE
 70
     0
  9
$REGENMODE
 70
     1
  9
$FILLMODE
 70
     1
  9
$QTEXTMODE
 70
     0
  9
$MIRRTEXT
 70
     0
  9
$LTSCALE
 40
1.0
  9
$ATTMODE
 70
     1
  9
$TEXTSIZE
 40
0.2
  9
$TRACEWID
 40
0.05
  9
$TEXTSTYLE
  7
Notes
  9
$CLAYER
  8
0
  9
$CELTYPE
  6
ByLayer
  9
$CECOLOR
 62
   256
  9
$CELTSCALE
 40
1.0
  9
$DISPSILH
 70
     0
  9
$DIMSCALE
 40
1.0
  9
$DIMASZ
 40
3.0
  9
$DIMEXO
 40
1.5
  9
$DIMDLI
 40
6.0
  9
$DIMRND
 40
0.0
  9
$DIMDLE
 40
0.0
  9
$DIMEXE
 40
3.0
  9
$DIMTP
 40
0.0
  9
$DIMTM
 40
0.0
  9
$DIMTXT
 40
3.0
  9
$DIMCEN
 40
3.0
  9
$DIMTSZ
 40
0.0
  9
$DIMTOL
 70
     0
  9
$DIMLIM
 70
     0
  9
$DIMTIH
 70
     0
  9
$DIMTOH
 70
     0
  9
$DIMSE1
 70
     0
  9
$DIMSE2
 70
     0
  9
$DIMTAD
 70
     1
  9
$DIMZIN
 70
     3
  9
$DIMBLK
  1

  9
$DIMASO
 70
     1
  9
$DIMSHO
 70
     1
  9
$DIMPOST
  1

  9
$DIMAPOST
  1

  9
$DIMALT
 70
     0
  9
$DIMALTD
 70
     2
  9
$DIMALTF
 40
25.4
  9
$DIMLFAC
 40
1.0
  9
$DIMTOFL
 70
     0
  9
$DIMTVP
 40
0.0
  9
$DIMTIX
 70
     0
  9
$DIMSOXD
 70
     0
  9
$DIMSAH
 70
     0
  9
$DIMBLK1
  1

  9
$DIMBLK2
  1

  9
$DIMSTYLE
  2
Civil-Metric
  9
$DIMCLRD
 70
     0
  9
$DIMCLRE
 70
     0
  9
$DIMCLRT
 70
     0
  9
$DIMTFAC
 40
1.0
  9
$DIMGAP
 40
2.0
  9
$DIMJUST
 70
     0
  9
$DIMSD1
 70
     0
  9
$DIMSD2
 70
     0
  9
$DIMTOLJ
 70
     1
  9
$DIMTZIN
 70
     0
  9
$DIMALTZ
 70
     0
  9
$DIMALTTZ
 70
     0
  9
$DIMUPT
 70
     0
  9
$DIMDEC
 70
     2
  9
$DIMTDEC
 70
     2
  9
$DIMALTU
 70
     2
  9
$DIMALTTD
 70
     2
  9
$DIMTXSTY
  7
Standard
  9
$DIMAUNIT
 70
     0
  9
$DIMADEC
 70
     2
  9
$DIMALTRND
 40
0.0
  9
$DIMAZIN
 70
     2
  9
$DIMDSEP
 70
    46
  9
$DIMATFIT
 70
     3
  9
$DIMFRAC
 70
     1
  9
$DIMLDRBLK
  1

  9
$DIMLUNIT
 70
     2
  9
$DIMLWD
 70
    -2
  9
$DIMLWE
 70
    -2
  9
$DIMTMOVE
 70
     0
  9
$DIMFXL
 40
1.0
  9
$DIMFXLON
 70
     0
  9
$DIMJOGANG
 40
0.7853981633974483
  9
$DIMTFILL
 70
     0
  9
$DIMTFILLCLR
 70
     0
  9
$DIMARCSYM
 70
     0
  9
$DIMLTYPE
  6

  9
$DIMLTEX1
  6

  9
$DIMLTEX2
  6

  9
$DIMTXTDIRECTION
 70
     0
  9
$LUNITS
 70
     2
  9
$LUPREC
 70
     4
  9
$SKETCHINC
 40
0.1
  9
$FILLETRAD
 40
1.0
  9
$AUNITS
 70
     4
  9
$AUPREC
 70
     5
  9
$MENU
  1
.
  9
$ELEVATION
 40
0.0
  9
$PELEVATION
 40
0.0
  9
$THICKNESS
 40
0.0
  9
$LIMCHECK
 70
     0
  9
$CHAMFERA
 40
0.0
  9
$CHAMFERB
 40
0.0
  9
$CHAMFERC
 40
0.0
  9
$CHAMFERD
 40
0.0
  9
$SKPOLY
 70
     0
  9
$TDCREATE
 40
2458775.849224537
  9
$TDUCREATE
 40
2458775.515891204
  9
$TDUPDATE
 40
2458778.008969907
  9
$TDUUPDATE
 40
2458777.675636574
  9
$TDINDWG
 40
0.2789004630
  9
$TDUSRTIMER
 40
0.2789004630
  9
$USRTIMER
 70
     1
  9
$ANGBASE
 50
0.0
  9
$ANGDIR
 70
     0
  9
$PDMODE
 70
     0
  9
$PDSIZE
 40
0.0
  9
$PLINEWID
 40
0.0
  9
$SPLFRAME
 70
     0
  9
$SPLINETYPE
 70
     6
  9
$SPLINESEGS
 70
     8
  9
$HANDSEED
  5
124F
  9
$SURFTAB1
 70
     6
  9
$SURFTAB2
 70
     6
  9
$SURFTYPE
 70
     6
  9
$SURFU
 70
     6
  9
$SURFV
 70
     6
  9
$UCSBASE
  2

  9
$UCSNAME
  2

  9
$UCSORG
 10
0.0
 20
0.0
 30
0.0
  9
$UCSXDIR
 10
1.0
 20
0.0
 30
0.0
  9
$UCSYDIR
 10
0.0
 20
1.0
 30
0.0
  9
$UCSORTHOREF
  2

  9
$UCSORTHOVIEW
 70
     0
  9
$UCSORGTOP
 10
0.0
 20
0.0
 30
0.0
  9
$UCSORGBOTTOM
 10
0.0
 20
0.0
 30
0.0
  9
$UCSORGLEFT
 10
0.0
 20
0.0
 30
0.0
  9
$UCSORGRIGHT
 10
0.0
 20
0.0
 30
0.0
  9
$UCSORGFRONT
 10
0.0
 20
0.0
 30
0.0
  9
$UCSORGBACK
 10
0.0
 20
0.0
 30
0.0
  9
$PUCSBASE
  2

  9
$PUCSNAME
  2

  9
$PUCSORG
 10
0.0
 20
0.0
 30
0.0
  9
$PUCSXDIR
 10
1.0
 20
0.0
 30
0.0
  9
$PUCSYDIR
 10
0.0
 20
1.0
 30
0.0
  9
$PUCSORTHOREF
  2

  9
$PUCSORTHOVIEW
 70
     0
  9
$PUCSORGTOP
 10
0.0
 20
0.0
 30
0.0
  9
$PUCSORGBOTTOM
 10
0.0
 20
0.0
 30
0.0
  9
$PUCSORGLEFT
 10
0.0
 20
0.0
 30
0.0
  9
$PUCSORGRIGHT
 10
0.0
 20
0.0
 30
0.0
  9
$PUCSORGFRONT
 10
0.0
 20
0.0
 30
0.0
  9
$PUCSORGBACK
 10
0.0
 20
0.0
 30
0.0
  9
$USERI1
 70
     0
  9
$USERI2
 70
     0
  9
$USERI3
 70
     0
  9
$USERI4
 70
     0
  9
$USERI5
 70
     0
  9
$USERR1
 40
0.0
  9
$USERR2
 40
0.0
  9
$USERR3
 40
0.0
  9
$USERR4
 40
0.0
  9
$USERR5
 40
0.0
  9
$WORLDVIEW
 70
     1
  9
$SHADEDGE
 70
     3
  9
$SHADEDIF
 70
    70
  9
$TILEMODE
 70
     1
  9
$MAXACTVP
 70
    64
  9
$PINSBASE
 10
0.0
 20
0.0
 30
0.0
  9
$PLIMCHECK
 70
     0
  9
$PEXTMIN
 10
0.6288667663970601
 20
0.7999999523162842
 30
0.0
  9
$PEXTMAX
 10
9.028866384927335
 20
7.199999570846557
 30
0.0
  9
$PLIMMIN
 10
-0.7005418191744587
 20
-0.2281003861915408
  9
$PLIMMAX
 10
10.29945794052965
 20
8.271899373512571
  9
$UNITMODE
 70
     0
  9
$VISRETAIN
 70
     1
  9
$PLINEGEN
 70
     0
  9
$PSLTSCALE
 70
     1
  9
$TREEDEPTH
 70
  3020
  9
$CMLSTYLE
  2
Standard
  9
$CMLJUST
 70
     0
  9
$CMLSCALE
 40
1.0
  9
$PROXYGRAPHICS
 70
     1
  9
$MEASUREMENT
 70
     1
  9
$CELWEIGHT
370
    -1
  9
$ENDCAPS
280
     0
  9
$JOINSTYLE
280
     0
  9
$LWDISPLAY
290
     0
  9
$INSUNITS
 70
     4
  9
$HYPERLINKBASE
  1

  9
$STYLESHEET
  1

  9
$XEDIT
290
     1
  9
$CEPSNTYPE
380
     0
  9
$PSTYLEMODE
290
     1
  9
$FINGERPRINTGUID
  2
BCF53B60-F21F-11E9-BE28-4E5CEDBD4935
  9
$VERSIONGUID
  2
{C8A15CAD-361D-A845-B190-AA244F407A42}
  9
$EXTNAMES
290
     1
  9
$PSVPSCALE
 40
0.0
  9
$OLESTARTUP
290
     0
  9
$SORTENTS
280
   127
  9
$INDEXCTL
280
     0
  9
$HIDETEXT
280
     1
  9
$XCLIPFRAME
280
     0
  9
$HALOGAP
280
     0
  9
$OBSCOLOR
 70
   257
  9
$OBSLTYPE
280
     0
  9
$INTERSECTIONDISPLAY
280
     0
  9
$INTERSECTIONCOLOR
 70
   257
  9
$DIMASSOC
280
     2
  9
$PROJECTNAME
  1

  9
$CAMERADISPLAY
290
     0
  9
$LENSLENGTH
 40
50.0
  9
$CAMERAHEIGHT
 40
0.0
  9
$STEPSPERSEC
 40
2.0
  9
$STEPSIZE
 40
6.0
  9
$3DDWFPREC
 40
2.0
  9
$PSOLWIDTH
 40
0.25
  9
$PSOLHEIGHT
 40
4.0
  9
$LOFTANG1
 40
1.570796326794896
  9
$LOFTANG2
 40
1.570796326794896
  9
$LOFTMAG1
 40
0.0
  9
$LOFTMAG2
 40
0.0
  9
$LOFTPARAM
 70
     7
  9
$LOFTNORMALS
280
     1
  9
$LATITUDE
 40
37.795
  9
$LONGITUDE
 40
-122.394
  9
$NORTHDIRECTION
 40
0.0
  9
$TIMEZONE
 70
 -8000
  9
$LIGHTGLYPHDISPLAY
280
     1
  9
$TILEMODELIGHTSYNCH
280
     1
  9
$CMATERIAL
347
651
  9
$SOLIDHIST
280
     1
  9
$SHOWHIST
280
     1
  9
$DWFFRAME
280
     2
  9
$DGNFRAME
280
     0
  9
$REALWORLDSCALE
290
     1
  9
$INTERFERECOLOR
 62
     1
  9
$INTERFEREOBJVS
345
672
  9
$INTERFEREVPVS
346
66F
  9
$CSHADOW
280
     0
  9
$SHADOWPLANELOCATION
 40
0.0
  0
ENDSEC
  0
SECTION
  2
CLASSES
  0
CLASS
  1
ACDBDICTIONARYWDFLT
  2
AcDbDictionaryWithDefault
  3
ObjectDBX Classes
 90
        0
 91
        1
280
     0
281
     0
  0
CLASS
  1
DICTIONARYVAR
  2
AcDbDictionaryVar
  3
ObjectDBX Classes
 90
        0
 91
        5
280
     0
281
     0
  0
CLASS
  1
TABLESTYLE
  2
AcDbTableStyle
  3
ObjectDBX Classes
 90
     4095
 91
        1
280
     0
281
     0
  0
CLASS
  1
MATERIAL
  2
AcDbMaterial
  3
ObjectDBX Classes
 90
     1153
 91
        3
280
     0
281
     0
  0
CLASS
  1
VISUALSTYLE
  2
AcDbVisualStyle
  3
ObjectDBX Classes
 90
     4095
 91
       24
280
     0
281
     0
  0
CLASS
  1
SCALE
  2
AcDbScale
  3
ObjectDBX Classes
 90
     1153
 91
       17
280
     0
281
     0
  0
CLASS
  1
MLEADERSTYLE
  2
AcDbMLeaderStyle
  3
ACDB_MLEADERSTYLE_CLASS
 90
     4095
 91
        1
280
     0
281
     0
  0
CLASS
  1
CELLSTYLEMAP
  2
AcDbCellStyleMap
  3
ObjectDBX Classes
 90
     1152
 91
        5
280
     0
281
     0
  0
CLASS
  1
EXACXREFPANELOBJECT
  2
ExAcXREFPanelObject
  3
EXAC_ESW
 90
     1025
 91
        0
280
     0
281
     0
  0
CLASS
  1
NPOCOLLECTION
  2
AcDbImpNonPersistentObjectsCollection
  3
ObjectDBX Classes
 90
     1153
 91
        0
280
     0
281
     0
  0
CLASS
  1
LAYER_INDEX
  2
AcDbLayerIndex
  3
ObjectDBX Classes
 90
        0
 91
        0
280
     0
281
     0
  0
CLASS
  1
SPATIAL_INDEX
  2
AcDbSpatialIndex
  3
ObjectDBX Classes
 90
        0
 91
        0
280
     0
281
     0
  0
CLASS
  1
IDBUFFER
  2
AcDbIdBuffer
  3
ObjectDBX Classes
 90
        0
 91
        0
280
     0
281
     0
  0
CLASS
  1
DIMASSOC
  2
AcDbDimAssoc
  3
"AcDbDimAssoc|Product Desc:     AcDim ARX App For Dimension|Company:          Autodesk, Inc.|WEB Address:      www.autodesk.com"
 90
        0
 91
        0
280
     0
281
     0
  0
CLASS
  1
IMAGEDEF
  2
AcDbRasterImageDef
  3
ISM
 90
        0
 91
        0
280
     0
281
     0
  0
CLASS
  1
RASTERVARIABLES
  2
AcDbRasterVariables
  3
ISM
 90
        0
 91
        0
280
     0
281
     0
  0
CLASS
  1
IMAGEDEF_REACTOR
  2
AcDbRasterImageDefReactor
  3
ISM
 90
        1
 91
        0
280
     0
281
     0
  0
CLASS
  1
IMAGE
  2
AcDbRasterImage
  3
ISM
 90
     2175
 91
        0
280
     0
281
     1
  0
CLASS
  1
PDFDEFINITION
  2
AcDbPdfDefinition
  3
ObjectDBX Classes
 90
     1153
 91
        0
280
     0
281
     0
  0
CLASS
  1
PDFUNDERLAY
  2
AcDbPdfReference
  3
ObjectDBX Classes
 90
     4095
 91
        0
280
     0
281
     1
  0
CLASS
  1
DWFDEFINITION
  2
AcDbDwfDefinition
  3
ObjectDBX Classes
 90
     1153
 91
        0
280
     0
281
     0
  0
CLASS
  1
DWFUNDERLAY
  2
AcDbDwfReference
  3
ObjectDBX Classes
 90
     1153
 91
        0
280
     0
281
     1
  0
CLASS
  1
DGNDEFINITION
  2
AcDbDgnDefinition
  3
ObjectDBX Classes
 90
     1153
 91
        0
280
     0
281
     0
  0
CLASS
  1
DGNUNDERLAY
  2
AcDbDgnReference
  3
ObjectDBX Classes
 90
     1153
 91
        0
280
     0
281
     1
  0
CLASS
  1
ACDBSECTIONVIEWSTYLE
  2
AcDbSectionViewStyle
  3
ObjectDBX Classes
 90
     1025
 91
        1
280
     0
281
     0
  0
CLASS
  1
ACDBDETAILVIEWSTYLE
  2
AcDbDetailViewStyle
  3
ObjectDBX Classes
 90
     1025
 91
        1
280
     0
281
     0
  0
CLASS
  1
SORTENTSTABLE
  2
AcDbSortentsTable
  3
ObjectDBX Classes
 90
        0
 91
       67
280
     0
281
     0
  0
ENDSEC
  0
SECTION
  2
TABLES
  0
TABLE
  2
VPORT
  5
8
330
0
100
AcDbSymbolTable
 70
     1
  0
VPORT
  5
69C
330
8
100
AcDbSymbolTableRecord
100
AcDbViewportTableRecord
  2
*Active
 70
     0
 10
0.0
 20
0.0
 11
1.0
 21
1.0
 12
190.3572008356843
 22
96.72822040962513
 13
0.0
 23
0.0
 14
1.0
 24
1.0
 15
0.0
 25
0.0
 16
0.0
 26
0.0
 36
1.0
 17
0.0
 27
0.0
 37
0.0
 40
336.1638664407656
 41
2.275985663082437
 42
50.0
 43
0.0
 44
0.0
 50
0.0
 51
0.0
 71
     0
 72
  1000
 73
     1
 74
     3
 75
     0
 76
     1
 77
     0
 78
     0
281
     0
 65
     1
110
0.0
120
0.0
130
0.0
111
1.0
121
0.0
131
0.0
112
0.0
122
1.0
132
0.0
 79
     0
146
0.0
348
66E
 60
     3
 61
     5
292
     1
282
     1
141
0.0
142
0.0
 63
   250
421
  3355443
1001
ACAD_NAV_VCDISPLAY
1070
     1
  0
ENDTAB
  0
TABLE
  2
LTYPE
  5
5F
330
0
100
AcDbSymbolTable
 70
     6
  0
LTYPE
  5
14
330
5F
100
AcDbSymbolTableRecord
100
AcDbLinetypeTableRecord
  2
ByBlock
 70
     0
  3

 72
    65
 73
     0
 40
0.0
  0
LTYPE
  5
15
330
5F
100
AcDbSymbolTableRecord
100
AcDbLinetypeTableRecord
  2
ByLayer
 70
     0
  3

 72
    65
 73
     0
 40
0.0
  0
LTYPE
  5
16
330
5F
100
AcDbSymbolTableRecord
100
AcDbLinetypeTableRecord
  2
Continuous
 70
     0
  3
Solid line
 72
    65
 73
     0
 40
0.0
  0
LTYPE
  5
1B1
330
5F
100
AcDbSymbolTableRecord
100
AcDbLinetypeTableRecord
  2
CENTER
 70
     0
  3
Center ____ _ ____ _ ____ _ ____ _ ____ _ ____
 72
    65
 73
     4
 40
2.0
 49
1.25
 74
     0
 49
-0.25
 74
     0
 49
0.25
 74
     0
 49
-0.25
 74
     0
  0
LTYPE
  5
1B2
330
5F
100
AcDbSymbolTableRecord
100
AcDbLinetypeTableRecord
  2
DASHED
 70
     0
  3
Dashed __ __ __ __ __ __ __ __ __ __ __ __ __ _
 72
    65
 73
     2
 40
0.75
 49
0.5
 74
     0
 49
-0.25
 74
     0
  0
LTYPE
  5
1B3
330
5F
100
AcDbSymbolTableRecord
100
AcDbLinetypeTableRecord
  2
PHANTOM
 70
     0
  3
Phantom ______  __  __  ______  __  __  ______
 72
    65
 73
     6
 40
2.5
 49
1.25
 74
     0
 49
-0.25
 74
     0
 49
0.25
 74
     0
 49
-0.25
 74
     0
 49
0.25
 74
     0
 49
-0.25
 74
     0
  0
LTYPE
  5
39E
330
5F
100
AcDbSymbolTableRecord
100
AcDbLinetypeTableRecord
  2
HIDDEN
 70
     0
  3
Hidden __ __ __ __ __ __ __ __ __ __ __ __ __ __
 72
    65
 73
     2
 40
9.525
 49
6.349999999999998
 74
     0
 49
-3.174999999999998
 74
     0
  0
ENDTAB
  0
TABLE
  2
LAYER
  5
2
102
{ACAD_XDICTIONARY
360
6AB
102
}
330
0
100
AcDbSymbolTable
 70
     3
  0
LAYER
  5
10
330
2
100
AcDbSymbolTableRecord
100
AcDbLayerTableRecord
  2
0
 70
     0
 62
     7
  6
Continuous
370
    -3
390
4E8
347
661
348
0
  0
LAYER
  5
1B4
330
2
100
AcDbSymbolTableRecord
100
AcDbLayerTableRecord
  2
View Port
 70
     0
 62
     7
  6
Continuous
290
     0
370
    -3
390
4E8
347
661
348
0
  0
LAYER
  5
21D
330
2
100
AcDbSymbolTableRecord
100
AcDbLayerTableRecord
  2
Defpoints
 70
     0
 62
     7
  6
Continuous
290
     0
370
    -3
390
4E8
347
661
348
0
  0
ENDTAB
  0
TABLE
  2
STYLE
  5
3
330
0
100
AcDbSymbolTable
 70
     3
  0
STYLE
  5
11
330
3
100
AcDbSymbolTableRecord
100
AcDbTextStyleTableRecord
  2
Standard
 70
     0
 40
0.0
 41
1.0
 50
0.0
 71
     0
 42
0.2
  3
arial.ttf
  4

1001
ACAD
1000
Arial
1071
       34
  0
STYLE
  5
DC
330
3
100
AcDbSymbolTableRecord
100
AcDbTextStyleTableRecord
  2
Annotative
 70
     0
 40
0.0
 41
1.0
 50
0.0
 71
     0
 42
0.2
  3
arial.ttf
  4

1001
ACAD
1000
Arial
1071
       34
  0
STYLE
  5
178
330
3
100
AcDbSymbolTableRecord
100
AcDbTextStyleTableRecord
  2
Notes
 70
     0
 40
3.0
 41
1.0
 50
0.0
 71
     0
 42
0.2
  3
arial.ttf
  4

1001
ACAD
1000
Arial
1071
       34
  0
ENDTAB
  0
TABLE
  2
VIEW
  5
6
330
0
100
AcDbSymbolTable
 70
     3
  0
ENDTAB
  0
TABLE
  2
UCS
  5
7
330
0
100
AcDbSymbolTable
 70
     0
  0
ENDTAB
  0
TABLE
  2
APPID
  5
9
330
0
100
AcDbSymbolTable
 70
    12
  0
APPID
  5
12
330
9
100
AcDbSymbolTableRecord
100
AcDbRegAppTableRecord
  2
ACAD
 70
     0
  0
APPID
  5
DD
330
9
100
AcDbSymbolTableRecord
100
AcDbRegAppTableRecord
  2
AcadAnnoPO
 70
     0
  0
APPID
  5
DE
330
9
100
AcDbSymbolTableRecord
100
AcDbRegAppTableRecord
  2
AcadAnnotative
 70
     0
  0
APPID
  5
DF
330
9
100
AcDbSymbolTableRecord
100
AcDbRegAppTableRecord
  2
ACAD_DSTYLE_DIMJAG
 70
     0
  0
APPID
  5
E0
330
9
100
AcDbSymbolTableRecord
100
AcDbRegAppTableRecord
  2
ACAD_DSTYLE_DIMTALN
 70
     0
  0
APPID
  5
107
330
9
100
AcDbSymbolTableRecord
100
AcDbRegAppTableRecord
  2
ACAD_MLEADERVER
 70
     0
  0
APPID
  5
1B5
330
9
100
AcDbSymbolTableRecord
100
AcDbRegAppTableRecord
  2
AcAecLayerStandard
 70
     0
  0
APPID
  5
1BA
330
9
100
AcDbSymbolTableRecord
100
AcDbRegAppTableRecord
  2
ACAD_EXEMPT_FROM_CAD_STANDARDS
 70
     0
  0
APPID
  5
237
330
9
100
AcDbSymbolTableRecord
100
AcDbRegAppTableRecord
  2
ACAD_DSTYLE_DIMBREAK
 70
     0
  0
APPID
  5
28E
330
9
100
AcDbSymbolTableRecord
100
AcDbRegAppTableRecord
  2
ACAD_PSEXT
 70
     0
  0
APPID
  5
4C4
330
9
100
AcDbSymbolTableRecord
100
AcDbRegAppTableRecord
  2
HATCHBACKGROUNDCOLOR
 70
     0
  0
APPID
  5
69B
330
9
100
AcDbSymbolTableRecord
100
AcDbRegAppTableRecord
  2
ACAD_NAV_VCDISPLAY
 70
     0
  0
ENDTAB
  0
TABLE
  2
DIMSTYLE
  5
A
330
0
100
AcDbSymbolTable
 70
     6
100
AcDbDimStyleTable
 71
     3
340
242
340
27
340
E1
  0
DIMSTYLE
105
27
330
A
100
AcDbSymbolTableRecord
100
AcDbDimStyleTableRecord
  2
Standard
 70
     0
 41
3.0
 42
2.0
 43
9.0
 44
5.0
140
3.0
141
2.0
147
2.0
340
11
1001
ACAD_DSTYLE_DIMJAG
1070
   388
1040
38.0
1001
ACAD_DSTYLE_DIMBREAK
1070
   391
1040
90.0
1001
ACAD_DSTYLE_DIMTALN
1070
   392
1070
     0
  0
DIMSTYLE
105
E1
330
A
100
AcDbSymbolTableRecord
100
AcDbDimStyleTableRecord
  2
Annotative
 70
     0
 40
0.0
 41
3.0
 42
2.5
 43
10.0
 44
5.0
140
3.0
141
2.0
147
2.0
340
11
1001
AcadAnnotative
1000
AnnotativeData
1002
{
1070
     1
1070
     1
1002
}
1001
ACAD_DSTYLE_DIMJAG
1070
   388
1040
38.0
1001
ACAD_DSTYLE_DIMBREAK
1070
   391
1040
90.0
1001
ACAD_DSTYLE_DIMTALN
1070
   392
1070
     0
  0
DIMSTYLE
105
242
330
A
100
AcDbSymbolTableRecord
100
AcDbDimStyleTableRecord
  2
Civil-Metric
 70
     0
 41
3.0
 42
1.5
 43
6.0
 44
3.0
 73
     0
 74
     0
 77
     1
 78
     3
 79
     2
140
3.0
141
3.0
147
2.0
179
     2
271
     2
272
     2
276
     1
340
11
1001
ACAD_DSTYLE_DIMBREAK
1070
   391
1040
3.0
1001
ACAD_DSTYLE_DIMJAG
1070
   388
1040
38.0
1001
ACAD_DSTYLE_DIMTALN
1070
   392
1070
     0
  0
DIMSTYLE
105
F70
330
A
100
AcDbSymbolTableRecord
100
AcDbDimStyleTableRecord
  2
Аннотативный
 70
     0
 40
0.0
 41
2.5
 42
0.625
 43
3.75
 44
1.25
 73
     0
 74
     0
 77
     1
 78
     8
140
2.5
141
2.5
143
0.03937007874016
147
0.625
171
     3
172
     1
271
     2
272
     2
274
     3
278
    44
283
     0
284
     8
340
11
1001
AcadAnnotative
1000
AnnotativeData
1002
{
1070
     1
1070
     1
1002
}
1001
ACAD_DSTYLE_DIMJAG
1070
   388
1040
1.5
1001
ACAD_DSTYLE_DIMTALN
1070
   392
1070
     0
  0
DIMSTYLE
105
F71
330
A
100
AcDbSymbolTableRecord
100
AcDbDimStyleTableRecord
  2
ISO-25
 70
     0
 41
2.5
 42
0.625
 43
3.75
 44
1.25
 73
     0
 74
     0
 77
     1
 78
     8
140
2.5
141
2.5
143
0.03937007874016
147
0.625
171
     3
172
     1
271
     2
272
     2
274
     3
278
    44
283
     0
284
     8
340
11
  0
ENDTAB
  0
TABLE
  2
BLOCK_RECORD
  5
1
330
0
100
AcDbSymbolTable
 70
    70
  0
BLOCK_RECORD
  5
1F
102
{ACAD_XDICTIONARY
360
882
102
}
330
1
100
AcDbSymbolTableRecord
100
AcDbBlockTableRecord
  2
*Model_Space
340
4ED
 70
     0
280
     1
281
     0
  0
BLOCK_RECORD
  5
58
330
1
100
AcDbSymbolTableRecord
100
AcDbBlockTableRecord
  2
*Paper_Space
340
4EE
 70
     0
280
     1
281
     0
  0
BLOCK_RECORD
  5
238
330
1
100
AcDbSymbolTableRecord
100
AcDbBlockTableRecord
  2
_ArchTick
340
0
 70
     0
280
     1
281
     0
  0
BLOCK_RECORD
  5
23C
330
1
100
AcDbSymbolTableRecord
100
AcDbBlockTableRecord
  2
_Open30
340
0
 70
     0
280
     1
281
     0
  0
BLOCK_RECORD
  5
6E6
330
1
100
AcDbSymbolTableRecord
100
AcDbBlockTableRecord
  2
A$C51dd9ed7
340
0
 70
     4
280
     1
281
     0
  0
BLOCK_RECORD
  5
EFB
102
{ACAD_XDICTIONARY
360
F00
102
}
330
1
100
AcDbSymbolTableRecord
100
AcDbBlockTableRecord
  2
A$C7211f684
340
0
 70
     4
280
     1
281
     0
  0
ENDTAB
  0
ENDSEC
  0
SECTION
  2
BLOCKS
  0
BLOCK
  5
20
330
1F
100
AcDbEntity
  8
0
100
AcDbBlockBegin
  2
*Model_Space
 70
     0
 10
0.0
 20
0.0
 30
0.0
  3
*Model_Space
  1

  0
ENDBLK
  5
21
330
1F
100
AcDbEntity
  8
0
100
AcDbBlockEnd
  0
BLOCK
  5
5A
330
58
100
AcDbEntity
 67
     1
  8
0
100
AcDbBlockBegin
  2
*Paper_Space
 70
     0
 10
0.0
 20
0.0
 30
0.0
  3
*Paper_Space
  1

  0
ENDBLK
  5
5B
330
58
100
AcDbEntity
 67
     1
  8
0
100
AcDbBlockEnd
  0
BLOCK
  5
23A
330
238
100
AcDbEntity
  8
0
100
AcDbBlockBegin
  2
_ArchTick
 70
     0
 10
0.0
 20
0.0
 30
0.0
  3
_ArchTick
  1

  0
LWPOLYLINE
  5
239
330
238
100
AcDbEntity
  8
0
  6
ByBlock
 62
     0
100
AcDbPolyline
 90
        2
 70
     0
 43
0.15
 10
-0.5
 20
-0.5
 10
0.5
 20
0.5
  0
ENDBLK
  5
23B
330
238
100
AcDbEntity
  8
0
100
AcDbBlockEnd
  0
BLOCK
  5
240
330
23C
100
AcDbEntity
  8
0
100
AcDbBlockBegin
  2
_Open30
 70
     0
 10
0.0
 20
0.0
 30
0.0
  3
_Open30
  1

  0
LINE
  5
23D
330
23C
100
AcDbEntity
  8
0
  6
ByBlock
 62
     0
370
    -2
100
AcDbLine
 10
-1.0
 20
0.26794919
 30
0.0
 11
0.0
 21
0.0
 31
0.0
  0
LINE
  5
23E
330
23C
100
AcDbEntity
  8
0
  6
ByBlock
 62
     0
370
    -2
100
AcDbLine
 10
0.0
 20
0.0
 30
0.0
 11
-1.0
 21
-0.26794919
 31
0.0
  0
LINE
  5
23F
330
23C
100
AcDbEntity
  8
0
  6
ByBlock
 62
     0
370
    -2
100
AcDbLine
 10
0.0
 20
0.0
 30
0.0
 11
-1.0
 21
0.0
 31
0.0
  0
ENDBLK
  5
241
330
23C
100
AcDbEntity
  8
0
100
AcDbBlockEnd
  0
BLOCK
  5
6E8
330
6E6
100
AcDbEntity
  8
0
100
AcDbBlockBegin
  2
A$C51dd9ed7
 70
     0
 10
0.0
 20
0.0
 30
0.0
  3
A$C51dd9ed7
  1

  0
LINE
  5
6E7
330
6E6
100
AcDbEntity
  8
0
100
AcDbLine
 10
-0.00000031730616
 20
2.499999897510831
 30
0.0
 11
-0.00000031730616
 21
-0.0000001024891674
 31
0.0
  0
ENDBLK
  5
6E9
330
6E6
100
AcDbEntity
  8
0
100
AcDbBlockEnd
  0
BLOCK
  5
F02
330
EFB
100
AcDbEntity
  8
0
100
AcDbBlockBegin
  2
A$C7211f684
 70
     0
 10
0.0
 20
0.0
 30
0.0
  3
A$C7211f684
  1

  0
LINE
  5
EFC
330
EFB
100
AcDbEntity
  8
0
100
AcDbLine
 10
0.0
 20
1.999999964476842
 30
0.0
 11
0.0
 21
-0.0000000355231577
 31
0.0
  0
LINE
  5
EFD
330
EFB
100
AcDbEntity
  8
0
100
AcDbLine
 10
0.0
 20
-0.0000000355231577
 30
0.0
 11
2.0
 21
-0.0000000355231577
 31
0.0
  0
LINE
  5
EFE
330
EFB
100
AcDbEntity
  8
0
100
AcDbLine
 10
2.0
 20
-0.0000000355231577
 30
0.0
 11
2.0
 21
1.999999964476842
 31
0.0
  0
LINE
  5
EFF
330
EFB
100
AcDbEntity
  8
0
100
AcDbLine
 10
2.0
 20
1.999999964476842
 30
0.0
 11
0.0
 21
1.999999964476842
 31
0.0
  0
ENDBLK
  5
F03
330
EFB
100
AcDbEntity
  8
0
100
AcDbBlockEnd
  0
ENDSEC
  0
SECTION
  2
ENTITIES
  0
LINE
  5
56B
330
1F
100
AcDbEntity
  8
0
100
AcDbLine
 10
89.72704892070366
 20
108.3792666936364
 30
0.0
 11
102.7270489207037
 21
108.3792666936364
 31
0.0
  0
LINE
  5
56C
330
1F
100
AcDbEntity
  8
0
100
AcDbLine
 10
89.72704892070366
 20
94.37926669363639
 30
0.0
 11
102.7270489207037
 21
94.37926669363639
 31
0.0
  0
LINE
  5
56D
330
1F
100
AcDbEntity
  8
0
100
AcDbLine
 10
89.22704892070369
 20
107.8792666936364
 30
0.0
 11
89.22704892070369
 21
94.87926669363639
 31
0.0
  0
LINE
  5
56E
330
1F
100
AcDbEntity
  8
0
100
AcDbLine
 10
103.2270489207036
 20
107.8792666936364
 30
0.0
 11
103.2270489207036
 21
94.87926669363639
 31
0.0
  0
ARC
  5
56F
330
1F
100
AcDbEntity
  8
0
100
AcDbCircle
 10
89.72704892070366
 20
107.8792666936364
 30
0.0
 40
0.5
100
AcDbArc
 50
90.0
 51
180.0
  0
ARC
  5
570
330
1F
100
AcDbEntity
  8
0
100
AcDbCircle
 10
102.7270489207037
 20
107.8792666936364
 30
0.0
 40
0.5
100
AcDbArc
 50
0.0
 51
90.0
  0
ARC
  5
571
330
1F
100
AcDbEntity
  8
0
100
AcDbCircle
 10
89.72704892070366
 20
94.87926669363639
 30
0.0
 40
0.5
100
AcDbArc
 50
180.0
 51
270.0
  0
ARC
  5
572
330
1F
100
AcDbEntity
  8
0
100
AcDbCircle
 10
102.7270489207037
 20
94.87926669363639
 30
0.0
 40
0.5
100
AcDbArc
 50
270.0
 51
0.0
  0
LINE
  5
573
330
1F
100
AcDbEntity
  8
0
100
AcDbLine
 10
70.67704892070366
 20
103.6167666936364
 30
0.0
 11
83.67704892070367
 21
103.6167666936364
 31
0.0
  0
LINE
  5
574
330
1F
100
AcDbEntity
  8
0
100
AcDbLine
 10
70.67704892070366
 20
89.61676669363638
 30
0.0
 11
83.67704892070367
 21
89.61676669363638
 31
0.0
  0
LINE
  5
575
330
1F
100
AcDbEntity
  8
0
100
AcDbLine
 10
70.17704892070367
 20
103.1167666936364
 30
0.0
 11
70.17704892070367
 21
90.11676669363639
 31
0.0
  0
LINE
  5
576
330
1F
100
AcDbEntity
  8
0
100
AcDbLine
 10
84.17704892070366
 20
103.1167666936364
 30
0.0
 11
84.17704892070366
 21
90.11676669363639
 31
0.0
  0
ARC
  5
577
330
1F
100
AcDbEntity
  8
0
100
AcDbCircle
 10
70.67704892070366
 20
103.1167666936364
 30
0.0
 40
0.5
100
AcDbArc
 50
90.0
 51
180.0
  0
ARC
  5
578
330
1F
100
AcDbEntity
  8
0
100
AcDbCircle
 10
83.67704892070367
 20
103.1167666936364
 30
0.0
 40
0.5
100
AcDbArc
 50
0.0
 51
90.0
  0
ARC
  5
579
330
1F
100
AcDbEntity
  8
0
100
AcDbCircle
 10
70.67704892070366
 20
90.11676669363639
 30
0.0
 40
0.5
100
AcDbArc
 50
180.0
 51
270.0
  0
ARC
  5
57A
330
1F
100
AcDbEntity
  8
0
100
AcDbCircle
 10
83.67704892070367
 20
90.11676669363639
 30
0.0
 40
0.5
100
AcDbArc
 50
270.0
 51
0.0
  0
LINE
  5
57B
330
1F
100
AcDbEntity
  8
0
100
AcDbLine
 10
108.7770489207037
 20
103.6167666936364
 30
0.0
 11
121.7770489207037
 21
103.6167666936364
 31
0.0
  0
LINE
  5
57C
330
1F
100
AcDbEntity
  8
0
100
AcDbLine
 10
108.7770489207037
 20
89.61676669363638
 30
0.0
 11
121.7770489207037
 21
89.61676669363638
 31
0.0
  0
LINE
  5
57D
330
1F
100
AcDbEntity
  8
0
100
AcDbLine
 10
108.2770489207037
 20
103.1167666936364
 30
0.0
 11
108.2770489207037
 21
90.11676669363639
 31
0.0
  0
LINE
  5
57E
330
1F
100
AcDbEntity
  8
0
100
AcDbLine
 10
122.2770489207037
 20
103.1167666936364
 30
0.0
 11
122.2770489207037
 21
90.11676669363639
 31
0.0
  0
ARC
  5
57F
330
1F
100
AcDbEntity
  8
0
100
AcDbCircle
 10
108.7770489207037
 20
103.1167666936364
 30
0.0
 40
0.5
100
AcDbArc
 50
90.0
 51
180.0
  0
ARC
  5
580
330
1F
100
AcDbEntity
  8
0
100
AcDbCircle
 10
121.7770489207037
 20
103.1167666936364
 30
0.0
 40
0.5
100
AcDbArc
 50
0.0
 51
90.0
  0
ARC
  5
581
330
1F
100
AcDbEntity
  8
0
100
AcDbCircle
 10
108.7770489207037
 20
90.11676669363639
 30
0.0
 40
0.5
100
AcDbArc
 50
180.0
 51
270.0
  0
ARC
  5
582
330
1F
100
AcDbEntity
  8
0
100
AcDbCircle
 10
121.7770489207037
 20
90.11676669363639
 30
0.0
 40
0.5
100
AcDbArc
 50
270.0
 51
0.0
  0
LINE
  5
583
330
1F
100
AcDbEntity
  8
0
100
AcDbLine
 10
127.8270489207036
 20
101.3307666936364
 30
0.0
 11
140.8270489207036
 21
101.3307666936364
 31
0.0
  0
LINE
  5
584
330
1F
100
AcDbEntity
  8
0
100
AcDbLine
 10
127.8270489207036
 20
87.33076669363638
 30
0.0
 11
140.8270489207036
 21
87.33076669363638
 31
0.0
  0
LINE
  5
585
330
1F
100
AcDbEntity
  8
0
100
AcDbLine
 10
127.3270489207037
 20
100.8307666936364
 30
0.0
 11
127.3270489207037
 21
87.83076669363639
 31
0.0
  0
LINE
  5
586
330
1F
100
AcDbEntity
  8
0
100
AcDbLine
 10
141.3270489207036
 20
100.8307666936364
 30
0.0
 11
141.3270489207036
 21
87.83076669363639
 31
0.0
  0
ARC
  5
587
330
1F
100
AcDbEntity
  8
0
100
AcDbCircle
 10
127.8270489207036
 20
100.8307666936364
 30
0.0
 40
0.5
100
AcDbArc
 50
90.0
 51
180.0
  0
ARC
  5
588
330
1F
100
AcDbEntity
  8
0
100
AcDbCircle
 10
140.8270489207036
 20
100.8307666936364
 30
0.0
 40
0.5
100
AcDbArc
 50
0.0
 51
90.0
  0
ARC
  5
589
330
1F
100
AcDbEntity
  8
0
100
AcDbCircle
 10
127.8270489207036
 20
87.83076669363639
 30
0.0
 40
0.5
100
AcDbArc
 50
180.0
 51
270.0
  0
ARC
  5
58A
330
1F
100
AcDbEntity
  8
0
100
AcDbCircle
 10
140.8270489207036
 20
87.83076669363639
 30
0.0
 40
0.5
100
AcDbArc
 50
270.0
 51
0.0
  0
LINE
  5
58B
330
1F
100
AcDbEntity
  8
0
100
AcDbLine
 10
51.62704892070367
 20
96.5682666936364
 30
0.0
 11
64.62704892070367
 21
96.5682666936364
 31
0.0
  0
LINE
  5
58C
330
1F
100
AcDbEntity
  8
0
100
AcDbLine
 10
51.62704892070367
 20
82.5682666936364
 30
0.0
 11
64.62704892070367
 21
82.5682666936364
 31
0.0
  0
LINE
  5
58D
330
1F
100
AcDbEntity
  8
0
100
AcDbLine
 10
51.12704892070367
 20
96.06826669363641
 30
0.0
 11
51.12704892070367
 21
83.06826669363641
 31
0.0
  0
LINE
  5
58E
330
1F
100
AcDbEntity
  8
0
100
AcDbLine
 10
65.12704892070367
 20
96.06826669363641
 30
0.0
 11
65.12704892070367
 21
83.06826669363641
 31
0.0
  0
ARC
  5
58F
330
1F
100
AcDbEntity
  8
0
100
AcDbCircle
 10
51.62704892070367
 20
96.06826669363641
 30
0.0
 40
0.5
100
AcDbArc
 50
90.0
 51
180.0
  0
ARC
  5
590
330
1F
100
AcDbEntity
  8
0
100
AcDbCircle
 10
64.62704892070367
 20
96.06826669363641
 30
0.0
 40
0.5
100
AcDbArc
 50
0.0
 51
90.0
  0
ARC
  5
591
330
1F
100
AcDbEntity
  8
0
100
AcDbCircle
 10
51.62704892070367
 20
83.06826669363641
 30
0.0
 40
0.5
100
AcDbArc
 50
180.0
 51
270.0
  0
ARC
  5
592
330
1F
100
AcDbEntity
  8
0
100
AcDbCircle
 10
64.62704892070367
 20
83.06826669363641
 30
0.0
 40
0.5
100
AcDbArc
 50
270.0
 51
0.0
  0
LINE
  5
593
330
1F
100
AcDbEntity
  8
0
100
AcDbLine
 10
32.57704892070368
 20
94.0917666936364
 30
0.0
 11
45.57704892070367
 21
94.0917666936364
 31
0.0
  0
LINE
  5
594
330
1F
100
AcDbEntity
  8
0
100
AcDbLine
 10
32.57704892070368
 20
80.0917666936364
 30
0.0
 11
45.57704892070367
 21
80.0917666936364
 31
0.0
  0
LINE
  5
595
330
1F
100
AcDbEntity
  8
0
100
AcDbLine
 10
32.07704892070367
 20
93.59176669363639
 30
0.0
 11
32.07704892070367
 21
80.5917666936364
 31
0.0
  0
LINE
  5
596
330
1F
100
AcDbEntity
  8
0
100
AcDbLine
 10
46.07704892070366
 20
93.59176669363639
 30
0.0
 11
46.07704892070366
 21
80.5917666936364
 31
0.0
  0
ARC
  5
597
330
1F
100
AcDbEntity
  8
0
100
AcDbCircle
 10
32.57704892070368
 20
93.59176669363639
 30
0.0
 40
0.5
100
AcDbArc
 50
90.0
 51
180.0
  0
ARC
  5
598
330
1F
100
AcDbEntity
  8
0
100
AcDbCircle
 10
45.57704892070367
 20
93.59176669363639
 30
0.0
 40
0.5
100
AcDbArc
 50
0.0
 51
90.0
  0
ARC
  5
599
330
1F
100
AcDbEntity
  8
0
100
AcDbCircle
 10
32.57704892070368
 20
80.5917666936364
 30
0.0
 40
0.5
100
AcDbArc
 50
180.0
 51
270.0
  0
ARC
  5
59A
330
1F
100
AcDbEntity
  8
0
100
AcDbCircle
 10
45.57704892070367
 20
80.5917666936364
 30
0.0
 40
0.5
100
AcDbArc
 50
270.0
 51
0.0
  0
LINE
  5
59B
330
1F
100
AcDbEntity
  8
0
100
AcDbLine
 10
89.72704892070366
 20
89.3292666936364
 30
0.0
 11
102.7270489207037
 21
89.3292666936364
 31
0.0
  0
LINE
  5
59C
330
1F
100
AcDbEntity
  8
0
100
AcDbLine
 10
89.72704892070366
 20
75.32926669363641
 30
0.0
 11
102.7270489207037
 21
75.32926669363641
 31
0.0
  0
LINE
  5
59D
330
1F
100
AcDbEntity
  8
0
100
AcDbLine
 10
89.22704892070369
 20
88.82926669363639
 30
0.0
 11
89.22704892070369
 21
75.82926669363641
 31
0.0
  0
LINE
  5
59E
330
1F
100
AcDbEntity
  8
0
100
AcDbLine
 10
103.2270489207036
 20
88.82926669363639
 30
0.0
 11
103.2270489207036
 21
75.82926669363641
 31
0.0
  0
ARC
  5
59F
330
1F
100
AcDbEntity
  8
0
100
AcDbCircle
 10
89.72704892070366
 20
88.82926669363639
 30
0.0
 40
0.5
100
AcDbArc
 50
90.0
 51
180.0
  0
ARC
  5
5A0
330
1F
100
AcDbEntity
  8
0
100
AcDbCircle
 10
102.7270489207037
 20
88.82926669363639
 30
0.0
 40
0.5
100
AcDbArc
 50
0.0
 51
90.0
  0
ARC
  5
5A1
330
1F
100
AcDbEntity
  8
0
100
AcDbCircle
 10
89.72704892070366
 20
75.82926669363641
 30
0.0
 40
0.5
100
AcDbArc
 50
180.0
 51
270.0
  0
ARC
  5
5A2
330
1F
100
AcDbEntity
  8
0
100
AcDbCircle
 10
102.7270489207037
 20
75.82926669363641
 30
0.0
 40
0.5
100
AcDbArc
 50
270.0
 51
0.0
  0
LINE
  5
5A3
330
1F
100
AcDbEntity
  8
0
100
AcDbLine
 10
70.67704892070366
 20
84.56676669363639
 30
0.0
 11
83.67704892070367
 21
84.56676669363639
 31
0.0
  0
LINE
  5
5A4
330
1F
100
AcDbEntity
  8
0
100
AcDbLine
 10
70.67704892070366
 20
70.56676669363641
 30
0.0
 11
83.67704892070367
 21
70.56676669363641
 31
0.0
  0
LINE
  5
5A5
330
1F
100
AcDbEntity
  8
0
100
AcDbLine
 10
70.17704892070367
 20
84.06676669363639
 30
0.0
 11
70.17704892070367
 21
71.06676669363641
 31
0.0
  0
LINE
  5
5A6
330
1F
100
AcDbEntity
  8
0
100
AcDbLine
 10
84.17704892070366
 20
84.06676669363639
 30
0.0
 11
84.17704892070366
 21
71.06676669363641
 31
0.0
  0
ARC
  5
5A7
330
1F
100
AcDbEntity
  8
0
100
AcDbCircle
 10
70.67704892070366
 20
84.06676669363639
 30
0.0
 40
0.5
100
AcDbArc
 50
90.0
 51
180.0
  0
ARC
  5
5A8
330
1F
100
AcDbEntity
  8
0
100
AcDbCircle
 10
83.67704892070367
 20
84.06676669363639
 30
0.0
 40
0.5
100
AcDbArc
 50
0.0
 51
90.0
  0
ARC
  5
5A9
330
1F
100
AcDbEntity
  8
0
100
AcDbCircle
 10
70.67704892070366
 20
71.06676669363641
 30
0.0
 40
0.5
100
AcDbArc
 50
180.0
 51
270.0
  0
ARC
  5
5AA
330
1F
100
AcDbEntity
  8
0
100
AcDbCircle
 10
83.67704892070367
 20
71.06676669363641
 30
0.0
 40
0.5
100
AcDbArc
 50
270.0
 51
0.0
  0
LINE
  5
5AB
330
1F
100
AcDbEntity
  8
0
100
AcDbLine
 10
108.7770489207037
 20
84.56676669363639
 30
0.0
 11
121.7770489207037
 21
84.56676669363639
 31
0.0
  0
LINE
  5
5AC
330
1F
100
AcDbEntity
  8
0
100
AcDbLine
 10
108.7770489207037
 20
70.56676669363641
 30
0.0
 11
121.7770489207037
 21
70.56676669363641
 31
0.0
  0
LINE
  5
5AD
330
1F
100
AcDbEntity
  8
0
100
AcDbLine
 10
108.2770489207037
 20
84.06676669363639
 30
0.0
 11
108.2770489207037
 21
71.06676669363641
 31
0.0
  0
LINE
  5
5AE
330
1F
100
AcDbEntity
  8
0
100
AcDbLine
 10
122.2770489207037
 20
84.06676669363639
 30
0.0
 11
122.2770489207037
 21
71.06676669363641
 31
0.0
  0
ARC
  5
5AF
330
1F
100
AcDbEntity
  8
0
100
AcDbCircle
 10
108.7770489207037
 20
84.06676669363639
 30
0.0
 40
0.5
100
AcDbArc
 50
90.0
 51
180.0
  0
ARC
  5
5B0
330
1F
100
AcDbEntity
  8
0
100
AcDbCircle
 10
121.7770489207037
 20
84.06676669363639
 30
0.0
 40
0.5
100
AcDbArc
 50
0.0
 51
90.0
  0
ARC
  5
5B1
330
1F
100
AcDbEntity
  8
0
100
AcDbCircle
 10
108.7770489207037
 20
71.06676669363641
 30
0.0
 40
0.5
100
AcDbArc
 50
180.0
 51
270.0
  0
ARC
  5
5B2
330
1F
100
AcDbEntity
  8
0
100
AcDbCircle
 10
121.7770489207037
 20
71.06676669363641
 30
0.0
 40
0.5
100
AcDbArc
 50
270.0
 51
0.0
  0
LINE
  5
5B3
330
1F
100
AcDbEntity
  8
0
100
AcDbLine
 10
127.8270489207036
 20
82.28076669363639
 30
0.0
 11
140.8270489207036
 21
82.28076669363639
 31
0.0
  0
LINE
  5
5B4
330
1F
100
AcDbEntity
  8
0
100
AcDbLine
 10
127.8270489207036
 20
68.28076669363639
 30
0.0
 11
140.8270489207036
 21
68.28076669363639
 31
0.0
  0
LINE
  5
5B5
330
1F
100
AcDbEntity
  8
0
100
AcDbLine
 10
127.3270489207037
 20
81.78076669363639
 30
0.0
 11
127.3270489207037
 21
68.7807666936364
 31
0.0
  0
LINE
  5
5B6
330
1F
100
AcDbEntity
  8
0
100
AcDbLine
 10
141.3270489207036
 20
81.78076669363639
 30
0.0
 11
141.3270489207036
 21
68.7807666936364
 31
0.0
  0
ARC
  5
5B7
330
1F
100
AcDbEntity
  8
0
100
AcDbCircle
 10
127.8270489207036
 20
81.78076669363639
 30
0.0
 40
0.5
100
AcDbArc
 50
90.0
 51
180.0
  0
ARC
  5
5B8
330
1F
100
AcDbEntity
  8
0
100
AcDbCircle
 10
140.8270489207036
 20
81.78076669363639
 30
0.0
 40
0.5
100
AcDbArc
 50
0.0
 51
90.0
  0
ARC
  5
5B9
330
1F
100
AcDbEntity
  8
0
100
AcDbCircle
 10
127.8270489207036
 20
68.7807666936364
 30
0.0
 40
0.5
100
AcDbArc
 50
180.0
 51
270.0
  0
ARC
  5
5BA
330
1F
100
AcDbEntity
  8
0
100
AcDbCircle
 10
140.8270489207036
 20
68.7807666936364
 30
0.0
 40
0.5
100
AcDbArc
 50
270.0
 51
0.0
  0
LINE
  5
5BB
330
1F
100
AcDbEntity
  8
0
100
AcDbLine
 10
51.62704892070367
 20
77.51826669363641
 30
0.0
 11
64.62704892070367
 21
77.51826669363641
 31
0.0
  0
LINE
  5
5BC
330
1F
100
AcDbEntity
  8
0
100
AcDbLine
 10
51.62704892070367
 20
63.5182666936364
 30
0.0
 11
64.62704892070367
 21
63.5182666936364
 31
0.0
  0
LINE
  5
5BD
330
1F
100
AcDbEntity
  8
0
100
AcDbLine
 10
51.12704892070367
 20
77.0182666936364
 30
0.0
 11
51.12704892070367
 21
64.01826669363639
 31
0.0
  0
LINE
  5
5BE
330
1F
100
AcDbEntity
  8
0
100
AcDbLine
 10
65.12704892070367
 20
77.0182666936364
 30
0.0
 11
65.12704892070367
 21
64.01826669363639
 31
0.0
  0
ARC
  5
5BF
330
1F
100
AcDbEntity
  8
0
100
AcDbCircle
 10
51.62704892070367
 20
77.0182666936364
 30
0.0
 40
0.5
100
AcDbArc
 50
90.0
 51
180.0
  0
ARC
  5
5C0
330
1F
100
AcDbEntity
  8
0
100
AcDbCircle
 10
64.62704892070367
 20
77.0182666936364
 30
0.0
 40
0.5
100
AcDbArc
 50
0.0
 51
90.0
  0
ARC
  5
5C1
330
1F
100
AcDbEntity
  8
0
100
AcDbCircle
 10
51.62704892070367
 20
64.01826669363639
 30
0.0
 40
0.5
100
AcDbArc
 50
180.0
 51
270.0
  0
ARC
  5
5C2
330
1F
100
AcDbEntity
  8
0
100
AcDbCircle
 10
64.62704892070367
 20
64.01826669363639
 30
0.0
 40
0.5
100
AcDbArc
 50
270.0
 51
0.0
  0
LINE
  5
5C3
330
1F
100
AcDbEntity
  8
0
100
AcDbLine
 10
32.57704892070368
 20
75.04176669363641
 30
0.0
 11
45.57704892070367
 21
75.04176669363641
 31
0.0
  0
LINE
  5
5C4
330
1F
100
AcDbEntity
  8
0
100
AcDbLine
 10
32.57704892070368
 20
61.04176669363639
 30
0.0
 11
45.57704892070367
 21
61.04176669363639
 31
0.0
  0
LINE
  5
5C5
330
1F
100
AcDbEntity
  8
0
100
AcDbLine
 10
32.07704892070367
 20
74.5417666936364
 30
0.0
 11
32.07704892070367
 21
61.54176669363639
 31
0.0
  0
LINE
  5
5C6
330
1F
100
AcDbEntity
  8
0
100
AcDbLine
 10
46.07704892070366
 20
74.5417666936364
 30
0.0
 11
46.07704892070366
 21
61.54176669363639
 31
0.0
  0
ARC
  5
5C7
330
1F
100
AcDbEntity
  8
0
100
AcDbCircle
 10
32.57704892070368
 20
74.5417666936364
 30
0.0
 40
0.5
100
AcDbArc
 50
90.0
 51
180.0
  0
ARC
  5
5C8
330
1F
100
AcDbEntity
  8
0
100
AcDbCircle
 10
45.57704892070367
 20
74.5417666936364
 30
0.0
 40
0.5
100
AcDbArc
 50
0.0
 51
90.0
  0
ARC
  5
5C9
330
1F
100
AcDbEntity
  8
0
100
AcDbCircle
 10
32.57704892070368
 20
61.54176669363639
 30
0.0
 40
0.5
100
AcDbArc
 50
180.0
 51
270.0
  0
ARC
  5
5CA
330
1F
100
AcDbEntity
  8
0
100
AcDbCircle
 10
45.57704892070367
 20
61.54176669363639
 30
0.0
 40
0.5
100
AcDbArc
 50
270.0
 51
0.0
  0
LINE
  5
5CB
330
1F
100
AcDbEntity
  8
0
100
AcDbLine
 10
89.72704892070366
 20
70.2792666936364
 30
0.0
 11
102.7270489207037
 21
70.2792666936364
 31
0.0
  0
LINE
  5
5CC
330
1F
100
AcDbEntity
  8
0
100
AcDbLine
 10
89.72704892070366
 20
56.2792666936364
 30
0.0
 11
102.7270489207037
 21
56.2792666936364
 31
0.0
  0
LINE
  5
5CD
330
1F
100
AcDbEntity
  8
0
100
AcDbLine
 10
89.22704892070369
 20
69.7792666936364
 30
0.0
 11
89.22704892070369
 21
56.7792666936364
 31
0.0
  0
LINE
  5
5CE
330
1F
100
AcDbEntity
  8
0
100
AcDbLine
 10
103.2270489207036
 20
69.7792666936364
 30
0.0
 11
103.2270489207036
 21
56.7792666936364
 31
0.0
  0
ARC
  5
5CF
330
1F
100
AcDbEntity
  8
0
100
AcDbCircle
 10
89.72704892070366
 20
69.7792666936364
 30
0.0
 40
0.5
100
AcDbArc
 50
90.0
 51
180.0
  0
ARC
  5
5D0
330
1F
100
AcDbEntity
  8
0
100
AcDbCircle
 10
102.7270489207037
 20
69.7792666936364
 30
0.0
 40
0.5
100
AcDbArc
 50
0.0
 51
90.0
  0
ARC
  5
5D1
330
1F
100
AcDbEntity
  8
0
100
AcDbCircle
 10
89.72704892070366
 20
56.7792666936364
 30
0.0
 40
0.5
100
AcDbArc
 50
180.0
 51
270.0
  0
ARC
  5
5D2
330
1F
100
AcDbEntity
  8
0
100
AcDbCircle
 10
102.7270489207037
 20
56.7792666936364
 30
0.0
 40
0.5
100
AcDbArc
 50
270.0
 51
0.0
  0
LINE
  5
5D3
330
1F
100
AcDbEntity
  8
0
100
AcDbLine
 10
70.67704892070366
 20
65.51676669363641
 30
0.0
 11
83.67704892070367
 21
65.51676669363641
 31
0.0
  0
LINE
  5
5D4
330
1F
100
AcDbEntity
  8
0
100
AcDbLine
 10
70.67704892070366
 20
51.51676669363641
 30
0.0
 11
83.67704892070367
 21
51.51676669363641
 31
0.0
  0
LINE
  5
5D5
330
1F
100
AcDbEntity
  8
0
100
AcDbLine
 10
70.17704892070367
 20
65.01676669363641
 30
0.0
 11
70.17704892070367
 21
52.0167666936364
 31
0.0
  0
LINE
  5
5D6
330
1F
100
AcDbEntity
  8
0
100
AcDbLine
 10
84.17704892070366
 20
65.01676669363641
 30
0.0
 11
84.17704892070366
 21
52.0167666936364
 31
0.0
  0
ARC
  5
5D7
330
1F
100
AcDbEntity
  8
0
100
AcDbCircle
 10
70.67704892070366
 20
65.01676669363641
 30
0.0
 40
0.5
100
AcDbArc
 50
90.0
 51
180.0
  0
ARC
  5
5D8
330
1F
100
AcDbEntity
  8
0
100
AcDbCircle
 10
83.67704892070367
 20
65.01676669363641
 30
0.0
 40
0.5
100
AcDbArc
 50
0.0
 51
90.0
  0
ARC
  5
5D9
330
1F
100
AcDbEntity
  8
0
100
AcDbCircle
 10
70.67704892070366
 20
52.0167666936364
 30
0.0
 40
0.5
100
AcDbArc
 50
180.0
 51
270.0
  0
ARC
  5
5DA
330
1F
100
AcDbEntity
  8
0
100
AcDbCircle
 10
83.67704892070367
 20
52.0167666936364
 30
0.0
 40
0.5
100
AcDbArc
 50
270.0
 51
0.0
  0
LINE
  5
5DB
330
1F
100
AcDbEntity
  8
0
100
AcDbLine
 10
108.7770489207037
 20
65.51676669363641
 30
0.0
 11
121.7770489207037
 21
65.51676669363641
 31
0.0
  0
LINE
  5
5DC
330
1F
100
AcDbEntity
  8
0
100
AcDbLine
 10
108.7770489207037
 20
51.51676669363641
 30
0.0
 11
121.7770489207037
 21
51.51676669363641
 31
0.0
  0
LINE
  5
5DD
330
1F
100
AcDbEntity
  8
0
100
AcDbLine
 10
108.2770489207037
 20
65.01676669363641
 30
0.0
 11
108.2770489207037
 21
52.0167666936364
 31
0.0
  0
LINE
  5
5DE
330
1F
100
AcDbEntity
  8
0
100
AcDbLine
 10
122.2770489207037
 20
65.01676669363641
 30
0.0
 11
122.2770489207037
 21
52.0167666936364
 31
0.0
  0
ARC
  5
5DF
330
1F
100
AcDbEntity
  8
0
100
AcDbCircle
 10
108.7770489207037
 20
65.01676669363641
 30
0.0
 40
0.5
100
AcDbArc
 50
90.0
 51
180.0
  0
ARC
  5
5E0
330
1F
100
AcDbEntity
  8
0
100
AcDbCircle
 10
121.7770489207037
 20
65.01676669363641
 30
0.0
 40
0.5
100
AcDbArc
 50
0.0
 51
90.0
  0
ARC
  5
5E1
330
1F
100
AcDbEntity
  8
0
100
AcDbCircle
 10
108.7770489207037
 20
52.0167666936364
 30
0.0
 40
0.5
100
AcDbArc
 50
180.0
 51
270.0
  0
ARC
  5
5E2
330
1F
100
AcDbEntity
  8
0
100
AcDbCircle
 10
121.7770489207037
 20
52.0167666936364
 30
0.0
 40
0.5
100
AcDbArc
 50
270.0
 51
0.0
  0
LINE
  5
5E3
330
1F
100
AcDbEntity
  8
0
100
AcDbLine
 10
127.8270489207036
 20
63.2307666936364
 30
0.0
 11
140.8270489207036
 21
63.2307666936364
 31
0.0
  0
LINE
  5
5E4
330
1F
100
AcDbEntity
  8
0
100
AcDbLine
 10
127.8270489207036
 20
49.2307666936364
 30
0.0
 11
140.8270489207036
 21
49.2307666936364
 31
0.0
  0
LINE
  5
5E5
330
1F
100
AcDbEntity
  8
0
100
AcDbLine
 10
127.3270489207037
 20
62.73076669363639
 30
0.0
 11
127.3270489207037
 21
49.73076669363639
 31
0.0
  0
LINE
  5
5E6
330
1F
100
AcDbEntity
  8
0
100
AcDbLine
 10
141.3270489207036
 20
62.73076669363639
 30
0.0
 11
141.3270489207036
 21
49.73076669363639
 31
0.0
  0
ARC
  5
5E7
330
1F
100
AcDbEntity
  8
0
100
AcDbCircle
 10
127.8270489207036
 20
62.73076669363639
 30
0.0
 40
0.5
100
AcDbArc
 50
90.0
 51
180.0
  0
ARC
  5
5E8
330
1F
100
AcDbEntity
  8
0
100
AcDbCircle
 10
140.8270489207036
 20
62.73076669363639
 30
0.0
 40
0.5
100
AcDbArc
 50
0.0
 51
90.0
  0
ARC
  5
5E9
330
1F
100
AcDbEntity
  8
0
100
AcDbCircle
 10
127.8270489207036
 20
49.73076669363639
 30
0.0
 40
0.5
100
AcDbArc
 50
180.0
 51
270.0
  0
ARC
  5
5EA
330
1F
100
AcDbEntity
  8
0
100
AcDbCircle
 10
140.8270489207036
 20
49.73076669363639
 30
0.0
 40
0.5
100
AcDbArc
 50
270.0
 51
0.0
  0
LINE
  5
5EB
330
1F
100
AcDbEntity
  8
0
100
AcDbLine
 10
13.52704892070367
 20
60.7542666936364
 30
0.0
 11
26.52704892070368
 21
60.7542666936364
 31
0.0
  0
LINE
  5
5EC
330
1F
100
AcDbEntity
  8
0
100
AcDbLine
 10
13.52704892070367
 20
46.75426669363639
 30
0.0
 11
26.52704892070368
 21
46.75426669363639
 31
0.0
  0
LINE
  5
5ED
330
1F
100
AcDbEntity
  8
0
100
AcDbLine
 10
13.02704892070367
 20
60.25426669363639
 30
0.0
 11
13.02704892070367
 21
47.25426669363641
 31
0.0
  0
LINE
  5
5EE
330
1F
100
AcDbEntity
  8
0
100
AcDbLine
 10
27.02704892070368
 20
60.25426669363639
 30
0.0
 11
27.02704892070368
 21
47.25426669363641
 31
0.0
  0
ARC
  5
5EF
330
1F
100
AcDbEntity
  8
0
100
AcDbCircle
 10
13.52704892070367
 20
60.25426669363639
 30
0.0
 40
0.5
100
AcDbArc
 50
90.0
 51
180.0
  0
ARC
  5
5F0
330
1F
100
AcDbEntity
  8
0
100
AcDbCircle
 10
26.52704892070368
 20
60.25426669363639
 30
0.0
 40
0.5
100
AcDbArc
 50
0.0
 51
90.0
  0
ARC
  5
5F1
330
1F
100
AcDbEntity
  8
0
100
AcDbCircle
 10
13.52704892070367
 20
47.25426669363641
 30
0.0
 40
0.5
100
AcDbArc
 50
180.0
 51
270.0
  0
ARC
  5
5F2
330
1F
100
AcDbEntity
  8
0
100
AcDbCircle
 10
26.52704892070368
 20
47.25426669363641
 30
0.0
 40
0.5
100
AcDbArc
 50
270.0
 51
0.0
  0
LINE
  5
5F3
330
1F
100
AcDbEntity
  8
0
100
AcDbLine
 10
51.62704892070367
 20
58.4682666936364
 30
0.0
 11
64.62704892070367
 21
58.4682666936364
 31
0.0
  0
LINE
  5
5F4
330
1F
100
AcDbEntity
  8
0
100
AcDbLine
 10
51.62704892070367
 20
44.4682666936364
 30
0.0
 11
64.62704892070367
 21
44.4682666936364
 31
0.0
  0
LINE
  5
5F5
330
1F
100
AcDbEntity
  8
0
100
AcDbLine
 10
51.12704892070367
 20
57.9682666936364
 30
0.0
 11
51.12704892070367
 21
44.96826669363641
 31
0.0
  0
LINE
  5
5F6
330
1F
100
AcDbEntity
  8
0
100
AcDbLine
 10
65.12704892070367
 20
57.9682666936364
 30
0.0
 11
65.12704892070367
 21
44.96826669363641
 31
0.0
  0
ARC
  5
5F7
330
1F
100
AcDbEntity
  8
0
100
AcDbCircle
 10
51.62704892070367
 20
57.9682666936364
 30
0.0
 40
0.5
100
AcDbArc
 50
90.0
 51
180.0
  0
ARC
  5
5F8
330
1F
100
AcDbEntity
  8
0
100
AcDbCircle
 10
64.62704892070367
 20
57.9682666936364
 30
0.0
 40
0.5
100
AcDbArc
 50
0.0
 51
90.0
  0
ARC
  5
5F9
330
1F
100
AcDbEntity
  8
0
100
AcDbCircle
 10
51.62704892070367
 20
44.96826669363641
 30
0.0
 40
0.5
100
AcDbArc
 50
180.0
 51
270.0
  0
ARC
  5
5FA
330
1F
100
AcDbEntity
  8
0
100
AcDbCircle
 10
64.62704892070367
 20
44.96826669363641
 30
0.0
 40
0.5
100
AcDbArc
 50
270.0
 51
0.0
  0
LINE
  5
5FB
330
1F
100
AcDbEntity
  8
0
100
AcDbLine
 10
32.57704892070368
 20
55.9917666936364
 30
0.0
 11
45.57704892070367
 21
55.9917666936364
 31
0.0
  0
LINE
  5
5FC
330
1F
100
AcDbEntity
  8
0
100
AcDbLine
 10
32.57704892070368
 20
41.9917666936364
 30
0.0
 11
45.57704892070367
 21
41.9917666936364
 31
0.0
  0
LINE
  5
5FD
330
1F
100
AcDbEntity
  8
0
100
AcDbLine
 10
32.07704892070367
 20
55.49176669363641
 30
0.0
 11
32.07704892070367
 21
42.49176669363641
 31
0.0
  0
LINE
  5
5FE
330
1F
100
AcDbEntity
  8
0
100
AcDbLine
 10
46.07704892070366
 20
55.49176669363641
 30
0.0
 11
46.07704892070366
 21
42.49176669363641
 31
0.0
  0
ARC
  5
5FF
330
1F
100
AcDbEntity
  8
0
100
AcDbCircle
 10
32.57704892070368
 20
55.49176669363641
 30
0.0
 40
0.5
100
AcDbArc
 50
90.0
 51
180.0
  0
ARC
  5
600
330
1F
100
AcDbEntity
  8
0
100
AcDbCircle
 10
45.57704892070367
 20
55.49176669363641
 30
0.0
 40
0.5
100
AcDbArc
 50
0.0
 51
90.0
  0
ARC
  5
601
330
1F
100
AcDbEntity
  8
0
100
AcDbCircle
 10
32.57704892070368
 20
42.49176669363641
 30
0.0
 40
0.5
100
AcDbArc
 50
180.0
 51
270.0
  0
ARC
  5
602
330
1F
100
AcDbEntity
  8
0
100
AcDbCircle
 10
45.57704892070367
 20
42.49176669363641
 30
0.0
 40
0.5
100
AcDbArc
 50
270.0
 51
0.0
  0
LINE
  5
603
330
1F
100
AcDbEntity
  8
0
100
AcDbLine
 10
89.72704892070366
 20
51.22926669363639
 30
0.0
 11
102.7270489207037
 21
51.22926669363639
 31
0.0
  0
LINE
  5
604
330
1F
100
AcDbEntity
  8
0
100
AcDbLine
 10
89.72704892070366
 20
37.22926669363641
 30
0.0
 11
102.7270489207037
 21
37.22926669363641
 31
0.0
  0
LINE
  5
605
330
1F
100
AcDbEntity
  8
0
100
AcDbLine
 10
89.22704892070369
 20
50.72926669363639
 30
0.0
 11
89.22704892070369
 21
37.7292666936364
 31
0.0
  0
LINE
  5
606
330
1F
100
AcDbEntity
  8
0
100
AcDbLine
 10
103.2270489207036
 20
50.72926669363639
 30
0.0
 11
103.2270489207036
 21
37.7292666936364
 31
0.0
  0
ARC
  5
607
330
1F
100
AcDbEntity
  8
0
100
AcDbCircle
 10
89.72704892070366
 20
50.72926669363639
 30
0.0
 40
0.5
100
AcDbArc
 50
90.0
 51
180.0
  0
ARC
  5
608
330
1F
100
AcDbEntity
  8
0
100
AcDbCircle
 10
102.7270489207037
 20
50.72926669363639
 30
0.0
 40
0.5
100
AcDbArc
 50
0.0
 51
90.0
  0
ARC
  5
609
330
1F
100
AcDbEntity
  8
0
100
AcDbCircle
 10
89.72704892070366
 20
37.7292666936364
 30
0.0
 40
0.5
100
AcDbArc
 50
180.0
 51
270.0
  0
ARC
  5
60A
330
1F
100
AcDbEntity
  8
0
100
AcDbCircle
 10
102.7270489207037
 20
37.7292666936364
 30
0.0
 40
0.5
100
AcDbArc
 50
270.0
 51
0.0
  0
LINE
  5
60B
330
1F
100
AcDbEntity
  8
0
100
AcDbLine
 10
70.67704892070366
 20
46.4667666936364
 30
0.0
 11
83.67704892070367
 21
46.4667666936364
 31
0.0
  0
LINE
  5
60C
330
1F
100
AcDbEntity
  8
0
100
AcDbLine
 10
70.67704892070366
 20
32.4667666936364
 30
0.0
 11
83.67704892070367
 21
32.4667666936364
 31
0.0
  0
LINE
  5
60D
330
1F
100
AcDbEntity
  8
0
100
AcDbLine
 10
70.17704892070367
 20
45.9667666936364
 30
0.0
 11
70.17704892070367
 21
32.9667666936364
 31
0.0
  0
LINE
  5
60E
330
1F
100
AcDbEntity
  8
0
100
AcDbLine
 10
84.17704892070366
 20
45.9667666936364
 30
0.0
 11
84.17704892070366
 21
32.9667666936364
 31
0.0
  0
ARC
  5
60F
330
1F
100
AcDbEntity
  8
0
100
AcDbCircle
 10
70.67704892070366
 20
45.9667666936364
 30
0.0
 40
0.5
100
AcDbArc
 50
90.0
 51
180.0
  0
ARC
  5
610
330
1F
100
AcDbEntity
  8
0
100
AcDbCircle
 10
83.67704892070367
 20
45.9667666936364
 30
0.0
 40
0.5
100
AcDbArc
 50
0.0
 51
90.0
  0
ARC
  5
611
330
1F
100
AcDbEntity
  8
0
100
AcDbCircle
 10
70.67704892070366
 20
32.9667666936364
 30
0.0
 40
0.5
100
AcDbArc
 50
180.0
 51
270.0
  0
ARC
  5
612
330
1F
100
AcDbEntity
  8
0
100
AcDbCircle
 10
83.67704892070367
 20
32.9667666936364
 30
0.0
 40
0.5
100
AcDbArc
 50
270.0
 51
0.0
  0
LINE
  5
613
330
1F
100
AcDbEntity
  8
0
100
AcDbLine
 10
108.7770489207037
 20
46.4667666936364
 30
0.0
 11
121.7770489207037
 21
46.4667666936364
 31
0.0
  0
LINE
  5
614
330
1F
100
AcDbEntity
  8
0
100
AcDbLine
 10
108.7770489207037
 20
32.4667666936364
 30
0.0
 11
121.7770489207037
 21
32.4667666936364
 31
0.0
  0
LINE
  5
615
330
1F
100
AcDbEntity
  8
0
100
AcDbLine
 10
108.2770489207037
 20
45.9667666936364
 30
0.0
 11
108.2770489207037
 21
32.9667666936364
 31
0.0
  0
LINE
  5
616
330
1F
100
AcDbEntity
  8
0
100
AcDbLine
 10
122.2770489207037
 20
45.9667666936364
 30
0.0
 11
122.2770489207037
 21
32.9667666936364
 31
0.0
  0
ARC
  5
617
330
1F
100
AcDbEntity
  8
0
100
AcDbCircle
 10
108.7770489207037
 20
45.9667666936364
 30
0.0
 40
0.5
100
AcDbArc
 50
90.0
 51
180.0
  0
ARC
  5
618
330
1F
100
AcDbEntity
  8
0
100
AcDbCircle
 10
121.7770489207037
 20
45.9667666936364
 30
0.0
 40
0.5
100
AcDbArc
 50
0.0
 51
90.0
  0
ARC
  5
619
330
1F
100
AcDbEntity
  8
0
100
AcDbCircle
 10
108.7770489207037
 20
32.9667666936364
 30
0.0
 40
0.5
100
AcDbArc
 50
180.0
 51
270.0
  0
ARC
  5
61A
330
1F
100
AcDbEntity
  8
0
100
AcDbCircle
 10
121.7770489207037
 20
32.9667666936364
 30
0.0
 40
0.5
100
AcDbArc
 50
270.0
 51
0.0
  0
LINE
  5
61B
330
1F
100
AcDbEntity
  8
0
100
AcDbLine
 10
127.8270489207036
 20
44.1807666936364
 30
0.0
 11
140.8270489207036
 21
44.1807666936364
 31
0.0
  0
LINE
  5
61C
330
1F
100
AcDbEntity
  8
0
100
AcDbLine
 10
127.8270489207036
 20
30.1807666936364
 30
0.0
 11
140.8270489207036
 21
30.1807666936364
 31
0.0
  0
LINE
  5
61D
330
1F
100
AcDbEntity
  8
0
100
AcDbLine
 10
127.3270489207037
 20
43.6807666936364
 30
0.0
 11
127.3270489207037
 21
30.6807666936364
 31
0.0
  0
LINE
  5
61E
330
1F
100
AcDbEntity
  8
0
100
AcDbLine
 10
141.3270489207036
 20
43.6807666936364
 30
0.0
 11
141.3270489207036
 21
30.6807666936364
 31
0.0
  0
ARC
  5
61F
330
1F
100
AcDbEntity
  8
0
100
AcDbCircle
 10
127.8270489207036
 20
43.6807666936364
 30
0.0
 40
0.5
100
AcDbArc
 50
90.0
 51
180.0
  0
ARC
  5
620
330
1F
100
AcDbEntity
  8
0
100
AcDbCircle
 10
140.8270489207036
 20
43.6807666936364
 30
0.0
 40
0.5
100
AcDbArc
 50
0.0
 51
90.0
  0
ARC
  5
621
330
1F
100
AcDbEntity
  8
0
100
AcDbCircle
 10
127.8270489207036
 20
30.6807666936364
 30
0.0
 40
0.5
100
AcDbArc
 50
180.0
 51
270.0
  0
ARC
  5
622
330
1F
100
AcDbEntity
  8
0
100
AcDbCircle
 10
140.8270489207036
 20
30.6807666936364
 30
0.0
 40
0.5
100
AcDbArc
 50
270.0
 51
0.0
  0
LINE
  5
623
330
1F
100
AcDbEntity
  8
0
100
AcDbLine
 10
51.62704892070367
 20
39.4182666936364
 30
0.0
 11
64.62704892070367
 21
39.4182666936364
 31
0.0
  0
LINE
  5
624
330
1F
100
AcDbEntity
  8
0
100
AcDbLine
 10
51.62704892070367
 20
25.4182666936364
 30
0.0
 11
64.62704892070367
 21
25.4182666936364
 31
0.0
  0
LINE
  5
625
330
1F
100
AcDbEntity
  8
0
100
AcDbLine
 10
51.12704892070367
 20
38.9182666936364
 30
0.0
 11
51.12704892070367
 21
25.9182666936364
 31
0.0
  0
LINE
  5
626
330
1F
100
AcDbEntity
  8
0
100
AcDbLine
 10
65.12704892070367
 20
38.9182666936364
 30
0.0
 11
65.12704892070367
 21
25.9182666936364
 31
0.0
  0
ARC
  5
627
330
1F
100
AcDbEntity
  8
0
100
AcDbCircle
 10
51.62704892070367
 20
38.9182666936364
 30
0.0
 40
0.5
100
AcDbArc
 50
90.0
 51
180.0
  0
ARC
  5
628
330
1F
100
AcDbEntity
  8
0
100
AcDbCircle
 10
64.62704892070367
 20
38.9182666936364
 30
0.0
 40
0.5
100
AcDbArc
 50
0.0
 51
90.0
  0
ARC
  5
629
330
1F
100
AcDbEntity
  8
0
100
AcDbCircle
 10
51.62704892070367
 20
25.9182666936364
 30
0.0
 40
0.5
100
AcDbArc
 50
180.0
 51
270.0
  0
ARC
  5
62A
330
1F
100
AcDbEntity
  8
0
100
AcDbCircle
 10
64.62704892070367
 20
25.9182666936364
 30
0.0
 40
0.5
100
AcDbArc
 50
270.0
 51
0.0
  0
LINE
  5
62B
330
1F
100
AcDbEntity
  8
0
100
AcDbLine
 10
32.57704892070368
 20
36.94176669363641
 30
0.0
 11
45.57704892070367
 21
36.94176669363641
 31
0.0
  0
LINE
  5
62C
330
1F
100
AcDbEntity
  8
0
100
AcDbLine
 10
32.57704892070368
 20
22.94176669363641
 30
0.0
 11
45.57704892070367
 21
22.94176669363641
 31
0.0
  0
LINE
  5
62D
330
1F
100
AcDbEntity
  8
0
100
AcDbLine
 10
32.07704892070367
 20
36.44176669363641
 30
0.0
 11
32.07704892070367
 21
23.4417666936364
 31
0.0
  0
LINE
  5
62E
330
1F
100
AcDbEntity
  8
0
100
AcDbLine
 10
46.07704892070366
 20
36.44176669363641
 30
0.0
 11
46.07704892070366
 21
23.4417666936364
 31
0.0
  0
ARC
  5
62F
330
1F
100
AcDbEntity
  8
0
100
AcDbCircle
 10
32.57704892070368
 20
36.44176669363641
 30
0.0
 40
0.5
100
AcDbArc
 50
90.0
 51
180.0
  0
ARC
  5
630
330
1F
100
AcDbEntity
  8
0
100
AcDbCircle
 10
45.57704892070367
 20
36.44176669363641
 30
0.0
 40
0.5
100
AcDbArc
 50
0.0
 51
90.0
  0
ARC
  5
631
330
1F
100
AcDbEntity
  8
0
100
AcDbCircle
 10
32.57704892070368
 20
23.4417666936364
 30
0.0
 40
0.5
100
AcDbArc
 50
180.0
 51
270.0
  0
ARC
  5
632
330
1F
100
AcDbEntity
  8
0
100
AcDbCircle
 10
45.57704892070367
 20
23.4417666936364
 30
0.0
 40
0.5
100
AcDbArc
 50
270.0
 51
0.0
  0
LINE
  5
633
330
1F
100
AcDbEntity
  8
0
100
AcDbLine
 10
108.7770489207037
 20
27.4167666936364
 30
0.0
 11
121.7770489207037
 21
27.4167666936364
 31
0.0
  0
LINE
  5
634
330
1F
100
AcDbEntity
  8
0
100
AcDbLine
 10
108.7770489207037
 20
13.4167666936364
 30
0.0
 11
121.7770489207037
 21
13.4167666936364
 31
0.0
  0
LINE
  5
635
330
1F
100
AcDbEntity
  8
0
100
AcDbLine
 10
108.2770489207037
 20
26.91676669363641
 30
0.0
 11
108.2770489207037
 21
13.9167666936364
 31
0.0
  0
LINE
  5
636
330
1F
100
AcDbEntity
  8
0
100
AcDbLine
 10
122.2770489207037
 20
26.91676669363641
 30
0.0
 11
122.2770489207037
 21
13.9167666936364
 31
0.0
  0
ARC
  5
637
330
1F
100
AcDbEntity
  8
0
100
AcDbCircle
 10
108.7770489207037
 20
26.91676669363641
 30
0.0
 40
0.5
100
AcDbArc
 50
90.0
 51
180.0
  0
ARC
  5
638
330
1F
100
AcDbEntity
  8
0
100
AcDbCircle
 10
121.7770489207037
 20
26.91676669363641
 30
0.0
 40
0.5
100
AcDbArc
 50
0.0
 51
90.0
  0
ARC
  5
639
330
1F
100
AcDbEntity
  8
0
100
AcDbCircle
 10
108.7770489207037
 20
13.9167666936364
 30
0.0
 40
0.5
100
AcDbArc
 50
180.0
 51
270.0
  0
ARC
  5
63A
330
1F
100
AcDbEntity
  8
0
100
AcDbCircle
 10
121.7770489207037
 20
13.9167666936364
 30
0.0
 40
0.5
100
AcDbArc
 50
270.0
 51
0.0
  0
LINE
  5
63B
330
1F
100
AcDbEntity
  8
0
100
AcDbLine
 10
127.8270489207036
 20
25.1307666936364
 30
0.0
 11
140.8270489207036
 21
25.1307666936364
 31
0.0
  0
LINE
  5
63C
330
1F
100
AcDbEntity
  8
0
100
AcDbLine
 10
127.8270489207036
 20
11.1307666936364
 30
0.0
 11
140.8270489207036
 21
11.1307666936364
 31
0.0
  0
LINE
  5
63D
330
1F
100
AcDbEntity
  8
0
100
AcDbLine
 10
127.3270489207037
 20
24.63076669363641
 30
0.0
 11
127.3270489207037
 21
11.6307666936364
 31
0.0
  0
LINE
  5
63E
330
1F
100
AcDbEntity
  8
0
100
AcDbLine
 10
141.3270489207036
 20
24.63076669363641
 30
0.0
 11
141.3270489207036
 21
11.6307666936364
 31
0.0
  0
ARC
  5
63F
330
1F
100
AcDbEntity
  8
0
100
AcDbCircle
 10
127.8270489207036
 20
24.63076669363641
 30
0.0
 40
0.5
100
AcDbArc
 50
90.0
 51
180.0
  0
ARC
  5
640
330
1F
100
AcDbEntity
  8
0
100
AcDbCircle
 10
140.8270489207036
 20
24.63076669363641
 30
0.0
 40
0.5
100
AcDbArc
 50
0.0
 51
90.0
  0
ARC
  5
641
330
1F
100
AcDbEntity
  8
0
100
AcDbCircle
 10
127.8270489207036
 20
11.6307666936364
 30
0.0
 40
0.5
100
AcDbArc
 50
180.0
 51
270.0
  0
ARC
  5
642
330
1F
100
AcDbEntity
  8
0
100
AcDbCircle
 10
140.8270489207036
 20
11.6307666936364
 30
0.0
 40
0.5
100
AcDbArc
 50
270.0
 51
0.0
  0
LINE
  5
643
330
1F
100
AcDbEntity
  8
0
100
AcDbLine
 10
146.8770489207036
 20
22.6542666936364
 30
0.0
 11
159.8770489207036
 21
22.6542666936364
 31
0.0
  0
LINE
  5
644
330
1F
100
AcDbEntity
  8
0
100
AcDbLine
 10
146.8770489207036
 20
8.654266693636401
 30
0.0
 11
159.8770489207036
 21
8.654266693636401
 31
0.0
  0
LINE
  5
645
330
1F
100
AcDbEntity
  8
0
100
AcDbLine
 10
146.3770489207036
 20
22.1542666936364
 30
0.0
 11
146.3770489207036
 21
9.154266693636401
 31
0.0
  0
LINE
  5
646
330
1F
100
AcDbEntity
  8
0
100
AcDbLine
 10
160.3770489207036
 20
22.1542666936364
 30
0.0
 11
160.3770489207036
 21
9.154266693636401
 31
0.0
  0
ARC
  5
647
330
1F
100
AcDbEntity
  8
0
100
AcDbCircle
 10
146.8770489207036
 20
22.1542666936364
 30
0.0
 40
0.5
100
AcDbArc
 50
90.0
 51
180.0
  0
ARC
  5
648
330
1F
100
AcDbEntity
  8
0
100
AcDbCircle
 10
159.8770489207036
 20
22.1542666936364
 30
0.0
 40
0.5
100
AcDbArc
 50
0.0
 51
90.0
  0
ARC
  5
649
330
1F
100
AcDbEntity
  8
0
100
AcDbCircle
 10
146.8770489207036
 20
9.154266693636401
 30
0.0
 40
0.5
100
AcDbArc
 50
180.0
 51
270.0
  0
ARC
  5
64A
330
1F
100
AcDbEntity
  8
0
100
AcDbCircle
 10
159.8770489207036
 20
9.154266693636401
 30
0.0
 40
0.5
100
AcDbArc
 50
270.0
 51
0.0
  0
LINE
  5
82D
330
1F
100
AcDbEntity
  8
0
100
AcDbLine
 10
30.52704892070366
 20
96.5917666936364
 30
0.0
 11
47.62704901305506
 21
96.5917666936364
 31
0.0
  0
LINE
  5
840
330
1F
100
AcDbEntity
  8
0
100
AcDbLine
 10
105.7770489207036
 20
11.9167666936364
 30
0.0
 11
105.7770489207036
 21
33.72926669363641
 31
0.0
  0
LINE
  5
855
330
1F
100
AcDbEntity
  8
0
100
AcDbLine
 10
49.62704901305507
 20
99.0682667840468
 30
0.0
 11
66.67704901305507
 21
99.0682667840468
 31
0.0
  0
LINE
  5
856
330
1F
100
AcDbEntity
  8
0
100
AcDbLine
 10
68.67704901305507
 20
106.1167667840468
 30
0.0
 11
85.72704901305506
 21
106.1167667840468
 31
0.0
  0
LINE
  5
857
330
1F
100
AcDbEntity
  8
0
100
AcDbLine
 10
87.72704901305505
 20
110.8792667840468
 30
0.0
 11
104.727049013055
 21
110.8792667840468
 31
0.0
  0
LINE
  5
858
330
1F
100
AcDbEntity
  8
0
100
AcDbLine
 10
106.727049013055
 20
106.1167667840468
 30
0.0
 11
123.7770490130551
 21
106.1167667840468
 31
0.0
  0
LINE
  5
859
330
1F
100
AcDbEntity
  8
0
100
AcDbLine
 10
125.7770490130551
 20
103.8307666936364
 30
0.0
 11
142.8270489207037
 21
103.8307666936364
 31
0.0
  0
LINE
  5
85A
330
1F
100
AcDbEntity
  8
0
100
AcDbLine
 10
143.8270489207036
 20
26.1542666936364
 30
0.0
 11
143.8270489207036
 21
102.8307666936364
 31
0.0
  0
LINE
  5
85B
330
1F
100
AcDbEntity
  8
0
100
AcDbLine
 10
144.8270489207036
 20
25.1542666936364
 30
0.0
 11
161.8770489207036
 21
25.1542666936364
 31
0.0
  0
LINE
  5
85C
330
1F
100
AcDbEntity
  8
0
100
AcDbLine
 10
162.8770489207036
 20
7.154266693636402
 30
0.0
 11
162.8770489207036
 21
24.1542666936364
 31
0.0
  0
LINE
  5
85D
330
1F
100
AcDbEntity
  8
0
100
AcDbLine
 10
30.57704892070367
 20
20.44176669363641
 30
0.0
 11
47.57704892070367
 21
20.44176669363641
 31
0.0
  0
LINE
  5
85E
330
1F
100
AcDbEntity
  8
0
100
AcDbLine
 10
49.57704892070367
 20
22.9182666936364
 30
0.0
 11
66.62704892070367
 21
22.9182666936364
 31
0.0
  0
LINE
  5
85F
330
1F
100
AcDbEntity
  8
0
100
AcDbLine
 10
68.62704892070367
 20
29.96676669363641
 30
0.0
 11
85.67704892070365
 21
29.96676669363641
 31
0.0
  0
LINE
  5
860
330
1F
100
AcDbEntity
  8
0
100
AcDbLine
 10
87.67704892070367
 20
34.72926669363641
 30
0.0
 11
104.7770489207036
 21
34.72926669363641
 31
0.0
  0
LINE
  5
861
330
1F
100
AcDbEntity
  8
0
100
AcDbLine
 10
106.7770489207036
 20
10.9167666936364
 30
0.0
 11
123.8270489207036
 21
10.9167666936364
 31
0.0
  0
LINE
  5
862
330
1F
100
AcDbEntity
  8
0
100
AcDbLine
 10
125.8270489207036
 20
8.630766693636401
 30
0.0
 11
142.8770489207037
 21
8.630766693636401
 31
0.0
  0
LINE
  5
863
330
1F
100
AcDbEntity
  8
0
100
AcDbLine
 10
144.8770489207037
 20
6.154266693636402
 30
0.0
 11
161.8770489207036
 21
6.154266693636402
 31
0.0
  0
LINE
  5
86B
330
1F
100
AcDbEntity
  8
0
100
AcDbLine
 10
29.57704892070367
 20
43.25426669363641
 30
0.0
 11
29.57704892070367
 21
21.44176669363641
 31
0.0
  0
LINE
  5
86C
330
1F
100
AcDbEntity
  8
0
100
AcDbLine
 10
11.52704892070366
 20
44.25426669363639
 30
0.0
 11
28.57704892070368
 21
44.25426669363639
 31
0.0
  0
LINE
  5
86D
330
1F
100
AcDbEntity
  8
0
100
AcDbLine
 10
10.52704892070366
 20
62.25426669363641
 30
0.0
 11
10.52704892070366
 21
45.25426669363641
 31
0.0
  0
LINE
  5
86E
330
1F
100
AcDbEntity
  8
0
100
AcDbLine
 10
11.52704892070366
 20
63.25426669363641
 30
0.0
 11
28.52704892070366
 21
63.25426669363641
 31
0.0
  0
LINE
  5
86F
330
1F
100
AcDbEntity
  8
0
100
AcDbLine
 10
29.52704892070368
 20
95.5917666936364
 30
0.0
 11
29.52704892070366
 21
64.25426669363641
 31
0.0
  0
LINE
  5
870
330
1F
100
AcDbEntity
  8
0
100
AcDbLine
 10
48.62704901305506
 20
98.0682667840468
 30
0.0
 11
48.62704901305506
 21
97.5917666936364
 31
0.0
  0
LINE
  5
871
330
1F
100
AcDbEntity
  8
0
100
AcDbLine
 10
67.67704901305506
 20
105.1167667840468
 30
0.0
 11
67.67704901305506
 21
100.0682667840468
 31
0.0
  0
LINE
  5
872
330
1F
100
AcDbEntity
  8
0
100
AcDbLine
 10
86.72704901305506
 20
109.8792667840468
 30
0.0
 11
86.72704901305506
 21
107.1167667840468
 31
0.0
  0
LINE
  5
873
330
1F
100
AcDbEntity
  8
0
100
AcDbLine
 10
105.727049013055
 20
109.8792667840468
 30
0.0
 11
105.727049013055
 21
107.1167667840468
 31
0.0
  0
LINE
  5
874
330
1F
100
AcDbEntity
  8
0
100
AcDbLine
 10
124.7770490130551
 20
105.1167667840468
 30
0.0
 11
124.7770490130551
 21
104.8307666936364
 31
0.0
  0
LINE
  5
875
330
1F
100
AcDbEntity
  8
0
100
AcDbLine
 10
143.8770489207037
 20
7.630766693636402
 30
0.0
 11
143.8770489207037
 21
7.154266693636402
 31
0.0
  0
LINE
  5
876
330
1F
100
AcDbEntity
  8
0
100
AcDbLine
 10
124.8270489207036
 20
9.916766693636404
 30
0.0
 11
124.8270489207036
 21
9.630766693636401
 31
0.0
  0
LINE
  5
877
330
1F
100
AcDbEntity
  8
0
100
AcDbLine
 10
86.67704892070366
 20
33.72926669363641
 30
0.0
 11
86.67704892070366
 21
30.9667666936364
 31
0.0
  0
LINE
  5
878
330
1F
100
AcDbEntity
  8
0
100
AcDbLine
 10
67.62704892070367
 20
28.96676669363641
 30
0.0
 11
67.62704892070367
 21
23.9182666936364
 31
0.0
  0
LINE
  5
879
330
1F
100
AcDbEntity
  8
0
100
AcDbLine
 10
48.57704892070366
 20
21.9182666936364
 30
0.0
 11
48.57704892070366
 21
21.44176669363641
 31
0.0
  0
ARC
  5
881
330
1F
100
AcDbEntity
  8
0
100
AcDbCircle
 10
49.62704901305507
 20
98.0682667840468
 30
0.0
 40
1.0
100
AcDbArc
 50
90.0
 51
180.0
  0
ARC
  5
884
330
1F
100
AcDbEntity
  8
0
100
AcDbCircle
 10
47.62704901305506
 20
97.5917666936364
 30
0.0
 40
1.0
100
AcDbArc
 50
270.0
 51
0.0
  0
ARC
  5
885
330
1F
100
AcDbEntity
  8
0
100
AcDbCircle
 10
66.67704901305507
 20
100.0682667840468
 30
0.0
 40
1.0
100
AcDbArc
 50
270.0
 51
0.0
  0
ARC
  5
886
330
1F
100
AcDbEntity
  8
0
100
AcDbCircle
 10
68.67704901305507
 20
105.1167667840468
 30
0.0
 40
1.0
100
AcDbArc
 50
90.0
 51
180.0
  0
ARC
  5
887
330
1F
100
AcDbEntity
  8
0
100
AcDbCircle
 10
85.72704901305506
 20
107.1167667840468
 30
0.0
 40
1.0
100
AcDbArc
 50
270.0
 51
0.0
  0
ARC
  5
888
330
1F
100
AcDbEntity
  8
0
100
AcDbCircle
 10
87.72704901305505
 20
109.8792667840468
 30
0.0
 40
1.0
100
AcDbArc
 50
90.0
 51
180.0
  0
ARC
  5
889
330
1F
100
AcDbEntity
  8
0
100
AcDbCircle
 10
104.727049013055
 20
109.8792667840468
 30
0.0
 40
1.0
100
AcDbArc
 50
0.0
 51
90.0
  0
ARC
  5
88A
330
1F
100
AcDbEntity
  8
0
100
AcDbCircle
 10
106.727049013055
 20
107.1167667840468
 30
0.0
 40
1.0
100
AcDbArc
 50
180.0
 51
270.0
  0
ARC
  5
88B
330
1F
100
AcDbEntity
  8
0
100
AcDbCircle
 10
123.7770490130551
 20
105.1167667840468
 30
0.0
 40
1.0
100
AcDbArc
 50
0.0
 51
90.0
  0
ARC
  5
88C
330
1F
100
AcDbEntity
  8
0
100
AcDbCircle
 10
125.7770490130551
 20
104.8307666936364
 30
0.0
 40
1.0
100
AcDbArc
 50
180.0
 51
270.0
  0
ARC
  5
88D
330
1F
100
AcDbEntity
  8
0
100
AcDbCircle
 10
142.8270489207037
 20
102.8307666936364
 30
0.0
 40
1.0
100
AcDbArc
 50
0.0
 51
90.0
  0
ARC
  5
88E
330
1F
100
AcDbEntity
  8
0
100
AcDbCircle
 10
144.8270489207036
 20
26.1542666936364
 30
0.0
 40
1.0
100
AcDbArc
 50
180.0
 51
270.0
  0
ARC
  5
88F
330
1F
100
AcDbEntity
  8
0
100
AcDbCircle
 10
161.8770489207036
 20
24.1542666936364
 30
0.0
 40
1.0
100
AcDbArc
 50
0.0
 51
90.0
  0
ARC
  5
890
330
1F
100
AcDbEntity
  8
0
100
AcDbCircle
 10
161.8770489207036
 20
7.154266693636402
 30
0.0
 40
1.0
100
AcDbArc
 50
270.0
 51
0.0
  0
ARC
  5
891
330
1F
100
AcDbEntity
  8
0
100
AcDbCircle
 10
144.8770489207037
 20
7.154266693636402
 30
0.0
 40
1.0
100
AcDbArc
 50
180.0
 51
270.0
  0
ARC
  5
892
330
1F
100
AcDbEntity
  8
0
100
AcDbCircle
 10
142.8770489207037
 20
7.630766693636402
 30
0.0
 40
1.0
100
AcDbArc
 50
0.0
 51
90.0
  0
ARC
  5
893
330
1F
100
AcDbEntity
  8
0
100
AcDbCircle
 10
125.8270489207036
 20
9.630766693636401
 30
0.0
 40
1.0
100
AcDbArc
 50
180.0
 51
270.0
  0
ARC
  5
894
330
1F
100
AcDbEntity
  8
0
100
AcDbCircle
 10
123.8270489207036
 20
9.916766693636404
 30
0.0
 40
1.0
100
AcDbArc
 50
0.0
 51
90.0
  0
ARC
  5
895
330
1F
100
AcDbEntity
  8
0
100
AcDbCircle
 10
106.7770489207036
 20
11.9167666936364
 30
0.0
 40
1.0
100
AcDbArc
 50
180.0
 51
270.0
  0
ARC
  5
896
330
1F
100
AcDbEntity
  8
0
100
AcDbCircle
 10
104.7770489207036
 20
33.72926669363641
 30
0.0
 40
1.0
100
AcDbArc
 50
0.0
 51
90.0
  0
ARC
  5
897
330
1F
100
AcDbEntity
  8
0
100
AcDbCircle
 10
87.67704892070367
 20
33.72926669363641
 30
0.0
 40
1.0
100
AcDbArc
 50
90.0
 51
180.0
  0
ARC
  5
898
330
1F
100
AcDbEntity
  8
0
100
AcDbCircle
 10
85.67704892070365
 20
30.9667666936364
 30
0.0
 40
1.0
100
AcDbArc
 50
270.0
 51
0.0
  0
ARC
  5
899
330
1F
100
AcDbEntity
  8
0
100
AcDbCircle
 10
68.62704892070367
 20
28.96676669363641
 30
0.0
 40
1.0
100
AcDbArc
 50
90.0
 51
180.0
  0
ARC
  5
89A
330
1F
100
AcDbEntity
  8
0
100
AcDbCircle
 10
66.62704892070367
 20
23.9182666936364
 30
0.0
 40
1.0
100
AcDbArc
 50
270.0
 51
0.0
  0
ARC
  5
89B
330
1F
100
AcDbEntity
  8
0
100
AcDbCircle
 10
49.57704892070367
 20
21.9182666936364
 30
0.0
 40
1.0
100
AcDbArc
 50
89.99999999999998
 51
180.0
  0
ARC
  5
89C
330
1F
100
AcDbEntity
  8
0
100
AcDbCircle
 10
47.57704892070367
 20
21.44176669363641
 30
0.0
 40
1.0
100
AcDbArc
 50
270.0
 51
0.0
  0
ARC
  5
89D
330
1F
100
AcDbEntity
  8
0
100
AcDbCircle
 10
30.57704892070367
 20
21.44176669363641
 30
0.0
 40
1.0
100
AcDbArc
 50
180.0
 51
270.0
  0
ARC
  5
89E
330
1F
100
AcDbEntity
  8
0
100
AcDbCircle
 10
28.57704892070368
 20
43.25426669363641
 30
0.0
 40
1.0
100
AcDbArc
 50
0.0
 51
90.0
  0
ARC
  5
89F
330
1F
100
AcDbEntity
  8
0
100
AcDbCircle
 10
28.52704892070366
 20
64.25426669363641
 30
0.0
 40
1.0
100
AcDbArc
 50
270.0
 51
0.0
  0
ARC
  5
8A0
330
1F
100
AcDbEntity
  8
0
100
AcDbCircle
 10
11.52704892070366
 20
62.25426669363641
 30
0.0
 40
1.0
100
AcDbArc
 50
90.0
 51
180.0
  0
ARC
  5
8A1
330
1F
100
AcDbEntity
  8
0
100
AcDbCircle
 10
11.52704892070366
 20
45.25426669363641
 30
0.0
 40
1.0
100
AcDbArc
 50
180.0
 51
270.0
  0
ARC
  5
8A2
330
1F
100
AcDbEntity
  8
0
100
AcDbCircle
 10
30.52704892070366
 20
95.5917666936364
 30
0.0
 40
1.0
100
AcDbArc
 50
90.0
 51
180.0
  0
CIRCLE
  5
8AF
330
1F
100
AcDbEntity
  8
0
100
AcDbCircle
 10
124.8020489207037
 20
85.94876669363641
 30
0.0
 40
1.0
  0
CIRCLE
  5
8BA
330
1F
100
AcDbEntity
  8
0
100
AcDbCircle
 10
124.8020489207037
 20
28.79876669363641
 30
0.0
 40
1.0
  0
CIRCLE
  5
8BD
330
1F
100
AcDbEntity
  8
0
100
AcDbCircle
 10
86.70204892070367
 20
89.47301669363639
 30
0.0
 40
1.0
  0
CIRCLE
  5
8C0
330
1F
100
AcDbEntity
  8
0
100
AcDbCircle
 10
29.52704892070368
 20
58.4917666936364
 30
0.0
 40
1.0
  0
CIRCLE
  5
8C3
330
1F
100
AcDbEntity
  8
0
100
AcDbCircle
 10
48.60204892070367
 20
40.70501669363639
 30
0.0
 40
1.0
  0
LINE
  5
10DF
330
1F
100
AcDbEntity
  8
0
100
AcDbLine
 10
259.4125095117121
 20
114.203052357423
 30
0.0
 11
272.4125095117121
 21
114.203052357423
 31
0.0
  0
LINE
  5
10E0
330
1F
100
AcDbEntity
  8
0
100
AcDbLine
 10
259.4125095117121
 20
100.2030523574231
 30
0.0
 11
272.4125095117121
 21
100.2030523574231
 31
0.0
  0
LINE
  5
10E1
330
1F
100
AcDbEntity
  8
0
100
AcDbLine
 10
258.9125095117121
 20
113.7030523574231
 30
0.0
 11
258.9125095117121
 21
100.703052357423
 31
0.0
  0
LINE
  5
10E2
330
1F
100
AcDbEntity
  8
0
100
AcDbLine
 10
272.9125095117121
 20
113.7030523574231
 30
0.0
 11
272.9125095117121
 21
100.703052357423
 31
0.0
  0
ARC
  5
10E3
330
1F
100
AcDbEntity
  8
0
100
AcDbCircle
 10
259.4125095117121
 20
113.7030523574231
 30
0.0
 40
0.5
100
AcDbArc
 50
90.0
 51
180.0
  0
ARC
  5
10E4
330
1F
100
AcDbEntity
  8
0
100
AcDbCircle
 10
272.4125095117121
 20
113.7030523574231
 30
0.0
 40
0.5
100
AcDbArc
 50
0.0
 51
90.0
  0
ARC
  5
10E5
330
1F
100
AcDbEntity
  8
0
100
AcDbCircle
 10
259.4125095117121
 20
100.703052357423
 30
0.0
 40
0.5
100
AcDbArc
 50
180.0
 51
270.0
  0
ARC
  5
10E6
330
1F
100
AcDbEntity
  8
0
100
AcDbCircle
 10
272.4125095117121
 20
100.703052357423
 30
0.0
 40
0.5
100
AcDbArc
 50
270.0
 51
0.0
  0
LINE
  5
10E7
330
1F
100
AcDbEntity
  8
0
100
AcDbLine
 10
240.3625095117121
 20
109.4405523574231
 30
0.0
 11
253.3625095117121
 21
109.4405523574231
 31
0.0
  0
LINE
  5
10E8
330
1F
100
AcDbEntity
  8
0
100
AcDbLine
 10
240.3625095117121
 20
95.44055235742309
 30
0.0
 11
253.3625095117121
 21
95.44055235742309
 31
0.0
  0
LINE
  5
10E9
330
1F
100
AcDbEntity
  8
0
100
AcDbLine
 10
239.8625095117121
 20
108.9405523574231
 30
0.0
 11
239.8625095117121
 21
95.94055235742308
 31
0.0
  0
LINE
  5
10EA
330
1F
100
AcDbEntity
  8
0
100
AcDbLine
 10
253.8625095117121
 20
108.9405523574231
 30
0.0
 11
253.8625095117121
 21
95.94055235742308
 31
0.0
  0
ARC
  5
10EB
330
1F
100
AcDbEntity
  8
0
100
AcDbCircle
 10
240.3625095117121
 20
108.9405523574231
 30
0.0
 40
0.5
100
AcDbArc
 50
90.0
 51
180.0
  0
ARC
  5
10EC
330
1F
100
AcDbEntity
  8
0
100
AcDbCircle
 10
253.3625095117121
 20
108.9405523574231
 30
0.0
 40
0.5
100
AcDbArc
 50
0.0
 51
90.0
  0
ARC
  5
10ED
330
1F
100
AcDbEntity
  8
0
100
AcDbCircle
 10
240.3625095117121
 20
95.94055235742308
 30
0.0
 40
0.5
100
AcDbArc
 50
180.0
 51
270.0
  0
ARC
  5
10EE
330
1F
100
AcDbEntity
  8
0
100
AcDbCircle
 10
253.3625095117121
 20
95.94055235742308
 30
0.0
 40
0.5
100
AcDbArc
 50
270.0
 51
0.0
  0
LINE
  5
10EF
330
1F
100
AcDbEntity
  8
0
100
AcDbLine
 10
278.4625095117121
 20
109.4405523574231
 30
0.0
 11
291.4625095117121
 21
109.4405523574231
 31
0.0
  0
LINE
  5
10F0
330
1F
100
AcDbEntity
  8
0
100
AcDbLine
 10
278.4625095117121
 20
95.44055235742309
 30
0.0
 11
291.4625095117121
 21
95.44055235742309
 31
0.0
  0
LINE
  5
10F1
330
1F
100
AcDbEntity
  8
0
100
AcDbLine
 10
277.9625095117121
 20
108.9405523574231
 30
0.0
 11
277.9625095117121
 21
95.94055235742308
 31
0.0
  0
LINE
  5
10F2
330
1F
100
AcDbEntity
  8
0
100
AcDbLine
 10
291.9625095117122
 20
108.9405523574231
 30
0.0
 11
291.9625095117122
 21
95.94055235742308
 31
0.0
  0
ARC
  5
10F3
330
1F
100
AcDbEntity
  8
0
100
AcDbCircle
 10
278.4625095117121
 20
108.9405523574231
 30
0.0
 40
0.5
100
AcDbArc
 50
90.0
 51
180.0
  0
ARC
  5
10F4
330
1F
100
AcDbEntity
  8
0
100
AcDbCircle
 10
291.4625095117121
 20
108.9405523574231
 30
0.0
 40
0.5
100
AcDbArc
 50
0.0
 51
90.0
  0
ARC
  5
10F5
330
1F
100
AcDbEntity
  8
0
100
AcDbCircle
 10
278.4625095117121
 20
95.94055235742308
 30
0.0
 40
0.5
100
AcDbArc
 50
180.0
 51
270.0
  0
ARC
  5
10F6
330
1F
100
AcDbEntity
  8
0
100
AcDbCircle
 10
291.4625095117121
 20
95.94055235742308
 30
0.0
 40
0.5
100
AcDbArc
 50
270.0
 51
0.0
  0
LINE
  5
10F7
330
1F
100
AcDbEntity
  8
0
100
AcDbLine
 10
297.5125095117121
 20
107.1545523574231
 30
0.0
 11
310.512509511712
 21
107.1545523574231
 31
0.0
  0
LINE
  5
10F8
330
1F
100
AcDbEntity
  8
0
100
AcDbLine
 10
297.5125095117121
 20
93.15455235742309
 30
0.0
 11
310.512509511712
 21
93.15455235742309
 31
0.0
  0
LINE
  5
10F9
330
1F
100
AcDbEntity
  8
0
100
AcDbLine
 10
297.0125095117122
 20
106.6545523574231
 30
0.0
 11
297.0125095117122
 21
93.65455235742308
 31
0.0
  0
LINE
  5
10FA
330
1F
100
AcDbEntity
  8
0
100
AcDbLine
 10
311.012509511712
 20
106.6545523574231
 30
0.0
 11
311.012509511712
 21
93.65455235742308
 31
0.0
  0
ARC
  5
10FB
330
1F
100
AcDbEntity
  8
0
100
AcDbCircle
 10
297.5125095117121
 20
106.6545523574231
 30
0.0
 40
0.5
100
AcDbArc
 50
90.0
 51
180.0
  0
ARC
  5
10FC
330
1F
100
AcDbEntity
  8
0
100
AcDbCircle
 10
310.512509511712
 20
106.6545523574231
 30
0.0
 40
0.5
100
AcDbArc
 50
0.0
 51
90.0
  0
ARC
  5
10FD
330
1F
100
AcDbEntity
  8
0
100
AcDbCircle
 10
297.5125095117121
 20
93.65455235742308
 30
0.0
 40
0.5
100
AcDbArc
 50
180.0
 51
270.0
  0
ARC
  5
10FE
330
1F
100
AcDbEntity
  8
0
100
AcDbCircle
 10
310.512509511712
 20
93.65455235742308
 30
0.0
 40
0.5
100
AcDbArc
 50
270.0
 51
0.0
  0
LINE
  5
10FF
330
1F
100
AcDbEntity
  8
0
100
AcDbLine
 10
221.3125095117121
 20
102.3920523574231
 30
0.0
 11
234.3125095117121
 21
102.3920523574231
 31
0.0
  0
LINE
  5
1100
330
1F
100
AcDbEntity
  8
0
100
AcDbLine
 10
221.3125095117121
 20
88.3920523574231
 30
0.0
 11
234.3125095117121
 21
88.3920523574231
 31
0.0
  0
LINE
  5
1101
330
1F
100
AcDbEntity
  8
0
100
AcDbLine
 10
220.8125095117121
 20
101.8920523574231
 30
0.0
 11
220.8125095117121
 21
88.89205235742309
 31
0.0
  0
LINE
  5
1102
330
1F
100
AcDbEntity
  8
0
100
AcDbLine
 10
234.8125095117121
 20
101.8920523574231
 30
0.0
 11
234.8125095117121
 21
88.89205235742309
 31
0.0
  0
ARC
  5
1103
330
1F
100
AcDbEntity
  8
0
100
AcDbCircle
 10
221.3125095117121
 20
101.8920523574231
 30
0.0
 40
0.5
100
AcDbArc
 50
90.0
 51
180.0
  0
ARC
  5
1104
330
1F
100
AcDbEntity
  8
0
100
AcDbCircle
 10
234.3125095117121
 20
101.8920523574231
 30
0.0
 40
0.5
100
AcDbArc
 50
0.0
 51
90.0
  0
ARC
  5
1105
330
1F
100
AcDbEntity
  8
0
100
AcDbCircle
 10
221.3125095117121
 20
88.89205235742309
 30
0.0
 40
0.5
100
AcDbArc
 50
180.0
 51
270.0
  0
ARC
  5
1106
330
1F
100
AcDbEntity
  8
0
100
AcDbCircle
 10
234.3125095117121
 20
88.89205235742309
 30
0.0
 40
0.5
100
AcDbArc
 50
270.0
 51
0.0
  0
LINE
  5
1107
330
1F
100
AcDbEntity
  8
0
100
AcDbLine
 10
202.2625095117121
 20
99.91555235742309
 30
0.0
 11
215.2625095117121
 21
99.91555235742309
 31
0.0
  0
LINE
  5
1108
330
1F
100
AcDbEntity
  8
0
100
AcDbLine
 10
202.2625095117121
 20
85.91555235742308
 30
0.0
 11
215.2625095117121
 21
85.91555235742308
 31
0.0
  0
LINE
  5
1109
330
1F
100
AcDbEntity
  8
0
100
AcDbLine
 10
201.7625095117121
 20
99.41555235742308
 30
0.0
 11
201.7625095117121
 21
86.41555235742307
 31
0.0
  0
LINE
  5
110A
330
1F
100
AcDbEntity
  8
0
100
AcDbLine
 10
215.7625095117121
 20
99.41555235742308
 30
0.0
 11
215.7625095117121
 21
86.41555235742307
 31
0.0
  0
ARC
  5
110B
330
1F
100
AcDbEntity
  8
0
100
AcDbCircle
 10
202.2625095117121
 20
99.41555235742308
 30
0.0
 40
0.5
100
AcDbArc
 50
90.0
 51
180.0
  0
ARC
  5
110C
330
1F
100
AcDbEntity
  8
0
100
AcDbCircle
 10
215.2625095117121
 20
99.41555235742308
 30
0.0
 40
0.5
100
AcDbArc
 50
0.0
 51
90.0
  0
ARC
  5
110D
330
1F
100
AcDbEntity
  8
0
100
AcDbCircle
 10
202.2625095117121
 20
86.41555235742307
 30
0.0
 40
0.5
100
AcDbArc
 50
180.0
 51
270.0
  0
ARC
  5
110E
330
1F
100
AcDbEntity
  8
0
100
AcDbCircle
 10
215.2625095117121
 20
86.41555235742307
 30
0.0
 40
0.5
100
AcDbArc
 50
270.0
 51
0.0
  0
LINE
  5
110F
330
1F
100
AcDbEntity
  8
0
100
AcDbLine
 10
259.4125095117121
 20
95.15305235742307
 30
0.0
 11
272.4125095117121
 21
95.15305235742307
 31
0.0
  0
LINE
  5
1110
330
1F
100
AcDbEntity
  8
0
100
AcDbLine
 10
259.4125095117121
 20
81.1530523574231
 30
0.0
 11
272.4125095117121
 21
81.1530523574231
 31
0.0
  0
LINE
  5
1111
330
1F
100
AcDbEntity
  8
0
100
AcDbLine
 10
258.9125095117121
 20
94.65305235742306
 30
0.0
 11
258.9125095117121
 21
81.65305235742309
 31
0.0
  0
LINE
  5
1112
330
1F
100
AcDbEntity
  8
0
100
AcDbLine
 10
272.9125095117121
 20
94.65305235742306
 30
0.0
 11
272.9125095117121
 21
81.65305235742309
 31
0.0
  0
ARC
  5
1113
330
1F
100
AcDbEntity
  8
0
100
AcDbCircle
 10
259.4125095117121
 20
94.65305235742306
 30
0.0
 40
0.5
100
AcDbArc
 50
90.0
 51
180.0
  0
ARC
  5
1114
330
1F
100
AcDbEntity
  8
0
100
AcDbCircle
 10
272.4125095117121
 20
94.65305235742306
 30
0.0
 40
0.5
100
AcDbArc
 50
0.0
 51
90.0
  0
ARC
  5
1115
330
1F
100
AcDbEntity
  8
0
100
AcDbCircle
 10
259.4125095117121
 20
81.65305235742309
 30
0.0
 40
0.5
100
AcDbArc
 50
180.0
 51
270.0
  0
ARC
  5
1116
330
1F
100
AcDbEntity
  8
0
100
AcDbCircle
 10
272.4125095117121
 20
81.65305235742309
 30
0.0
 40
0.5
100
AcDbArc
 50
270.0
 51
0.0
  0
LINE
  5
1117
330
1F
100
AcDbEntity
  8
0
100
AcDbLine
 10
240.3625095117121
 20
90.39055235742308
 30
0.0
 11
253.3625095117121
 21
90.39055235742308
 31
0.0
  0
LINE
  5
1118
330
1F
100
AcDbEntity
  8
0
100
AcDbLine
 10
240.3625095117121
 20
76.39055235742308
 30
0.0
 11
253.3625095117121
 21
76.39055235742308
 31
0.0
  0
LINE
  5
1119
330
1F
100
AcDbEntity
  8
0
100
AcDbLine
 10
239.8625095117121
 20
89.89055235742307
 30
0.0
 11
239.8625095117121
 21
76.89055235742308
 31
0.0
  0
LINE
  5
111A
330
1F
100
AcDbEntity
  8
0
100
AcDbLine
 10
253.8625095117121
 20
89.89055235742307
 30
0.0
 11
253.8625095117121
 21
76.89055235742308
 31
0.0
  0
ARC
  5
111B
330
1F
100
AcDbEntity
  8
0
100
AcDbCircle
 10
240.3625095117121
 20
89.89055235742307
 30
0.0
 40
0.5
100
AcDbArc
 50
90.0
 51
180.0
  0
ARC
  5
111C
330
1F
100
AcDbEntity
  8
0
100
AcDbCircle
 10
253.3625095117121
 20
89.89055235742307
 30
0.0
 40
0.5
100
AcDbArc
 50
0.0
 51
90.0
  0
ARC
  5
111D
330
1F
100
AcDbEntity
  8
0
100
AcDbCircle
 10
240.3625095117121
 20
76.89055235742308
 30
0.0
 40
0.5
100
AcDbArc
 50
180.0
 51
270.0
  0
ARC
  5
111E
330
1F
100
AcDbEntity
  8
0
100
AcDbCircle
 10
253.3625095117121
 20
76.89055235742308
 30
0.0
 40
0.5
100
AcDbArc
 50
270.0
 51
0.0
  0
LINE
  5
111F
330
1F
100
AcDbEntity
  8
0
100
AcDbLine
 10
278.4625095117121
 20
90.39055235742308
 30
0.0
 11
291.4625095117121
 21
90.39055235742308
 31
0.0
  0
LINE
  5
1120
330
1F
100
AcDbEntity
  8
0
100
AcDbLine
 10
278.4625095117121
 20
76.39055235742308
 30
0.0
 11
291.4625095117121
 21
76.39055235742308
 31
0.0
  0
LINE
  5
1121
330
1F
100
AcDbEntity
  8
0
100
AcDbLine
 10
277.9625095117121
 20
89.89055235742307
 30
0.0
 11
277.9625095117121
 21
76.89055235742308
 31
0.0
  0
LINE
  5
1122
330
1F
100
AcDbEntity
  8
0
100
AcDbLine
 10
291.9625095117122
 20
89.89055235742307
 30
0.0
 11
291.9625095117122
 21
76.89055235742308
 31
0.0
  0
ARC
  5
1123
330
1F
100
AcDbEntity
  8
0
100
AcDbCircle
 10
278.4625095117121
 20
89.89055235742307
 30
0.0
 40
0.5
100
AcDbArc
 50
90.0
 51
180.0
  0
ARC
  5
1124
330
1F
100
AcDbEntity
  8
0
100
AcDbCircle
 10
291.4625095117121
 20
89.89055235742307
 30
0.0
 40
0.5
100
AcDbArc
 50
0.0
 51
90.0
  0
ARC
  5
1125
330
1F
100
AcDbEntity
  8
0
100
AcDbCircle
 10
278.4625095117121
 20
76.89055235742308
 30
0.0
 40
0.5
100
AcDbArc
 50
180.0
 51
270.0
  0
ARC
  5
1126
330
1F
100
AcDbEntity
  8
0
100
AcDbCircle
 10
291.4625095117121
 20
76.89055235742308
 30
0.0
 40
0.5
100
AcDbArc
 50
270.0
 51
0.0
  0
LINE
  5
1127
330
1F
100
AcDbEntity
  8
0
100
AcDbLine
 10
297.5125095117121
 20
88.10455235742308
 30
0.0
 11
310.512509511712
 21
88.10455235742308
 31
0.0
  0
LINE
  5
1128
330
1F
100
AcDbEntity
  8
0
100
AcDbLine
 10
297.5125095117121
 20
74.10455235742308
 30
0.0
 11
310.512509511712
 21
74.10455235742308
 31
0.0
  0
LINE
  5
1129
330
1F
100
AcDbEntity
  8
0
100
AcDbLine
 10
297.0125095117122
 20
87.60455235742307
 30
0.0
 11
297.0125095117122
 21
74.60455235742307
 31
0.0
  0
LINE
  5
112A
330
1F
100
AcDbEntity
  8
0
100
AcDbLine
 10
311.012509511712
 20
87.60455235742307
 30
0.0
 11
311.012509511712
 21
74.60455235742307
 31
0.0
  0
ARC
  5
112B
330
1F
100
AcDbEntity
  8
0
100
AcDbCircle
 10
297.5125095117121
 20
87.60455235742307
 30
0.0
 40
0.5
100
AcDbArc
 50
90.0
 51
180.0
  0
ARC
  5
112C
330
1F
100
AcDbEntity
  8
0
100
AcDbCircle
 10
310.512509511712
 20
87.60455235742307
 30
0.0
 40
0.5
100
AcDbArc
 50
0.0
 51
90.0
  0
ARC
  5
112D
330
1F
100
AcDbEntity
  8
0
100
AcDbCircle
 10
297.5125095117121
 20
74.60455235742307
 30
0.0
 40
0.5
100
AcDbArc
 50
180.0
 51
270.0
  0
ARC
  5
112E
330
1F
100
AcDbEntity
  8
0
100
AcDbCircle
 10
310.512509511712
 20
74.60455235742307
 30
0.0
 40
0.5
100
AcDbArc
 50
270.0
 51
0.0
  0
LINE
  5
112F
330
1F
100
AcDbEntity
  8
0
100
AcDbLine
 10
221.3125095117121
 20
83.34205235742308
 30
0.0
 11
234.3125095117121
 21
83.34205235742308
 31
0.0
  0
LINE
  5
1130
330
1F
100
AcDbEntity
  8
0
100
AcDbLine
 10
221.3125095117121
 20
69.34205235742308
 30
0.0
 11
234.3125095117121
 21
69.34205235742308
 31
0.0
  0
LINE
  5
1131
330
1F
100
AcDbEntity
  8
0
100
AcDbLine
 10
220.8125095117121
 20
82.84205235742309
 30
0.0
 11
220.8125095117121
 21
69.84205235742308
 31
0.0
  0
LINE
  5
1132
330
1F
100
AcDbEntity
  8
0
100
AcDbLine
 10
234.8125095117121
 20
82.84205235742309
 30
0.0
 11
234.8125095117121
 21
69.84205235742308
 31
0.0
  0
ARC
  5
1133
330
1F
100
AcDbEntity
  8
0
100
AcDbCircle
 10
221.3125095117121
 20
82.84205235742309
 30
0.0
 40
0.5
100
AcDbArc
 50
90.0
 51
180.0
  0
ARC
  5
1134
330
1F
100
AcDbEntity
  8
0
100
AcDbCircle
 10
234.3125095117121
 20
82.84205235742309
 30
0.0
 40
0.5
100
AcDbArc
 50
0.0
 51
90.0
  0
ARC
  5
1135
330
1F
100
AcDbEntity
  8
0
100
AcDbCircle
 10
221.3125095117121
 20
69.84205235742308
 30
0.0
 40
0.5
100
AcDbArc
 50
180.0
 51
270.0
  0
ARC
  5
1136
330
1F
100
AcDbEntity
  8
0
100
AcDbCircle
 10
234.3125095117121
 20
69.84205235742308
 30
0.0
 40
0.5
100
AcDbArc
 50
270.0
 51
0.0
  0
LINE
  5
1137
330
1F
100
AcDbEntity
  8
0
100
AcDbLine
 10
202.2625095117121
 20
80.86555235742309
 30
0.0
 11
215.2625095117121
 21
80.86555235742309
 31
0.0
  0
LINE
  5
1138
330
1F
100
AcDbEntity
  8
0
100
AcDbLine
 10
202.2625095117121
 20
66.86555235742307
 30
0.0
 11
215.2625095117121
 21
66.86555235742307
 31
0.0
  0
LINE
  5
1139
330
1F
100
AcDbEntity
  8
0
100
AcDbLine
 10
201.7625095117121
 20
80.3655523574231
 30
0.0
 11
201.7625095117121
 21
67.36555235742307
 31
0.0
  0
LINE
  5
113A
330
1F
100
AcDbEntity
  8
0
100
AcDbLine
 10
215.7625095117121
 20
80.3655523574231
 30
0.0
 11
215.7625095117121
 21
67.36555235742307
 31
0.0
  0
ARC
  5
113B
330
1F
100
AcDbEntity
  8
0
100
AcDbCircle
 10
202.2625095117121
 20
80.3655523574231
 30
0.0
 40
0.5
100
AcDbArc
 50
90.0
 51
180.0
  0
ARC
  5
113C
330
1F
100
AcDbEntity
  8
0
100
AcDbCircle
 10
215.2625095117121
 20
80.3655523574231
 30
0.0
 40
0.5
100
AcDbArc
 50
0.0
 51
90.0
  0
ARC
  5
113D
330
1F
100
AcDbEntity
  8
0
100
AcDbCircle
 10
202.2625095117121
 20
67.36555235742307
 30
0.0
 40
0.5
100
AcDbArc
 50
180.0
 51
270.0
  0
ARC
  5
113E
330
1F
100
AcDbEntity
  8
0
100
AcDbCircle
 10
215.2625095117121
 20
67.36555235742307
 30
0.0
 40
0.5
100
AcDbArc
 50
270.0
 51
0.0
  0
LINE
  5
113F
330
1F
100
AcDbEntity
  8
0
100
AcDbLine
 10
259.4125095117121
 20
76.10305235742308
 30
0.0
 11
272.4125095117121
 21
76.10305235742308
 31
0.0
  0
LINE
  5
1140
330
1F
100
AcDbEntity
  8
0
100
AcDbLine
 10
259.4125095117121
 20
62.10305235742308
 30
0.0
 11
272.4125095117121
 21
62.10305235742308
 31
0.0
  0
LINE
  5
1141
330
1F
100
AcDbEntity
  8
0
100
AcDbLine
 10
258.9125095117121
 20
75.60305235742308
 30
0.0
 11
258.9125095117121
 21
62.60305235742308
 31
0.0
  0
LINE
  5
1142
330
1F
100
AcDbEntity
  8
0
100
AcDbLine
 10
272.9125095117121
 20
75.60305235742308
 30
0.0
 11
272.9125095117121
 21
62.60305235742308
 31
0.0
  0
ARC
  5
1143
330
1F
100
AcDbEntity
  8
0
100
AcDbCircle
 10
259.4125095117121
 20
75.60305235742308
 30
0.0
 40
0.5
100
AcDbArc
 50
90.0
 51
180.0
  0
ARC
  5
1144
330
1F
100
AcDbEntity
  8
0
100
AcDbCircle
 10
272.4125095117121
 20
75.60305235742308
 30
0.0
 40
0.5
100
AcDbArc
 50
0.0
 51
90.0
  0
ARC
  5
1145
330
1F
100
AcDbEntity
  8
0
100
AcDbCircle
 10
259.4125095117121
 20
62.60305235742308
 30
0.0
 40
0.5
100
AcDbArc
 50
180.0
 51
270.0
  0
ARC
  5
1146
330
1F
100
AcDbEntity
  8
0
100
AcDbCircle
 10
272.4125095117121
 20
62.60305235742308
 30
0.0
 40
0.5
100
AcDbArc
 50
270.0
 51
0.0
  0
LINE
  5
1147
330
1F
100
AcDbEntity
  8
0
100
AcDbLine
 10
240.3625095117121
 20
71.34055235742309
 30
0.0
 11
253.3625095117121
 21
71.34055235742309
 31
0.0
  0
LINE
  5
1148
330
1F
100
AcDbEntity
  8
0
100
AcDbLine
 10
240.3625095117121
 20
57.34055235742309
 30
0.0
 11
253.3625095117121
 21
57.34055235742309
 31
0.0
  0
LINE
  5
1149
330
1F
100
AcDbEntity
  8
0
100
AcDbLine
 10
239.8625095117121
 20
70.84055235742309
 30
0.0
 11
239.8625095117121
 21
57.84055235742306
 31
0.0
  0
LINE
  5
114A
330
1F
100
AcDbEntity
  8
0
100
AcDbLine
 10
253.8625095117121
 20
70.84055235742309
 30
0.0
 11
253.8625095117121
 21
57.84055235742306
 31
0.0
  0
ARC
  5
114B
330
1F
100
AcDbEntity
  8
0
100
AcDbCircle
 10
240.3625095117121
 20
70.84055235742309
 30
0.0
 40
0.5
100
AcDbArc
 50
90.0
 51
180.0
  0
ARC
  5
114C
330
1F
100
AcDbEntity
  8
0
100
AcDbCircle
 10
253.3625095117121
 20
70.84055235742309
 30
0.0
 40
0.5
100
AcDbArc
 50
0.0
 51
90.0
  0
ARC
  5
114D
330
1F
100
AcDbEntity
  8
0
100
AcDbCircle
 10
240.3625095117121
 20
57.84055235742306
 30
0.0
 40
0.5
100
AcDbArc
 50
180.0
 51
270.0
  0
ARC
  5
114E
330
1F
100
AcDbEntity
  8
0
100
AcDbCircle
 10
253.3625095117121
 20
57.84055235742306
 30
0.0
 40
0.5
100
AcDbArc
 50
270.0
 51
0.0
  0
LINE
  5
114F
330
1F
100
AcDbEntity
  8
0
100
AcDbLine
 10
278.4625095117121
 20
71.34055235742309
 30
0.0
 11
291.4625095117121
 21
71.34055235742309
 31
0.0
  0
LINE
  5
1150
330
1F
100
AcDbEntity
  8
0
100
AcDbLine
 10
278.4625095117121
 20
57.34055235742309
 30
0.0
 11
291.4625095117121
 21
57.34055235742309
 31
0.0
  0
LINE
  5
1151
330
1F
100
AcDbEntity
  8
0
100
AcDbLine
 10
277.9625095117121
 20
70.84055235742309
 30
0.0
 11
277.9625095117121
 21
57.84055235742306
 31
0.0
  0
LINE
  5
1152
330
1F
100
AcDbEntity
  8
0
100
AcDbLine
 10
291.9625095117122
 20
70.84055235742309
 30
0.0
 11
291.9625095117122
 21
57.84055235742306
 31
0.0
  0
ARC
  5
1153
330
1F
100
AcDbEntity
  8
0
100
AcDbCircle
 10
278.4625095117121
 20
70.84055235742309
 30
0.0
 40
0.5
100
AcDbArc
 50
90.0
 51
180.0
  0
ARC
  5
1154
330
1F
100
AcDbEntity
  8
0
100
AcDbCircle
 10
291.4625095117121
 20
70.84055235742309
 30
0.0
 40
0.5
100
AcDbArc
 50
0.0
 51
90.0
  0
ARC
  5
1155
330
1F
100
AcDbEntity
  8
0
100
AcDbCircle
 10
278.4625095117121
 20
57.84055235742306
 30
0.0
 40
0.5
100
AcDbArc
 50
180.0
 51
270.0
  0
ARC
  5
1156
330
1F
100
AcDbEntity
  8
0
100
AcDbCircle
 10
291.4625095117121
 20
57.84055235742306
 30
0.0
 40
0.5
100
AcDbArc
 50
270.0
 51
0.0
  0
LINE
  5
1157
330
1F
100
AcDbEntity
  8
0
100
AcDbLine
 10
297.5125095117121
 20
69.05455235742306
 30
0.0
 11
310.512509511712
 21
69.05455235742306
 31
0.0
  0
LINE
  5
1158
330
1F
100
AcDbEntity
  8
0
100
AcDbLine
 10
297.5125095117121
 20
55.05455235742306
 30
0.0
 11
310.512509511712
 21
55.05455235742306
 31
0.0
  0
LINE
  5
1159
330
1F
100
AcDbEntity
  8
0
100
AcDbLine
 10
297.0125095117122
 20
68.55455235742306
 30
0.0
 11
297.0125095117122
 21
55.55455235742306
 31
0.0
  0
LINE
  5
115A
330
1F
100
AcDbEntity
  8
0
100
AcDbLine
 10
311.012509511712
 20
68.55455235742306
 30
0.0
 11
311.012509511712
 21
55.55455235742306
 31
0.0
  0
ARC
  5
115B
330
1F
100
AcDbEntity
  8
0
100
AcDbCircle
 10
297.5125095117121
 20
68.55455235742306
 30
0.0
 40
0.5
100
AcDbArc
 50
90.0
 51
180.0
  0
ARC
  5
115C
330
1F
100
AcDbEntity
  8
0
100
AcDbCircle
 10
310.512509511712
 20
68.55455235742306
 30
0.0
 40
0.5
100
AcDbArc
 50
0.0
 51
90.0
  0
ARC
  5
115D
330
1F
100
AcDbEntity
  8
0
100
AcDbCircle
 10
297.5125095117121
 20
55.55455235742306
 30
0.0
 40
0.5
100
AcDbArc
 50
180.0
 51
270.0
  0
ARC
  5
115E
330
1F
100
AcDbEntity
  8
0
100
AcDbCircle
 10
310.512509511712
 20
55.55455235742306
 30
0.0
 40
0.5
100
AcDbArc
 50
270.0
 51
0.0
  0
LINE
  5
115F
330
1F
100
AcDbEntity
  8
0
100
AcDbLine
 10
183.2125095117121
 20
66.57805235742308
 30
0.0
 11
196.2125095117121
 21
66.57805235742308
 31
0.0
  0
LINE
  5
1160
330
1F
100
AcDbEntity
  8
0
100
AcDbLine
 10
183.2125095117121
 20
52.57805235742307
 30
0.0
 11
196.2125095117121
 21
52.57805235742307
 31
0.0
  0
LINE
  5
1161
330
1F
100
AcDbEntity
  8
0
100
AcDbLine
 10
182.7125095117121
 20
66.07805235742308
 30
0.0
 11
182.7125095117121
 21
53.07805235742309
 31
0.0
  0
LINE
  5
1162
330
1F
100
AcDbEntity
  8
0
100
AcDbLine
 10
196.7125095117121
 20
66.07805235742308
 30
0.0
 11
196.7125095117121
 21
53.07805235742309
 31
0.0
  0
ARC
  5
1163
330
1F
100
AcDbEntity
  8
0
100
AcDbCircle
 10
183.2125095117121
 20
66.07805235742308
 30
0.0
 40
0.5
100
AcDbArc
 50
90.0
 51
180.0
  0
ARC
  5
1164
330
1F
100
AcDbEntity
  8
0
100
AcDbCircle
 10
196.2125095117121
 20
66.07805235742308
 30
0.0
 40
0.5
100
AcDbArc
 50
0.0
 51
90.0
  0
ARC
  5
1165
330
1F
100
AcDbEntity
  8
0
100
AcDbCircle
 10
183.2125095117121
 20
53.07805235742309
 30
0.0
 40
0.5
100
AcDbArc
 50
180.0
 51
270.0
  0
ARC
  5
1166
330
1F
100
AcDbEntity
  8
0
100
AcDbCircle
 10
196.2125095117121
 20
53.07805235742309
 30
0.0
 40
0.5
100
AcDbArc
 50
270.0
 51
0.0
  0
LINE
  5
1167
330
1F
100
AcDbEntity
  8
0
100
AcDbLine
 10
221.3125095117121
 20
64.29205235742307
 30
0.0
 11
234.3125095117121
 21
64.29205235742307
 31
0.0
  0
LINE
  5
1168
330
1F
100
AcDbEntity
  8
0
100
AcDbLine
 10
221.3125095117121
 20
50.29205235742307
 30
0.0
 11
234.3125095117121
 21
50.29205235742307
 31
0.0
  0
LINE
  5
1169
330
1F
100
AcDbEntity
  8
0
100
AcDbLine
 10
220.8125095117121
 20
63.79205235742308
 30
0.0
 11
220.8125095117121
 21
50.79205235742309
 31
0.0
  0
LINE
  5
116A
330
1F
100
AcDbEntity
  8
0
100
AcDbLine
 10
234.8125095117121
 20
63.79205235742308
 30
0.0
 11
234.8125095117121
 21
50.79205235742309
 31
0.0
  0
ARC
  5
116B
330
1F
100
AcDbEntity
  8
0
100
AcDbCircle
 10
221.3125095117121
 20
63.79205235742308
 30
0.0
 40
0.5
100
AcDbArc
 50
90.0
 51
180.0
  0
ARC
  5
116C
330
1F
100
AcDbEntity
  8
0
100
AcDbCircle
 10
234.3125095117121
 20
63.79205235742308
 30
0.0
 40
0.5
100
AcDbArc
 50
0.0
 51
90.0
  0
ARC
  5
116D
330
1F
100
AcDbEntity
  8
0
100
AcDbCircle
 10
221.3125095117121
 20
50.79205235742309
 30
0.0
 40
0.5
100
AcDbArc
 50
180.0
 51
270.0
  0
ARC
  5
116E
330
1F
100
AcDbEntity
  8
0
100
AcDbCircle
 10
234.3125095117121
 20
50.79205235742309
 30
0.0
 40
0.5
100
AcDbArc
 50
270.0
 51
0.0
  0
LINE
  5
116F
330
1F
100
AcDbEntity
  8
0
100
AcDbLine
 10
202.2625095117121
 20
61.81555235742308
 30
0.0
 11
215.2625095117121
 21
61.81555235742308
 31
0.0
  0
LINE
  5
1170
330
1F
100
AcDbEntity
  8
0
100
AcDbLine
 10
202.2625095117121
 20
47.81555235742309
 30
0.0
 11
215.2625095117121
 21
47.81555235742309
 31
0.0
  0
LINE
  5
1171
330
1F
100
AcDbEntity
  8
0
100
AcDbLine
 10
201.7625095117121
 20
61.31555235742308
 30
0.0
 11
201.7625095117121
 21
48.31555235742309
 31
0.0
  0
LINE
  5
1172
330
1F
100
AcDbEntity
  8
0
100
AcDbLine
 10
215.7625095117121
 20
61.31555235742308
 30
0.0
 11
215.7625095117121
 21
48.31555235742309
 31
0.0
  0
ARC
  5
1173
330
1F
100
AcDbEntity
  8
0
100
AcDbCircle
 10
202.2625095117121
 20
61.31555235742308
 30
0.0
 40
0.5
100
AcDbArc
 50
90.0
 51
180.0
  0
ARC
  5
1174
330
1F
100
AcDbEntity
  8
0
100
AcDbCircle
 10
215.2625095117121
 20
61.31555235742308
 30
0.0
 40
0.5
100
AcDbArc
 50
0.0
 51
90.0
  0
ARC
  5
1175
330
1F
100
AcDbEntity
  8
0
100
AcDbCircle
 10
202.2625095117121
 20
48.31555235742309
 30
0.0
 40
0.5
100
AcDbArc
 50
180.0
 51
270.0
  0
ARC
  5
1176
330
1F
100
AcDbEntity
  8
0
100
AcDbCircle
 10
215.2625095117121
 20
48.31555235742309
 30
0.0
 40
0.5
100
AcDbArc
 50
270.0
 51
0.0
  0
LINE
  5
1177
330
1F
100
AcDbEntity
  8
0
100
AcDbLine
 10
259.4125095117121
 20
57.05305235742307
 30
0.0
 11
272.4125095117121
 21
57.05305235742307
 31
0.0
  0
LINE
  5
1178
330
1F
100
AcDbEntity
  8
0
100
AcDbLine
 10
259.4125095117121
 20
43.05305235742309
 30
0.0
 11
272.4125095117121
 21
43.05305235742309
 31
0.0
  0
LINE
  5
1179
330
1F
100
AcDbEntity
  8
0
100
AcDbLine
 10
258.9125095117121
 20
56.55305235742307
 30
0.0
 11
258.9125095117121
 21
43.55305235742306
 31
0.0
  0
LINE
  5
117A
330
1F
100
AcDbEntity
  8
0
100
AcDbLine
 10
272.9125095117121
 20
56.55305235742307
 30
0.0
 11
272.9125095117121
 21
43.55305235742306
 31
0.0
  0
ARC
  5
117B
330
1F
100
AcDbEntity
  8
0
100
AcDbCircle
 10
259.4125095117121
 20
56.55305235742307
 30
0.0
 40
0.5
100
AcDbArc
 50
90.0
 51
180.0
  0
ARC
  5
117C
330
1F
100
AcDbEntity
  8
0
100
AcDbCircle
 10
272.4125095117121
 20
56.55305235742307
 30
0.0
 40
0.5
100
AcDbArc
 50
0.0
 51
90.0
  0
ARC
  5
117D
330
1F
100
AcDbEntity
  8
0
100
AcDbCircle
 10
259.4125095117121
 20
43.55305235742306
 30
0.0
 40
0.5
100
AcDbArc
 50
180.0
 51
270.0
  0
ARC
  5
117E
330
1F
100
AcDbEntity
  8
0
100
AcDbCircle
 10
272.4125095117121
 20
43.55305235742306
 30
0.0
 40
0.5
100
AcDbArc
 50
270.0
 51
0.0
  0
LINE
  5
117F
330
1F
100
AcDbEntity
  8
0
100
AcDbLine
 10
240.3625095117121
 20
52.29055235742308
 30
0.0
 11
253.3625095117121
 21
52.29055235742308
 31
0.0
  0
LINE
  5
1180
330
1F
100
AcDbEntity
  8
0
100
AcDbLine
 10
240.3625095117121
 20
38.29055235742308
 30
0.0
 11
253.3625095117121
 21
38.29055235742308
 31
0.0
  0
LINE
  5
1181
330
1F
100
AcDbEntity
  8
0
100
AcDbLine
 10
239.8625095117121
 20
51.79055235742308
 30
0.0
 11
239.8625095117121
 21
38.79055235742308
 31
0.0
  0
LINE
  5
1182
330
1F
100
AcDbEntity
  8
0
100
AcDbLine
 10
253.8625095117121
 20
51.79055235742308
 30
0.0
 11
253.8625095117121
 21
38.79055235742308
 31
0.0
  0
ARC
  5
1183
330
1F
100
AcDbEntity
  8
0
100
AcDbCircle
 10
240.3625095117121
 20
51.79055235742308
 30
0.0
 40
0.5
100
AcDbArc
 50
90.0
 51
180.0
  0
ARC
  5
1184
330
1F
100
AcDbEntity
  8
0
100
AcDbCircle
 10
253.3625095117121
 20
51.79055235742308
 30
0.0
 40
0.5
100
AcDbArc
 50
0.0
 51
90.0
  0
ARC
  5
1185
330
1F
100
AcDbEntity
  8
0
100
AcDbCircle
 10
240.3625095117121
 20
38.79055235742308
 30
0.0
 40
0.5
100
AcDbArc
 50
180.0
 51
270.0
  0
ARC
  5
1186
330
1F
100
AcDbEntity
  8
0
100
AcDbCircle
 10
253.3625095117121
 20
38.79055235742308
 30
0.0
 40
0.5
100
AcDbArc
 50
270.0
 51
0.0
  0
LINE
  5
1187
330
1F
100
AcDbEntity
  8
0
100
AcDbLine
 10
278.4625095117121
 20
52.29055235742308
 30
0.0
 11
291.4625095117121
 21
52.29055235742308
 31
0.0
  0
LINE
  5
1188
330
1F
100
AcDbEntity
  8
0
100
AcDbLine
 10
278.4625095117121
 20
38.29055235742308
 30
0.0
 11
291.4625095117121
 21
38.29055235742308
 31
0.0
  0
LINE
  5
1189
330
1F
100
AcDbEntity
  8
0
100
AcDbLine
 10
277.9625095117121
 20
51.79055235742308
 30
0.0
 11
277.9625095117121
 21
38.79055235742308
 31
0.0
  0
LINE
  5
118A
330
1F
100
AcDbEntity
  8
0
100
AcDbLine
 10
291.9625095117122
 20
51.79055235742308
 30
0.0
 11
291.9625095117122
 21
38.79055235742308
 31
0.0
  0
ARC
  5
118B
330
1F
100
AcDbEntity
  8
0
100
AcDbCircle
 10
278.4625095117121
 20
51.79055235742308
 30
0.0
 40
0.5
100
AcDbArc
 50
90.0
 51
180.0
  0
ARC
  5
118C
330
1F
100
AcDbEntity
  8
0
100
AcDbCircle
 10
291.4625095117121
 20
51.79055235742308
 30
0.0
 40
0.5
100
AcDbArc
 50
0.0
 51
90.0
  0
ARC
  5
118D
330
1F
100
AcDbEntity
  8
0
100
AcDbCircle
 10
278.4625095117121
 20
38.79055235742308
 30
0.0
 40
0.5
100
AcDbArc
 50
180.0
 51
270.0
  0
ARC
  5
118E
330
1F
100
AcDbEntity
  8
0
100
AcDbCircle
 10
291.4625095117121
 20
38.79055235742308
 30
0.0
 40
0.5
100
AcDbArc
 50
270.0
 51
0.0
  0
LINE
  5
118F
330
1F
100
AcDbEntity
  8
0
100
AcDbLine
 10
297.5125095117121
 20
50.00455235742307
 30
0.0
 11
310.512509511712
 21
50.00455235742307
 31
0.0
  0
LINE
  5
1190
330
1F
100
AcDbEntity
  8
0
100
AcDbLine
 10
297.5125095117121
 20
36.00455235742308
 30
0.0
 11
310.512509511712
 21
36.00455235742308
 31
0.0
  0
LINE
  5
1191
330
1F
100
AcDbEntity
  8
0
100
AcDbLine
 10
297.0125095117122
 20
49.50455235742308
 30
0.0
 11
297.0125095117122
 21
36.50455235742308
 31
0.0
  0
LINE
  5
1192
330
1F
100
AcDbEntity
  8
0
100
AcDbLine
 10
311.012509511712
 20
49.50455235742308
 30
0.0
 11
311.012509511712
 21
36.50455235742308
 31
0.0
  0
ARC
  5
1193
330
1F
100
AcDbEntity
  8
0
100
AcDbCircle
 10
297.5125095117121
 20
49.50455235742308
 30
0.0
 40
0.5
100
AcDbArc
 50
90.0
 51
180.0
  0
ARC
  5
1194
330
1F
100
AcDbEntity
  8
0
100
AcDbCircle
 10
310.512509511712
 20
49.50455235742308
 30
0.0
 40
0.5
100
AcDbArc
 50
0.0
 51
90.0
  0
ARC
  5
1195
330
1F
100
AcDbEntity
  8
0
100
AcDbCircle
 10
297.5125095117121
 20
36.50455235742308
 30
0.0
 40
0.5
100
AcDbArc
 50
180.0
 51
270.0
  0
ARC
  5
1196
330
1F
100
AcDbEntity
  8
0
100
AcDbCircle
 10
310.512509511712
 20
36.50455235742308
 30
0.0
 40
0.5
100
AcDbArc
 50
270.0
 51
0.0
  0
LINE
  5
1197
330
1F
100
AcDbEntity
  8
0
100
AcDbLine
 10
221.3125095117121
 20
45.24205235742307
 30
0.0
 11
234.3125095117121
 21
45.24205235742307
 31
0.0
  0
LINE
  5
1198
330
1F
100
AcDbEntity
  8
0
100
AcDbLine
 10
221.3125095117121
 20
31.24205235742308
 30
0.0
 11
234.3125095117121
 21
31.24205235742308
 31
0.0
  0
LINE
  5
1199
330
1F
100
AcDbEntity
  8
0
100
AcDbLine
 10
220.8125095117121
 20
44.74205235742307
 30
0.0
 11
220.8125095117121
 21
31.74205235742308
 31
0.0
  0
LINE
  5
119A
330
1F
100
AcDbEntity
  8
0
100
AcDbLine
 10
234.8125095117121
 20
44.74205235742307
 30
0.0
 11
234.8125095117121
 21
31.74205235742308
 31
0.0
  0
ARC
  5
119B
330
1F
100
AcDbEntity
  8
0
100
AcDbCircle
 10
221.3125095117121
 20
44.74205235742307
 30
0.0
 40
0.5
100
AcDbArc
 50
90.0
 51
180.0
  0
ARC
  5
119C
330
1F
100
AcDbEntity
  8
0
100
AcDbCircle
 10
234.3125095117121
 20
44.74205235742307
 30
0.0
 40
0.5
100
AcDbArc
 50
0.0
 51
90.0
  0
ARC
  5
119D
330
1F
100
AcDbEntity
  8
0
100
AcDbCircle
 10
221.3125095117121
 20
31.74205235742308
 30
0.0
 40
0.5
100
AcDbArc
 50
180.0
 51
270.0
  0
ARC
  5
119E
330
1F
100
AcDbEntity
  8
0
100
AcDbCircle
 10
234.3125095117121
 20
31.74205235742308
 30
0.0
 40
0.5
100
AcDbArc
 50
270.0
 51
0.0
  0
LINE
  5
119F
330
1F
100
AcDbEntity
  8
0
100
AcDbLine
 10
202.2625095117121
 20
42.76555235742309
 30
0.0
 11
215.2625095117121
 21
42.76555235742309
 31
0.0
  0
LINE
  5
11A0
330
1F
100
AcDbEntity
  8
0
100
AcDbLine
 10
202.2625095117121
 20
28.76555235742309
 30
0.0
 11
215.2625095117121
 21
28.76555235742309
 31
0.0
  0
LINE
  5
11A1
330
1F
100
AcDbEntity
  8
0
100
AcDbLine
 10
201.7625095117121
 20
42.26555235742309
 30
0.0
 11
201.7625095117121
 21
29.26555235742309
 31
0.0
  0
LINE
  5
11A2
330
1F
100
AcDbEntity
  8
0
100
AcDbLine
 10
215.7625095117121
 20
42.26555235742309
 30
0.0
 11
215.7625095117121
 21
29.26555235742309
 31
0.0
  0
ARC
  5
11A3
330
1F
100
AcDbEntity
  8
0
100
AcDbCircle
 10
202.2625095117121
 20
42.26555235742309
 30
0.0
 40
0.5
100
AcDbArc
 50
90.0
 51
180.0
  0
ARC
  5
11A4
330
1F
100
AcDbEntity
  8
0
100
AcDbCircle
 10
215.2625095117121
 20
42.26555235742309
 30
0.0
 40
0.5
100
AcDbArc
 50
0.0
 51
90.0
  0
ARC
  5
11A5
330
1F
100
AcDbEntity
  8
0
100
AcDbCircle
 10
202.2625095117121
 20
29.26555235742309
 30
0.0
 40
0.5
100
AcDbArc
 50
180.0
 51
270.0
  0
ARC
  5
11A6
330
1F
100
AcDbEntity
  8
0
100
AcDbCircle
 10
215.2625095117121
 20
29.26555235742309
 30
0.0
 40
0.5
100
AcDbArc
 50
270.0
 51
0.0
  0
LINE
  5
11A7
330
1F
100
AcDbEntity
  8
0
100
AcDbLine
 10
278.4625095117121
 20
33.24055235742307
 30
0.0
 11
291.4625095117121
 21
33.24055235742307
 31
0.0
  0
LINE
  5
11A8
330
1F
100
AcDbEntity
  8
0
100
AcDbLine
 10
278.4625095117121
 20
19.24055235742308
 30
0.0
 11
291.4625095117121
 21
19.24055235742308
 31
0.0
  0
LINE
  5
11A9
330
1F
100
AcDbEntity
  8
0
100
AcDbLine
 10
277.9625095117121
 20
32.74055235742308
 30
0.0
 11
277.9625095117121
 21
19.74055235742308
 31
0.0
  0
LINE
  5
11AA
330
1F
100
AcDbEntity
  8
0
100
AcDbLine
 10
291.9625095117122
 20
32.74055235742308
 30
0.0
 11
291.9625095117122
 21
19.74055235742308
 31
0.0
  0
ARC
  5
11AB
330
1F
100
AcDbEntity
  8
0
100
AcDbCircle
 10
278.4625095117121
 20
32.74055235742308
 30
0.0
 40
0.5
100
AcDbArc
 50
90.0
 51
180.0
  0
ARC
  5
11AC
330
1F
100
AcDbEntity
  8
0
100
AcDbCircle
 10
291.4625095117121
 20
32.74055235742308
 30
0.0
 40
0.5
100
AcDbArc
 50
0.0
 51
90.0
  0
ARC
  5
11AD
330
1F
100
AcDbEntity
  8
0
100
AcDbCircle
 10
278.4625095117121
 20
19.74055235742308
 30
0.0
 40
0.5
100
AcDbArc
 50
180.0
 51
270.0
  0
ARC
  5
11AE
330
1F
100
AcDbEntity
  8
0
100
AcDbCircle
 10
291.4625095117121
 20
19.74055235742308
 30
0.0
 40
0.5
100
AcDbArc
 50
270.0
 51
0.0
  0
LINE
  5
11AF
330
1F
100
AcDbEntity
  8
0
100
AcDbLine
 10
297.5125095117121
 20
30.95455235742309
 30
0.0
 11
310.512509511712
 21
30.95455235742309
 31
0.0
  0
LINE
  5
11B0
330
1F
100
AcDbEntity
  8
0
100
AcDbLine
 10
297.5125095117121
 20
16.95455235742308
 30
0.0
 11
310.512509511712
 21
16.95455235742308
 31
0.0
  0
LINE
  5
11B1
330
1F
100
AcDbEntity
  8
0
100
AcDbLine
 10
297.0125095117122
 20
30.45455235742308
 30
0.0
 11
297.0125095117122
 21
17.45455235742308
 31
0.0
  0
LINE
  5
11B2
330
1F
100
AcDbEntity
  8
0
100
AcDbLine
 10
311.012509511712
 20
30.45455235742308
 30
0.0
 11
311.012509511712
 21
17.45455235742308
 31
0.0
  0
ARC
  5
11B3
330
1F
100
AcDbEntity
  8
0
100
AcDbCircle
 10
297.5125095117121
 20
30.45455235742308
 30
0.0
 40
0.5
100
AcDbArc
 50
90.0
 51
180.0
  0
ARC
  5
11B4
330
1F
100
AcDbEntity
  8
0
100
AcDbCircle
 10
310.512509511712
 20
30.45455235742308
 30
0.0
 40
0.5
100
AcDbArc
 50
0.0
 51
90.0
  0
ARC
  5
11B5
330
1F
100
AcDbEntity
  8
0
100
AcDbCircle
 10
297.5125095117121
 20
17.45455235742308
 30
0.0
 40
0.5
100
AcDbArc
 50
180.0
 51
270.0
  0
ARC
  5
11B6
330
1F
100
AcDbEntity
  8
0
100
AcDbCircle
 10
310.512509511712
 20
17.45455235742308
 30
0.0
 40
0.5
100
AcDbArc
 50
270.0
 51
0.0
  0
LINE
  5
11B7
330
1F
100
AcDbEntity
  8
0
100
AcDbLine
 10
316.5625095117121
 20
28.47805235742308
 30
0.0
 11
329.5625095117121
 21
28.47805235742308
 31
0.0
  0
LINE
  5
11B8
330
1F
100
AcDbEntity
  8
0
100
AcDbLine
 10
316.5625095117121
 20
14.47805235742308
 30
0.0
 11
329.5625095117121
 21
14.47805235742308
 31
0.0
  0
LINE
  5
11B9
330
1F
100
AcDbEntity
  8
0
100
AcDbLine
 10
316.062509511712
 20
27.97805235742308
 30
0.0
 11
316.062509511712
 21
14.97805235742308
 31
0.0
  0
LINE
  5
11BA
330
1F
100
AcDbEntity
  8
0
100
AcDbLine
 10
330.062509511712
 20
27.97805235742308
 30
0.0
 11
330.062509511712
 21
14.97805235742308
 31
0.0
  0
ARC
  5
11BB
330
1F
100
AcDbEntity
  8
0
100
AcDbCircle
 10
316.5625095117121
 20
27.97805235742308
 30
0.0
 40
0.5
100
AcDbArc
 50
90.0
 51
180.0
  0
ARC
  5
11BC
330
1F
100
AcDbEntity
  8
0
100
AcDbCircle
 10
329.5625095117121
 20
27.97805235742308
 30
0.0
 40
0.5
100
AcDbArc
 50
0.0
 51
90.0
  0
ARC
  5
11BD
330
1F
100
AcDbEntity
  8
0
100
AcDbCircle
 10
316.5625095117121
 20
14.97805235742308
 30
0.0
 40
0.5
100
AcDbArc
 50
180.0
 51
270.0
  0
ARC
  5
11BE
330
1F
100
AcDbEntity
  8
0
100
AcDbCircle
 10
329.5625095117121
 20
14.97805235742308
 30
0.0
 40
0.5
100
AcDbArc
 50
270.0
 51
0.0
  0
CIRCLE
  5
11BF
330
1F
100
AcDbEntity
  8
0
100
AcDbCircle
 10
294.4875095117121
 20
91.77255235742308
 30
0.0
 40
1.0
  0
CIRCLE
  5
11C0
330
1F
100
AcDbEntity
  8
0
100
AcDbCircle
 10
294.4875095117121
 20
34.62255235742309
 30
0.0
 40
1.0
  0
CIRCLE
  5
11C1
330
1F
100
AcDbEntity
  8
0
100
AcDbCircle
 10
256.3875095117121
 20
95.29680235742308
 30
0.0
 40
1.0
  0
CIRCLE
  5
11C2
330
1F
100
AcDbEntity
  8
0
100
AcDbCircle
 10
199.2125095117121
 20
64.31555235742308
 30
0.0
 40
1.0
  0
CIRCLE
  5
11C3
330
1F
100
AcDbEntity
  8
0
100
AcDbCircle
 10
218.2875095117121
 20
46.52880235742308
 30
0.0
 40
1.0
  0
LINE
  5
11C4
330
1F
100
AcDbEntity
  8
0
100
AcDbLine
 10
180.7125095117121
 20
69.57805235742307
 30
0.0
 11
197.7125095117121
 21
69.57805235742307
 31
0.0
  0
ARC
  5
11C5
330
1F
100
AcDbEntity
  8
0
100
AcDbCircle
 10
197.7125095117121
 20
70.57805235742307
 30
0.0
 40
1.0
100
AcDbArc
 50
270.0
 51
0.0
  0
LINE
  5
11C6
330
1F
100
AcDbEntity
  8
0
100
AcDbLine
 10
198.7125095117121
 20
70.57805235742307
 30
0.0
 11
198.7125095117121
 21
101.9155523574231
 31
0.0
  0
ARC
  5
11C7
330
1F
100
AcDbEntity
  8
0
100
AcDbCircle
 10
199.7125095117121
 20
101.9155523574231
 30
0.0
 40
1.0
100
AcDbArc
 50
90.0
 51
180.0
  0
LINE
  5
11C8
330
1F
100
AcDbEntity
  8
0
100
AcDbLine
 10
199.7125095117121
 20
102.9155523574231
 30
0.0
 11
216.8125096040635
 21
102.9155523574231
 31
0.0
  0
ARC
  5
11C9
330
1F
100
AcDbEntity
  8
0
100
AcDbCircle
 10
216.8125096040635
 20
103.9155523574231
 30
0.0
 40
1.0
100
AcDbArc
 50
270.0
 51
0.0
  0
LINE
  5
11CA
330
1F
100
AcDbEntity
  8
0
100
AcDbLine
 10
218.8125096040635
 20
105.3920524478334
 30
0.0
 11
235.8625096040635
 21
105.3920524478334
 31
0.0
  0
ARC
  5
11CB
330
1F
100
AcDbEntity
  8
0
100
AcDbCircle
 10
235.8625096040635
 20
106.3920524478334
 30
0.0
 40
1.0
100
AcDbArc
 50
270.0
 51
0.0
  0
LINE
  5
11CC
330
1F
100
AcDbEntity
  8
0
100
AcDbLine
 10
236.8625096040635
 20
106.3920524478334
 30
0.0
 11
236.8625096040635
 21
111.4405524478335
 31
0.0
  0
ARC
  5
11CD
330
1F
100
AcDbEntity
  8
0
100
AcDbCircle
 10
237.8625096040635
 20
111.4405524478335
 30
0.0
 40
1.0
100
AcDbArc
 50
90.0
 51
180.0
  0
LINE
  5
11CE
330
1F
100
AcDbEntity
  8
0
100
AcDbLine
 10
237.8625096040635
 20
112.4405524478335
 30
0.0
 11
254.9125096040635
 21
112.4405524478335
 31
0.0
  0
ARC
  5
11CF
330
1F
100
AcDbEntity
  8
0
100
AcDbCircle
 10
254.9125096040635
 20
113.4405524478335
 30
0.0
 40
1.0
100
AcDbArc
 50
270.0
 51
0.0
  0
LINE
  5
11D0
330
1F
100
AcDbEntity
  8
0
100
AcDbLine
 10
255.9125096040635
 20
113.4405524478335
 30
0.0
 11
255.9125096040635
 21
116.2030524478335
 31
0.0
  0
ARC
  5
11D1
330
1F
100
AcDbEntity
  8
0
100
AcDbCircle
 10
256.9125096040635
 20
116.2030524478335
 30
0.0
 40
1.0
100
AcDbArc
 50
90.0
 51
180.0
  0
LINE
  5
11D2
330
1F
100
AcDbEntity
  8
0
100
AcDbLine
 10
256.9125096040635
 20
117.2030524478335
 30
0.0
 11
274.9125096040634
 21
117.2030524478335
 31
0.0
  0
LINE
  5
11D3
330
1F
100
AcDbEntity
  8
0
100
AcDbLine
 10
275.9125096040634
 20
116.2030524478335
 30
0.0
 11
275.9125096040634
 21
113.4405524473673
 31
0.0
  0
ARC
  5
11D4
330
1F
100
AcDbEntity
  8
0
100
AcDbCircle
 10
274.9125096040634
 20
116.2030524478335
 30
0.0
 40
1.0
100
AcDbArc
 50
0.0
 51
90.0
  0
LINE
  5
11D5
330
1F
100
AcDbEntity
  8
0
100
AcDbLine
 10
276.9125096035972
 20
112.4405524473673
 30
0.0
 11
293.9625096045297
 21
112.4405524394187
 31
0.0
  0
ARC
  5
11D6
330
1F
100
AcDbEntity
  8
0
100
AcDbCircle
 10
276.9125096040634
 20
113.4405524473673
 30
0.0
 40
1.0
100
AcDbArc
 50
180.0
 51
269.9999999732887
  0
LINE
  5
11D7
330
1F
100
AcDbEntity
  8
0
100
AcDbLine
 10
295.9625096035974
 20
110.1545523569569
 30
0.0
 11
313.0125095121782
 21
110.1545523490084
 31
0.0
  0
ARC
  5
11D8
330
1F
100
AcDbEntity
  8
0
100
AcDbCircle
 10
295.9625096040635
 20
111.1545523569569
 30
0.0
 40
1.0
100
AcDbArc
 50
180.0
 51
269.9999999732887
  0
LINE
  5
11D9
330
1F
100
AcDbEntity
  8
0
100
AcDbLine
 10
332.0625095117121
 20
11.47805235742308
 30
0.0
 11
314.0625095117122
 21
11.47805235742308
 31
0.0
  0
ARC
  5
11DA
330
1F
100
AcDbEntity
  8
0
100
AcDbCircle
 10
314.0625095117122
 20
12.47805235742308
 30
0.0
 40
1.0
100
AcDbArc
 50
180.0
 51
270.0
  0
ARC
  5
11DB
330
1F
100
AcDbEntity
  8
0
100
AcDbCircle
 10
332.0625095117121
 20
12.47805235742308
 30
0.0
 40
1.0
100
AcDbArc
 50
270.0
 51
0.0
  0
LINE
  5
11DC
330
1F
100
AcDbEntity
  8
0
100
AcDbLine
 10
313.0625095117121
 20
12.47805235742308
 30
0.0
 11
313.0625095117121
 21
12.95455235742308
 31
0.0
  0
ARC
  5
11DD
330
1F
100
AcDbEntity
  8
0
100
AcDbCircle
 10
312.0625095117122
 20
12.95455235742308
 30
0.0
 40
1.0
100
AcDbArc
 50
0.0
 51
90.0
  0
LINE
  5
11DE
330
1F
100
AcDbEntity
  8
0
100
AcDbLine
 10
312.0625095117122
 20
13.95455235742308
 30
0.0
 11
295.012509511712
 21
13.95455235742308
 31
0.0
  0
LINE
  5
11DF
330
1F
100
AcDbEntity
  8
0
100
AcDbLine
 10
293.012509511712
 20
16.24055235742308
 30
0.0
 11
275.962509511712
 21
16.24055235742308
 31
0.0
  0
ARC
  5
11E0
330
1F
100
AcDbEntity
  8
0
100
AcDbCircle
 10
275.962509511712
 20
17.24055235742308
 30
0.0
 40
1.0
100
AcDbArc
 50
180.0
 51
270.0
  0
ARC
  5
11E1
330
1F
100
AcDbEntity
  8
0
100
AcDbCircle
 10
293.012509511712
 20
15.24055235742308
 30
0.0
 40
1.0
100
AcDbArc
 50
0.0
 51
90.0
  0
LINE
  5
11E2
330
1F
100
AcDbEntity
  8
0
100
AcDbLine
 10
274.962509511712
 20
17.24055235742308
 30
0.0
 11
274.962509511712
 21
39.0530523574231
 31
0.0
  0
LINE
  5
11E3
330
1F
100
AcDbEntity
  8
0
100
AcDbLine
 10
273.962509511712
 20
40.0530523574231
 30
0.0
 11
257.8625095117121
 21
40.0530523574231
 31
0.0
  0
ARC
  5
11E4
330
1F
100
AcDbEntity
  8
0
100
AcDbCircle
 10
273.962509511712
 20
39.0530523574231
 30
0.0
 40
1.0
100
AcDbArc
 50
0.0
 51
90.0
  0
LINE
  5
11E5
330
1F
100
AcDbEntity
  8
0
100
AcDbLine
 10
256.8625095117121
 20
39.0530523574231
 30
0.0
 11
256.8625095117121
 21
36.29055235742308
 31
0.0
  0
ARC
  5
11E6
330
1F
100
AcDbEntity
  8
0
100
AcDbCircle
 10
257.8625095117121
 20
39.0530523574231
 30
0.0
 40
1.0
100
AcDbArc
 50
90.0
 51
180.0
  0
LINE
  5
11E7
330
1F
100
AcDbEntity
  8
0
100
AcDbLine
 10
255.8625095117121
 20
35.29055235742308
 30
0.0
 11
238.8125095117121
 21
35.29055235742308
 31
0.0
  0
ARC
  5
11E8
330
1F
100
AcDbEntity
  8
0
100
AcDbCircle
 10
255.8625095117121
 20
36.29055235742308
 30
0.0
 40
1.0
100
AcDbArc
 50
270.0
 51
0.0
  0
LINE
  5
11E9
330
1F
100
AcDbEntity
  8
0
100
AcDbLine
 10
237.8125095117121
 20
34.29055235742308
 30
0.0
 11
237.8125095117121
 21
29.24205235742308
 31
0.0
  0
ARC
  5
11EA
330
1F
100
AcDbEntity
  8
0
100
AcDbCircle
 10
238.8125095117121
 20
34.29055235742308
 30
0.0
 40
1.0
100
AcDbArc
 50
90.0
 51
180.0
  0
LINE
  5
11EB
330
1F
100
AcDbEntity
  8
0
100
AcDbLine
 10
236.8125095117121
 20
28.24205235742308
 30
0.0
 11
219.7625095117121
 21
28.24205235742308
 31
0.0
  0
ARC
  5
11EC
330
1F
100
AcDbEntity
  8
0
100
AcDbCircle
 10
236.8125095117121
 20
29.24205235742308
 30
0.0
 40
1.0
100
AcDbArc
 50
270.0
 51
0.0
  0
LINE
  5
11ED
330
1F
100
AcDbEntity
  8
0
100
AcDbLine
 10
218.7625095117121
 20
27.24205235742308
 30
0.0
 11
218.7625095117121
 21
26.76555235742309
 31
0.0
  0
ARC
  5
11EE
330
1F
100
AcDbEntity
  8
0
100
AcDbCircle
 10
219.7625095117121
 20
27.24205235742308
 30
0.0
 40
1.0
100
AcDbArc
 50
90.0
 51
180.0
  0
LINE
  5
11EF
330
1F
100
AcDbEntity
  8
0
100
AcDbLine
 10
217.7625095117121
 20
25.76555235742309
 30
0.0
 11
199.7625095117121
 21
25.76555235742309
 31
0.0
  0
ARC
  5
11F0
330
1F
100
AcDbEntity
  8
0
100
AcDbCircle
 10
217.7625095117121
 20
26.76555235742309
 30
0.0
 40
1.0
100
AcDbArc
 50
270.0
 51
0.0
  0
LINE
  5
11F1
330
1F
100
AcDbEntity
  8
0
100
AcDbLine
 10
198.7625095117121
 20
26.76555235742309
 30
0.0
 11
198.7625095117121
 21
48.57805235742308
 31
0.0
  0
ARC
  5
11F2
330
1F
100
AcDbEntity
  8
0
100
AcDbCircle
 10
197.7625095117121
 20
48.57805235742308
 30
0.0
 40
1.0
100
AcDbArc
 50
0.0
 51
90.0
  0
ARC
  5
11F3
330
1F
100
AcDbEntity
  8
0
100
AcDbCircle
 10
199.7625095117121
 20
26.76555235742309
 30
0.0
 40
1.0
100
AcDbArc
 50
180.0
 51
270.0
  0
LINE
  5
11F4
330
1F
100
AcDbEntity
  8
0
100
AcDbLine
 10
197.7625095117121
 20
49.57805235742307
 30
0.0
 11
180.7125095117121
 21
49.57805235742307
 31
0.0
  0
ARC
  5
11F5
330
1F
100
AcDbEntity
  8
0
100
AcDbCircle
 10
180.7125095117121
 20
50.57805235742307
 30
0.0
 40
1.0
100
AcDbArc
 50
180.0
 51
270.0
  0
LINE
  5
11F6
330
1F
100
AcDbEntity
  8
0
100
AcDbLine
 10
179.7125095117121
 20
50.57805235742307
 30
0.0
 11
179.7125095117121
 21
68.57805235742308
 31
0.0
  0
ARC
  5
11F7
330
1F
100
AcDbEntity
  8
0
100
AcDbCircle
 10
180.7125095117121
 20
68.57805235742308
 30
0.0
 40
1.0
100
AcDbArc
 50
90.0
 51
180.0
  0
LINE
  5
11F8
330
1F
100
AcDbEntity
  8
0
100
AcDbLine
 10
294.0125095117121
 20
14.95455235742308
 30
0.0
 11
294.0125095117121
 21
15.24055235742308
 31
0.0
  0
ARC
  5
11F9
330
1F
100
AcDbEntity
  8
0
100
AcDbCircle
 10
295.012509511712
 20
14.95455235742308
 30
0.0
 40
1.0
100
AcDbArc
 50
180.0
 51
270.0
  0
LINE
  5
11FA
330
1F
100
AcDbEntity
  8
0
100
AcDbLine
 10
333.0625095117121
 20
88.47805235742308
 30
0.0
 11
314.0125095117121
 21
88.47805235742308
 31
0.0
  0
LINE
  5
11FB
330
1F
100
AcDbEntity
  8
0
100
AcDbLine
 10
314.0125095117121
 20
109.1545523490084
 30
0.0
 11
314.0125095117121
 21
84.47805235742308
 31
0.0
  0
ARC
  5
11FC
330
1F
100
AcDbEntity
  8
0
100
AcDbCircle
 10
313.012509511712
 20
109.1545523490084
 30
0.0
 40
1.0
100
AcDbArc
 50
0.0
 51
89.99999997328863
  0
LINE
  5
11FD
330
1F
100
AcDbEntity
  8
0
100
AcDbLine
 10
178.7125095117121
 20
71.57805235742308
 30
0.0
 11
195.7125095117121
 21
71.57805235742308
 31
0.0
  0
ARC
  5
11FE
330
1F
100
AcDbEntity
  8
0
100
AcDbCircle
 10
195.7125095117121
 20
72.57805235742307
 30
0.0
 40
1.0
100
AcDbArc
 50
270.0
 51
0.0
  0
LINE
  5
11FF
330
1F
100
AcDbEntity
  8
0
100
AcDbLine
 10
196.7125095117121
 20
72.57805235742307
 30
0.0
 11
196.7125095117121
 21
103.9155523574231
 31
0.0
  0
ARC
  5
1200
330
1F
100
AcDbEntity
  8
0
100
AcDbCircle
 10
197.7125095117121
 20
103.9155523574231
 30
0.0
 40
1.0
100
AcDbArc
 50
90.0
 51
180.0
  0
LINE
  5
1201
330
1F
100
AcDbEntity
  8
0
100
AcDbLine
 10
197.7125095117121
 20
104.9155523574231
 30
0.0
 11
214.8125096040635
 21
104.9155523574231
 31
0.0
  0
ARC
  5
1202
330
1F
100
AcDbEntity
  8
0
100
AcDbCircle
 10
214.8125096040635
 20
105.9155523574231
 30
0.0
 40
1.0
100
AcDbArc
 50
270.0
 51
0.0
  0
LINE
  5
1203
330
1F
100
AcDbEntity
  8
0
100
AcDbLine
 10
215.8125096040635
 20
105.9155523574231
 30
0.0
 11
215.8125096040635
 21
106.3920524478334
 31
0.0
  0
ARC
  5
1204
330
1F
100
AcDbEntity
  8
0
100
AcDbCircle
 10
216.8125096040635
 20
106.3920524478334
 30
0.0
 40
1.0
100
AcDbArc
 50
90.0
 51
180.0
  0
LINE
  5
1205
330
1F
100
AcDbEntity
  8
0
100
AcDbLine
 10
216.8125096040635
 20
107.3920524478334
 30
0.0
 11
233.8625096040635
 21
107.3920524478334
 31
0.0
  0
ARC
  5
1206
330
1F
100
AcDbEntity
  8
0
100
AcDbCircle
 10
233.8625096040635
 20
108.3920524478334
 30
0.0
 40
1.0
100
AcDbArc
 50
270.0
 51
0.0
  0
LINE
  5
1207
330
1F
100
AcDbEntity
  8
0
100
AcDbLine
 10
234.8625096040635
 20
108.3920524478334
 30
0.0
 11
234.8625096040635
 21
113.4405524478335
 31
0.0
  0
ARC
  5
1208
330
1F
100
AcDbEntity
  8
0
100
AcDbCircle
 10
235.8625096040635
 20
113.4405524478335
 30
0.0
 40
1.0
100
AcDbArc
 50
90.0
 51
180.0
  0
LINE
  5
1209
330
1F
100
AcDbEntity
  8
0
100
AcDbLine
 10
235.8625096040635
 20
114.4405524478335
 30
0.0
 11
252.9125096040635
 21
114.4405524478335
 31
0.0
  0
ARC
  5
120A
330
1F
100
AcDbEntity
  8
0
100
AcDbCircle
 10
252.9125096040635
 20
115.4405524478335
 30
0.0
 40
1.0
100
AcDbArc
 50
270.0
 51
0.0
  0
LINE
  5
120B
330
1F
100
AcDbEntity
  8
0
100
AcDbLine
 10
253.9125096040635
 20
115.4405524478335
 30
0.0
 11
253.9125096040635
 21
118.2030524463533
 31
0.0
  0
ARC
  5
120C
330
1F
100
AcDbEntity
  8
0
100
AcDbCircle
 10
254.9125096040635
 20
118.2030524463533
 30
0.0
 40
1.0
100
AcDbArc
 50
89.9999999151939
 51
180.0
  0
LINE
  5
120D
330
1F
100
AcDbEntity
  8
0
100
AcDbLine
 10
254.9125096055437
 20
119.2030524463533
 30
0.0
 11
276.9125096055436
 21
119.2030524137904
 31
0.0
  0
LINE
  5
120E
330
1F
100
AcDbEntity
  8
0
100
AcDbLine
 10
277.9125096040634
 20
118.2030524137904
 30
0.0
 11
277.9125096040634
 21
115.4405524478335
 31
0.0
  0
ARC
  5
120F
330
1F
100
AcDbEntity
  8
0
100
AcDbCircle
 10
276.9125096040634
 20
118.2030524137904
 30
0.0
 40
1.0
100
AcDbArc
 50
0.0
 51
89.99999991519551
  0
LINE
  5
1210
330
1F
100
AcDbEntity
  8
0
100
AcDbLine
 10
278.9125096040634
 20
114.4405524478335
 30
0.0
 11
295.9625096040635
 21
114.4405524478335
 31
0.0
  0
ARC
  5
1211
330
1F
100
AcDbEntity
  8
0
100
AcDbCircle
 10
278.9125096040634
 20
115.4405524478335
 30
0.0
 40
1.0
100
AcDbArc
 50
180.0
 51
270.0
  0
LINE
  5
1212
330
1F
100
AcDbEntity
  8
0
100
AcDbLine
 10
296.9625096040635
 20
113.4405524478335
 30
0.0
 11
296.9625096040635
 21
113.1545523550921
 31
0.0
  0
ARC
  5
1213
330
1F
100
AcDbEntity
  8
0
100
AcDbCircle
 10
295.9625096040635
 20
113.4405524478335
 30
0.0
 40
1.0
100
AcDbArc
 50
0.0
 51
90.0
  0
LINE
  5
1214
330
1F
100
AcDbEntity
  8
0
100
AcDbLine
 10
297.9625096017326
 20
112.1545523550921
 30
0.0
 11
315.012509514043
 21
112.15455231535
 31
0.0
  0
ARC
  5
1215
330
1F
100
AcDbEntity
  8
0
100
AcDbCircle
 10
297.9625096040635
 20
113.1545523550921
 30
0.0
 40
1.0
100
AcDbArc
 50
180.0
 51
269.999999866448
  0
ARC
  5
1216
330
1F
100
AcDbEntity
  8
0
100
AcDbCircle
 10
315.012509511712
 20
111.15455231535
 30
0.0
 40
1.0
100
AcDbArc
 50
0.0
 51
89.99999986644805
  0
LINE
  5
1217
330
1F
100
AcDbEntity
  8
0
100
AcDbLine
 10
317.012509511712
 20
90.47805235742307
 30
0.0
 11
334.0625095117121
 21
90.47805235742307
 31
0.0
  0
LINE
  5
1218
330
1F
100
AcDbEntity
  8
0
100
AcDbLine
 10
334.0625095117121
 20
9.478052357423081
 30
0.0
 11
312.0625095117122
 21
9.478052357423081
 31
0.0
  0
ARC
  5
1219
330
1F
100
AcDbEntity
  8
0
100
AcDbCircle
 10
312.0625095117122
 20
10.47805235742308
 30
0.0
 40
1.0
100
AcDbArc
 50
180.0
 51
270.0
  0
ARC
  5
121A
330
1F
100
AcDbEntity
  8
0
100
AcDbCircle
 10
334.0625095117121
 20
10.47805235742308
 30
0.0
 40
1.0
100
AcDbArc
 50
270.0
 51
0.0
  0
LINE
  5
121B
330
1F
100
AcDbEntity
  8
0
100
AcDbLine
 10
311.0625095117122
 20
10.47805235742308
 30
0.0
 11
311.0625095117122
 21
10.95455235742308
 31
0.0
  0
ARC
  5
121C
330
1F
100
AcDbEntity
  8
0
100
AcDbCircle
 10
310.0625095117122
 20
10.95455235742308
 30
0.0
 40
1.0
100
AcDbArc
 50
0.0
 51
90.0
  0
LINE
  5
121D
330
1F
100
AcDbEntity
  8
0
100
AcDbLine
 10
310.0625095117122
 20
11.95455235742308
 30
0.0
 11
293.012509511712
 21
11.95455235742308
 31
0.0
  0
ARC
  5
121E
330
1F
100
AcDbEntity
  8
0
100
AcDbCircle
 10
293.012509511712
 20
12.95455235742308
 30
0.0
 40
1.0
100
AcDbArc
 50
180.0
 51
270.0
  0
LINE
  5
121F
330
1F
100
AcDbEntity
  8
0
100
AcDbLine
 10
292.012509511712
 20
12.95455235742308
 30
0.0
 11
292.012509511712
 21
13.24055235742308
 31
0.0
  0
LINE
  5
1220
330
1F
100
AcDbEntity
  8
0
100
AcDbLine
 10
291.012509511712
 20
14.24055235742308
 30
0.0
 11
273.962509511712
 21
14.24055235742308
 31
0.0
  0
ARC
  5
1221
330
1F
100
AcDbEntity
  8
0
100
AcDbCircle
 10
291.012509511712
 20
13.24055235742308
 30
0.0
 40
1.0
100
AcDbArc
 50
0.0
 51
90.0
  0
LINE
  5
1222
330
1F
100
AcDbEntity
  8
0
100
AcDbLine
 10
272.962509511712
 20
15.24055235742308
 30
0.0
 11
272.962509511712
 21
37.0530523574231
 31
0.0
  0
ARC
  5
1223
330
1F
100
AcDbEntity
  8
0
100
AcDbCircle
 10
271.962509511712
 20
37.0530523574231
 30
0.0
 40
1.0
100
AcDbArc
 50
0.0
 51
90.0
  0
ARC
  5
1224
330
1F
100
AcDbEntity
  8
0
100
AcDbCircle
 10
273.962509511712
 20
15.24055235742308
 30
0.0
 40
1.0
100
AcDbArc
 50
180.0
 51
270.0
  0
LINE
  5
1225
330
1F
100
AcDbEntity
  8
0
100
AcDbLine
 10
271.962509511712
 20
38.0530523574231
 30
0.0
 11
259.8625095117121
 21
38.0530523574231
 31
0.0
  0
LINE
  5
1226
330
1F
100
AcDbEntity
  8
0
100
AcDbLine
 10
258.8625095117121
 20
37.0530523574231
 30
0.0
 11
258.8625095117121
 21
34.29055235742308
 31
0.0
  0
ARC
  5
1227
330
1F
100
AcDbEntity
  8
0
100
AcDbCircle
 10
259.8625095117121
 20
37.0530523574231
 30
0.0
 40
1.0
100
AcDbArc
 50
90.0
 51
180.0
  0
LINE
  5
1228
330
1F
100
AcDbEntity
  8
0
100
AcDbLine
 10
257.8625095117121
 20
33.29055235742308
 30
0.0
 11
240.8125095117121
 21
33.29055235742308
 31
0.0
  0
ARC
  5
1229
330
1F
100
AcDbEntity
  8
0
100
AcDbCircle
 10
257.8625095117121
 20
34.29055235742308
 30
0.0
 40
1.0
100
AcDbArc
 50
270.0
 51
0.0
  0
LINE
  5
122A
330
1F
100
AcDbEntity
  8
0
100
AcDbLine
 10
239.8125095117121
 20
32.29055235742308
 30
0.0
 11
239.8125095117121
 21
27.24205235742308
 31
0.0
  0
ARC
  5
122B
330
1F
100
AcDbEntity
  8
0
100
AcDbCircle
 10
240.8125095117121
 20
32.29055235742308
 30
0.0
 40
1.0
100
AcDbArc
 50
90.0
 51
180.0
  0
LINE
  5
122C
330
1F
100
AcDbEntity
  8
0
100
AcDbLine
 10
238.8125095117121
 20
26.24205235742308
 30
0.0
 11
221.7625095117121
 21
26.24205235742308
 31
0.0
  0
ARC
  5
122D
330
1F
100
AcDbEntity
  8
0
100
AcDbCircle
 10
238.8125095117121
 20
27.24205235742308
 30
0.0
 40
1.0
100
AcDbArc
 50
270.0
 51
0.0
  0
LINE
  5
122E
330
1F
100
AcDbEntity
  8
0
100
AcDbLine
 10
220.7625095117121
 20
25.24205235742308
 30
0.0
 11
220.7625095117121
 21
24.76555235742309
 31
0.0
  0
ARC
  5
122F
330
1F
100
AcDbEntity
  8
0
100
AcDbCircle
 10
221.7625095117121
 20
25.24205235742308
 30
0.0
 40
1.0
100
AcDbArc
 50
90.0
 51
180.0
  0
LINE
  5
1230
330
1F
100
AcDbEntity
  8
0
100
AcDbLine
 10
219.7625095117121
 20
23.76555235742309
 30
0.0
 11
197.7625095117121
 21
23.76555235742309
 31
0.0
  0
ARC
  5
1231
330
1F
100
AcDbEntity
  8
0
100
AcDbCircle
 10
219.7625095117121
 20
24.76555235742309
 30
0.0
 40
1.0
100
AcDbArc
 50
270.0
 51
0.0
  0
LINE
  5
1232
330
1F
100
AcDbEntity
  8
0
100
AcDbLine
 10
196.7625095117121
 20
24.76555235742309
 30
0.0
 11
196.7625095117121
 21
46.57805235742308
 31
0.0
  0
ARC
  5
1233
330
1F
100
AcDbEntity
  8
0
100
AcDbCircle
 10
195.7625095117121
 20
46.57805235742308
 30
0.0
 40
1.0
100
AcDbArc
 50
0.0
 51
90.0
  0
ARC
  5
1234
330
1F
100
AcDbEntity
  8
0
100
AcDbCircle
 10
197.7625095117121
 20
24.76555235742309
 30
0.0
 40
1.0
100
AcDbArc
 50
180.0
 51
270.0
  0
LINE
  5
1235
330
1F
100
AcDbEntity
  8
0
100
AcDbLine
 10
195.7625095117121
 20
47.57805235742307
 30
0.0
 11
178.7125095117121
 21
47.57805235742307
 31
0.0
  0
LINE
  5
1236
330
1F
100
AcDbEntity
  8
0
100
AcDbLine
 10
177.7125095117121
 20
48.57805235742308
 30
0.0
 11
177.7125095117121
 21
70.57805235742307
 31
0.0
  0
ARC
  5
1237
330
1F
100
AcDbEntity
  8
0
100
AcDbCircle
 10
178.7125095117121
 20
70.57805235742307
 30
0.0
 40
1.0
100
AcDbArc
 50
90.0
 51
180.0
  0
ARC
  5
1238
330
1F
100
AcDbEntity
  8
0
100
AcDbCircle
 10
178.7125095117121
 20
48.57805235742308
 30
0.0
 40
1.0
100
AcDbArc
 50
180.0
 51
270.0
  0
LINE
  5
1239
330
1F
100
AcDbEntity
  8
0
100
AcDbLine
 10
217.8125096040635
 20
104.3920524478334
 30
0.0
 11
217.8125096040635
 21
103.9155523574231
 31
0.0
  0
ARC
  5
123A
330
1F
100
AcDbEntity
  8
0
100
AcDbCircle
 10
218.8125096040635
 20
104.3920524478334
 30
0.0
 40
1.0
100
AcDbArc
 50
90.0
 51
180.0
  0
LINE
  5
123B
330
1F
100
AcDbEntity
  8
0
100
AcDbLine
 10
294.9625096040636
 20
111.4405524394188
 30
0.0
 11
294.9625096040636
 21
111.1545523569569
 31
0.0
  0
ARC
  5
123C
330
1F
100
AcDbEntity
  8
0
100
AcDbCircle
 10
293.9625096040635
 20
111.4405524394188
 30
0.0
 40
1.0
100
AcDbArc
 50
0.0
 51
89.99999997328863
  0
LINE
  5
123D
330
1F
100
AcDbEntity
  8
0
100
AcDbLine
 10
314.0125095117121
 20
84.47805235742308
 30
0.0
 11
314.0125095117121
 21
31.47805235742309
 31
0.0
  0
LINE
  5
123E
330
1F
100
AcDbEntity
  8
0
100
AcDbLine
 10
314.0125095117121
 20
31.47805235742309
 30
0.0
 11
333.0625095117121
 21
31.47805235742308
 31
0.0
  0
CIRCLE
  5
123F
330
1F
100
AcDbEntity
  8
0
100
AcDbCircle
 10
256.3324457442056
 20
76.26084089220817
 30
0.0
 40
1.0
  0
CIRCLE
  5
1240
330
1F
100
AcDbEntity
  8
0
100
AcDbCircle
 10
294.4875095117121
 20
72.72255235742308
 30
0.0
 40
1.0
  0
LINE
  5
1241
330
1F
100
AcDbEntity
  8
0
100
AcDbLine
 10
316.012509511712
 20
91.47805235742309
 30
0.0
 11
316.012509511712
 21
111.15455231535
 31
0.0
  0
ARC
  5
1242
330
1F
100
AcDbEntity
  8
0
100
AcDbCircle
 10
317.012509511712
 20
91.47805235742309
 30
0.0
 40
1.0
100
AcDbArc
 50
180.0
 51
270.0
  0
LINE
  5
1243
330
1F
100
AcDbEntity
  8
0
100
AcDbLine
 10
333.0625095117121
 20
12.47805235742308
 30
0.0
 11
333.0625095117121
 21
88.47805235742308
 31
0.0
  0
LINE
  5
1244
330
1F
100
AcDbEntity
  8
0
100
AcDbLine
 10
335.062509511712
 20
10.47805235742308
 30
0.0
 11
335.062509511712
 21
89.47805235742308
 31
0.0
  0
ARC
  5
1245
330
1F
100
AcDbEntity
  8
0
100
AcDbCircle
 10
334.0625095117121
 20
89.47805235742308
 30
0.0
 40
1.0
100
AcDbArc
 50
0.0
 51
90.0
  0
ENDSEC
  0
SECTION
  2
OBJECTS
  0
DICTIONARY
  5
C
330
0
100
AcDbDictionary
281
     1
  3
ACAD_CIP_PREVIOUS_PRODUCT_INFO
350
69D
  3
ACAD_COLOR
350
4E1
  3
ACAD_DETAILVIEWSTYLE
350
697
  3
ACAD_GROUP
350
4E2
  3
ACAD_LAYOUT
350
4E3
  3
ACAD_MATERIAL
350
4E4
  3
ACAD_MLEADERSTYLE
350
4E5
  3
ACAD_MLINESTYLE
350
4E6
  3
ACAD_PLOTSETTINGS
350
4E7
  3
ACAD_PLOTSTYLENAME
350
4E9
  3
ACAD_SCALELIST
350
4EA
  3
ACAD_SECTIONVIEWSTYLE
350
695
  3
ACAD_TABLESTYLE
350
4EB
  3
ACAD_VISUALSTYLE
350
4EC
  3
ACDB_RECOMPOSE_DATA
350
124E
  3
AcDbVariableDictionary
350
6BD
  0
DICTIONARY
  5
6AB
330
2
100
AcDbDictionary
280
     1
281
     1
  3
ACAD_LAYERSTATES
360
6AC
  0
DICTIONARY
  5
882
330
1F
100
AcDbDictionary
280
     1
281
     1
  3
ACAD_SORTENTS
360
883
  0
DICTIONARY
  5
F00
330
EFB
100
AcDbDictionary
280
     1
281
     1
  3
ACAD_SORTENTS
360
F01
  0
XRECORD
  5
69D
102
{ACAD_REACTORS
330
C
102
}
330
C
100
AcDbXrecord
280
     1
300
ACD
300
2020
300
ACD_F_S
  0
DICTIONARY
  5
4E1
330
C
100
AcDbDictionary
281
     1
  0
DICTIONARY
  5
697
102
{ACAD_REACTORS
330
C
102
}
330
C
100
AcDbDictionary
281
     1
  3
Metric50
350
698
  0
DICTIONARY
  5
4E2
330
C
100
AcDbDictionary
281
     1
  0
DICTIONARY
  5
4E3
330
C
100
AcDbDictionary
281
     1
  3
Layout1
350
4EE
  3
Model
350
4ED
  0
DICTIONARY
  5
4E4
330
C
100
AcDbDictionary
281
     1
  3
ByBlock
350
659
  3
ByLayer
350
651
  3
Global
350
661
  0
DICTIONARY
  5
4E5
330
C
100
AcDbDictionary
281
     1
  3
Standard
350
694
  0
DICTIONARY
  5
4E6
330
C
100
AcDbDictionary
281
     1
  3
Standard
350
682
  0
DICTIONARY
  5
4E7
330
C
100
AcDbDictionary
281
     1
  0
ACDBDICTIONARYWDFLT
  5
4E9
330
C
100
AcDbDictionary
281
     1
  3
Normal
350
4E8
100
AcDbDictionaryWithDefault
340
4E8
  0
DICTIONARY
  5
4EA
330
C
100
AcDbDictionary
281
     1
  3
A0
350
683
  3
A1
350
684
  3
A2
350
685
  3
A3
350
686
  3
A4
350
687
  3
A5
350
688
  3
A6
350
689
  3
A7
350
68A
  3
A8
350
68B
  3
A9
350
68C
  3
B0
350
68D
  3
B1
350
68E
  3
B2
350
68F
  3
B3
350
690
  3
B4
350
691
  3
B5
350
692
  3
B6
350
693
  0
DICTIONARY
  5
695
102
{ACAD_REACTORS
330
C
102
}
330
C
100
AcDbDictionary
281
     1
  3
Metric50
350
696
  0
DICTIONARY
  5
4EB
330
C
100
AcDbDictionary
281
     1
  3
Standard
350
681
  0
DICTIONARY
  5
4EC
330
C
100
AcDbDictionary
281
     1
  3
2dWireframe
350
66E
  3
Basic
350
66D
  3
Brighten
350
674
  3
ColorChange
350
678
  3
Conceptual
350
671
  3
Dim
350
673
  3
EdgeColorOff
350
680
  3
Facepattern
350
677
  3
Flat
350
669
  3
FlatWithEdges
350
66A
  3
Gouraud
350
66B
  3
GouraudWithEdges
350
66C
  3
Hidden
350
670
  3
JitterOff
350
67E
  3
Linepattern
350
676
  3
OverhangOff
350
67F
  3
Realistic
350
672
  3
Shaded
350
67D
  3
Shaded with edges
350
67C
  3
Shades of Gray
350
679
  3
Sketchy
350
67A
  3
Thicken
350
675
  3
Wireframe
350
66F
  3
X-Ray
350
67B
  0
XRECORD
  5
124E
102
{ACAD_REACTORS
330
C
102
}
330
C
100
AcDbXrecord
280
     1
 90
        1
330
681
  0
DICTIONARY
  5
6BD
102
{ACAD_REACTORS
330
C
102
}
330
C
100
AcDbDictionary
281
     1
  3
CANNOSCALE
350
6C2
  3
CMLEADERSTYLE
350
6BF
  3
CTABLESTYLE
350
6BE
  3
CVIEWDETAILSTYLE
350
6C0
  3
CVIEWSECTIONSTYLE
350
6C1
  0
DICTIONARY
  5
6AC
102
{ACAD_REACTORS
330
6AB
102
}
330
6AB
100
AcDbDictionary
281
     1
  0
SORTENTSTABLE
  5
883
102
{ACAD_REACTORS
330
882
102
}
330
882
100
AcDbSortentsTable
330
1F
331
840
  5
855
331
855
  5
858
331
856
  5
85A
331
857
  5
85C
331
858
  5
85D
331
859
  5
85F
331
85A
  5
860
331
85B
  5
862
331
85C
  5
86B
331
85D
  5
86D
331
85E
  5
870
331
85F
  5
872
331
860
  5
874
331
861
  5
875
331
862
  5
877
331
863
  5
879
331
86B
  5
885
331
86C
  5
887
331
86D
  5
888
331
86E
  5
88B
331
86F
  5
88D
331
870
  5
88F
331
871
  5
891
331
872
  5
893
331
873
  5
895
331
874
  5
898
331
875
  5
89A
331
876
  5
89B
331
877
  5
89D
331
878
  5
89F
331
879
  5
8A1
331
881
  5
890
331
884
  5
840
331
885
  5
859
331
886
  5
892
331
887
  5
85B
331
888
  5
894
331
889
  5
897
331
88A
  5
896
331
88B
  5
85E
331
88C
  5
899
331
88D
  5
861
331
88E
  5
863
331
88F
  5
86C
331
890
  5
884
331
891
  5
881
331
892
  5
878
331
893
  5
89C
331
894
  5
876
331
895
  5
857
331
896
  5
856
331
897
  5
89E
331
898
  5
873
331
899
  5
8A0
331
89A
  5
871
331
89B
  5
8A2
331
89C
  5
86F
331
89D
  5
86E
331
89E
  5
886
331
89F
  5
88C
331
8A0
  5
88A
331
8A1
  5
889
331
8A2
  5
88E
  0
SORTENTSTABLE
  5
F01
102
{ACAD_REACTORS
330
F00
102
}
330
F00
100
AcDbSortentsTable
330
EFB
  0
ACDBDETAILVIEWSTYLE
  5
698
102
{ACAD_REACTORS
330
697
102
}
330
697
100
AcDbModelDocViewStyle
 70
     0
  3
Metric50
290
     0
300
Metric50
 90
        0
100
AcDbDetailViewStyle
 70
     0
 71
     0
 90
        3
 71
     1
340
11
 62
   256
 40
5.0
340
0
 62
   256
 40
5.0
300

 40
0.0
280
     1
 71
     2
340
16
 90
       25
 62
   256
 71
     3
340
11
 62
   256
 40
5.0
 90
        0
 40
15.0
 90
        1
300
%<\AcVar ViewDetailId>% (%<\AcVar ViewScale \f "%sn">%)
 71
     4
340
16
 90
       25
 62
   256
340
16
 90
       25
 62
   256
280
     0
  0
LAYOUT
  5
4EE
330
4E3
100
AcDbPlotSettings
  1

  2
DWFx ePlot (XPS Compatible).pc3
  4
ANSI_A_(8.50_x_11.00_Inches)
  6

 40
5.799999999999998
 41
17.8
 42
5.799999999999998
 43
17.8
 44
215.9
 45
279.4
 46
0.0
 47
0.0
 48
0.0
 49
0.0
140
0.0
141
0.0
142
1.0
143
1.0
 70
   688
 72
     0
 73
     1
 74
     5
  7
acad.ctb
 75
    16
147
1.0
 76
     0
 77
     2
 78
   300
148
0.0
149
0.0
100
AcDbLayout
  1
Layout1
 70
     1
 71
     1
 10
-0.7005418191744587
 20
-0.2281003861915408
 11
10.29945794052965
 21
8.271899373512571
 12
0.0
 22
0.0
 32
0.0
 14
0.6288667663970601
 24
0.7999999523162842
 34
0.0
 15
9.028866384927335
 25
7.199999570846557
 35
0.0
146
0.0
 13
0.0
 23
0.0
 33
0.0
 16
1.0
 26
0.0
 36
0.0
 17
0.0
 27
1.0
 37
0.0
 76
     0
330
58
  0
LAYOUT
  5
4ED
330
4E3
100
AcDbPlotSettings
  1

  2
DWFx ePlot (XPS Compatible).pc3
  4
ANSI_A_(8.50_x_11.00_Inches)
  6

 40
5.799999999999998
 41
17.8
 42
5.799999999999998
 43
17.8
 44
215.9
 45
279.4
 46
0.0
 47
0.0
 48
0.0
 49
0.0
140
0.0
141
0.0
142
1.0
143
14.53
 70
 11952
 72
     0
 73
     1
 74
     0
  7

 75
     0
147
0.069
 76
     0
 77
     2
 78
   300
148
114.98
149
300.29
100
AcDbLayout
  1
Model
 70
     1
 71
     0
 10
0.0
 20
0.0
 11
12.0
 21
9.0
 12
0.0
 22
0.0
 32
0.0
 14
0.0
 24
0.0
 34
0.0
 15
0.0
 25
0.0
 35
0.0
146
0.0
 13
0.0
 23
0.0
 33
0.0
 16
1.0
 26
0.0
 36
0.0
 17
0.0
 27
1.0
 37
0.0
 76
     0
330
1F
331
69C
  0
MATERIAL
  5
659
102
{ACAD_XDICTIONARY
360
65A
102
}
102
{ACAD_REACTORS
330
4E4
102
}
330
4E4
100
AcDbMaterial
  1
ByBlock
 72
     0
 43
0.0008202099737533
 43
0.0
 43
0.0
 43
0.0
 43
0.0
 43
0.0008202099737533
 43
0.0
 43
0.0
 43
0.0
 43
0.0
 43
1.0
 43
0.0
 43
0.0
 43
0.0
 43
0.0
 43
1.0
 77
     0
 47
0.0008202099737533
 47
0.0
 47
0.0
 47
0.0
 47
0.0
 47
0.0008202099737533
 47
0.0
 47
0.0
 47
0.0
 47
0.0
 47
1.0
 47
0.0
 47
0.0
 47
0.0
 47
0.0
 47
1.0
171
     0
 49
0.0008202099737533
 49
0.0
 49
0.0
 49
0.0
 49
0.0
 49
0.0008202099737533
 49
0.0
 49
0.0
 49
0.0
 49
0.0
 49
1.0
 49
0.0
 49
0.0
 49
0.0
 49
0.0
 49
1.0
175
     0
142
0.0008202099737533
142
0.0
142
0.0
142
0.0
142
0.0
142
0.0008202099737533
142
0.0
142
0.0
142
0.0
142
0.0
142
1.0
142
0.0
142
0.0
142
0.0
142
0.0
142
1.0
179
     0
144
0.0008202099737533
144
0.0
144
0.0
144
0.0
144
0.0
144
0.0008202099737533
144
0.0
144
0.0
144
0.0
144
0.0
144
1.0
144
0.0
144
0.0
144
0.0
144
0.0
144
1.0
147
0.0008202099737533
147
0.0
147
0.0
147
0.0
147
0.0
147
0.0008202099737533
147
0.0
147
0.0
147
0.0
147
0.0
147
1.0
147
0.0
147
0.0
147
0.0
147
0.0
147
1.0
  0
MATERIAL
  5
651
102
{ACAD_XDICTIONARY
360
652
102
}
102
{ACAD_REACTORS
330
4E4
102
}
330
4E4
100
AcDbMaterial
  1
ByLayer
 72
     0
 43
0.0008202099737533
 43
0.0
 43
0.0
 43
0.0
 43
0.0
 43
0.0008202099737533
 43
0.0
 43
0.0
 43
0.0
 43
0.0
 43
1.0
 43
0.0
 43
0.0
 43
0.0
 43
0.0
 43
1.0
 77
     0
 47
0.0008202099737533
 47
0.0
 47
0.0
 47
0.0
 47
0.0
 47
0.0008202099737533
 47
0.0
 47
0.0
 47
0.0
 47
0.0
 47
1.0
 47
0.0
 47
0.0
 47
0.0
 47
0.0
 47
1.0
171
     0
 49
0.0008202099737533
 49
0.0
 49
0.0
 49
0.0
 49
0.0
 49
0.0008202099737533
 49
0.0
 49
0.0
 49
0.0
 49
0.0
 49
1.0
 49
0.0
 49
0.0
 49
0.0
 49
0.0
 49
1.0
175
     0
142
0.0008202099737533
142
0.0
142
0.0
142
0.0
142
0.0
142
0.0008202099737533
142
0.0
142
0.0
142
0.0
142
0.0
142
1.0
142
0.0
142
0.0
142
0.0
142
0.0
142
1.0
179
     0
144
0.0008202099737533
144
0.0
144
0.0
144
0.0
144
0.0
144
0.0008202099737533
144
0.0
144
0.0
144
0.0
144
0.0
144
1.0
144
0.0
144
0.0
144
0.0
144
0.0
144
1.0
147
0.0008202099737533
147
0.0
147
0.0
147
0.0
147
0.0
147
0.0008202099737533
147
0.0
147
0.0
147
0.0
147
0.0
147
1.0
147
0.0
147
0.0
147
0.0
147
0.0
147
1.0
  0
MATERIAL
  5
661
102
{ACAD_XDICTIONARY
360
662
102
}
102
{ACAD_REACTORS
330
4E4
102
}
330
4E4
100
AcDbMaterial
  1
Global
 72
     0
 43
0.0008202099737533
 43
0.0
 43
0.0
 43
0.0
 43
0.0
 43
0.0008202099737533
 43
0.0
 43
0.0
 43
0.0
 43
0.0
 43
1.0
 43
0.0
 43
0.0
 43
0.0
 43
0.0
 43
1.0
 77
     0
 47
0.0008202099737533
 47
0.0
 47
0.0
 47
0.0
 47
0.0
 47
0.0008202099737533
 47
0.0
 47
0.0
 47
0.0
 47
0.0
 47
1.0
 47
0.0
 47
0.0
 47
0.0
 47
0.0
 47
1.0
171
     0
 49
0.0008202099737533
 49
0.0
 49
0.0
 49
0.0
 49
0.0
 49
0.0008202099737533
 49
0.0
 49
0.0
 49
0.0
 49
0.0
 49
1.0
 49
0.0
 49
0.0
 49
0.0
 49
0.0
 49
1.0
175
     0
142
0.0008202099737533
142
0.0
142
0.0
142
0.0
142
0.0
142
0.0008202099737533
142
0.0
142
0.0
142
0.0
142
0.0
142
1.0
142
0.0
142
0.0
142
0.0
142
0.0
142
1.0
179
     0
144
0.0008202099737533
144
0.0
144
0.0
144
0.0
144
0.0
144
0.0008202099737533
144
0.0
144
0.0
144
0.0
144
0.0
144
1.0
144
0.0
144
0.0
144
0.0
144
0.0
144
1.0
147
0.0008202099737533
147
0.0
147
0.0
147
0.0
147
0.0
147
0.0008202099737533
147
0.0
147
0.0
147
0.0
147
0.0
147
1.0
147
0.0
147
0.0
147
0.0
147
0.0
147
1.0
  0
MLEADERSTYLE
  5
694
102
{ACAD_REACTORS
330
4E5
102
}
330
4E5
100
AcDbMLeaderStyle
179
     2
170
     2
171
     1
172
     0
 90
        2
 40
0.0
 41
0.0
173
     1
 91
-1056964608
340
14
 92
       -2
290
     1
 42
2.0
291
     1
 43
0.36
  3
Standard
 44
4.0
300

342
11
174
     1
178
     6
175
     1
176
     0
 93
-1056964608
 45
4.0
292
     0
297
     0
 46
4.0
 94
-1056964608
 47
1.0
 49
1.0
140
1.0
293
     1
141
0.0
294
     1
177
     0
142
1.0
295
     0
296
     0
143
0.125
271
     0
272
     9
273
     9
298
     0
  0
MLINESTYLE
  5
682
102
{ACAD_REACTORS
330
4E6
102
}
330
4E6
100
AcDbMlineStyle
  2
STANDARD
 70
     0
  3

 62
   256
 51
90.0
 52
90.0
 71
     2
 49
0.5
 62
   256
  6
BYLAYER
 49
-0.5
 62
   256
  6
BYLAYER
  0
ACDBPLACEHOLDER
  5
4E8
330
4E9
  0
SCALE
  5
683
102
{ACAD_REACTORS
330
4EA
102
}
330
4EA
100
AcDbScale
 70
     0
300
1:1
140
1.0
141
1.0
290
     1
  0
SCALE
  5
684
102
{ACAD_REACTORS
330
4EA
102
}
330
4EA
100
AcDbScale
 70
     0
300
1:2
140
1.0
141
2.0
290
     0
  0
SCALE
  5
685
102
{ACAD_REACTORS
330
4EA
102
}
330
4EA
100
AcDbScale
 70
     0
300
1:4
140
1.0
141
4.0
290
     0
  0
SCALE
  5
686
102
{ACAD_REACTORS
330
4EA
102
}
330
4EA
100
AcDbScale
 70
     0
300
1:5
140
1.0
141
5.0
290
     0
  0
SCALE
  5
687
102
{ACAD_REACTORS
330
4EA
102
}
330
4EA
100
AcDbScale
 70
     0
300
1:8
140
1.0
141
8.0
290
     0
  0
SCALE
  5
688
102
{ACAD_REACTORS
330
4EA
102
}
330
4EA
100
AcDbScale
 70
     0
300
1:10
140
1.0
141
10.0
290
     0
  0
SCALE
  5
689
102
{ACAD_REACTORS
330
4EA
102
}
330
4EA
100
AcDbScale
 70
     0
300
1:16
140
1.0
141
16.0
290
     0
  0
SCALE
  5
68A
102
{ACAD_REACTORS
330
4EA
102
}
330
4EA
100
AcDbScale
 70
     0
300
1:20
140
1.0
141
20.0
290
     0
  0
SCALE
  5
68B
102
{ACAD_REACTORS
330
4EA
102
}
330
4EA
100
AcDbScale
 70
     0
300
1:30
140
1.0
141
30.0
290
     0
  0
SCALE
  5
68C
102
{ACAD_REACTORS
330
4EA
102
}
330
4EA
100
AcDbScale
 70
     0
300
1:40
140
1.0
141
40.0
290
     0
  0
SCALE
  5
68D
102
{ACAD_REACTORS
330
4EA
102
}
330
4EA
100
AcDbScale
 70
     0
300
1:50
140
1.0
141
50.0
290
     0
  0
SCALE
  5
68E
102
{ACAD_REACTORS
330
4EA
102
}
330
4EA
100
AcDbScale
 70
     0
300
1:100
140
1.0
141
100.0
290
     0
  0
SCALE
  5
68F
102
{ACAD_REACTORS
330
4EA
102
}
330
4EA
100
AcDbScale
 70
     0
300
2:1
140
2.0
141
1.0
290
     0
  0
SCALE
  5
690
102
{ACAD_REACTORS
330
4EA
102
}
330
4EA
100
AcDbScale
 70
     0
300
4:1
140
4.0
141
1.0
290
     0
  0
SCALE
  5
691
102
{ACAD_REACTORS
330
4EA
102
}
330
4EA
100
AcDbScale
 70
     0
300
8:1
140
8.0
141
1.0
290
     0
  0
SCALE
  5
692
102
{ACAD_REACTORS
330
4EA
102
}
330
4EA
100
AcDbScale
 70
     0
300
10:1
140
10.0
141
1.0
290
     0
  0
SCALE
  5
693
102
{ACAD_REACTORS
330
4EA
102
}
330
4EA
100
AcDbScale
 70
     0
300
100:1
140
100.0
141
1.0
290
     0
  0
ACDBSECTIONVIEWSTYLE
  5
696
102
{ACAD_REACTORS
330
695
102
}
330
695
100
AcDbModelDocViewStyle
 70
     0
  3
Metric50
290
     0
300
Metric50
 90
        0
100
AcDbSectionViewStyle
 70
     0
 71
     0
 90
      102
 71
     1
340
11
 62
   256
 40
5.0
340
0
340
0
 62
   256
 40
5.0
300
I, O, Q, S, X, Z
 40
10.0
 90
        0
 40
2.5
 90
        0
 71
     2
340
16
 90
       25
 62
   256
340
16
 90
       50
 62
   256
 40
5.0
 40
2.5
 40
5.0
 71
     3
340
11
 62
   256
 40
5.0
 90
        0
 40
15.0
 90
        1
300
%<\AcVar ViewSectionStartId>%-%<\AcVar ViewSectionEndId>% (%<\AcVar ViewScale \f "%sn">%)
 71
     4
 62
   256
 62
   257
300
ANSI31
 40
1.0
 90
        0
290
     0
290
     0
 90
        6
 40
0.0
 40
1.570796326794896
 40
0.2617993877991494
 40
1.308996938995747
 40
-0.2617993877991494
 40
1.832595714594045
  0
TABLESTYLE
  5
681
102
{ACAD_XDICTIONARY
360
8D9
102
}
102
{ACAD_REACTORS
330
4EB
102
}
330
4EB
100
AcDbTableStyle
280
     0
  3
Standard
 70
     0
 71
     0
 40
1.5
 41
1.5
280
     0
281
     0
  7
Standard
140
4.5
170
     2
 62
     0
 63
     7
283
     0
 90
      512
 91
        0
  1

274
    -2
284
     1
 64
     0
275
    -2
285
     1
 65
     0
276
    -2
286
     1
 66
     0
277
    -2
287
     1
 67
     0
278
    -2
288
     1
 68
     0
279
    -2
289
     1
 69
     0
  7
Standard
140
6.0
170
     5
 62
     0
 63
     7
283
     0
 90
      512
 91
        0
  1

274
    -2
284
     1
 64
     0
275
    -2
285
     1
 65
     0
276
    -2
286
     1
 66
     0
277
    -2
287
     1
 67
     0
278
    -2
288
     1
 68
     0
279
    -2
289
     1
 69
     0
  7
Standard
140
4.5
170
     5
 62
     0
 63
     7
283
     0
 90
      512
 91
        0
  1

274
    -2
284
     1
 64
     0
275
    -2
285
     1
 65
     0
276
    -2
286
     1
 66
     0
277
    -2
287
     1
 67
     0
278
    -2
288
     1
 68
     0
279
    -2
289
     1
 69
     0
  0
VISUALSTYLE
  5
66E
102
{ACAD_REACTORS
330
4EC
102
}
330
4EC
100
AcDbVisualStyle
  2
2dWireframe
 70
     4
177
     3
291
     0
 70
    58
 90
        0
176
     1
 90
        2
176
     1
 90
        0
176
     1
 90
        0
176
     1
 40
0.6
176
     1
 40
30.0
176
     1
 62
     7
420
 16777215
176
     1
 90
        1
176
     1
 90
        4
176
     1
 62
     7
176
     1
 62
   257
176
     1
 90
        1
176
     1
 90
        1
176
     1
 40
1.0
176
     1
 90
        0
176
     1
 62
   257
176
     1
 40
1.0
176
     1
 90
        1
176
     1
 90
        6
176
     1
 90
        2
176
     1
 62
     7
176
     1
 90
        5
176
     1
 90
        0
176
     1
 90
        0
176
     1
290
     0
176
     1
 90
        1
176
     1
 40
0.0
176
     1
 90
        0
176
     1
290
     1
176
     1
290
     1
176
     1
290
     0
176
     1
290
     0
176
     1
290
     0
176
     1
290
     0
176
     1
290
     0
176
     1
290
     0
176
     1
290
     0
176
     1
 90
       50
176
     1
 40
0.0
176
     1
 40
1.0
176
     1
 90
        0
176
     1
 62
    18
176
     1
 90
       50
176
     1
 90
        3
176
     1
 62
     5
420
      255
176
     1
290
     0
176
     1
 90
       50
176
     1
 90
       50
176
     1
 90
       50
176
     1
290
     0
176
     1
 90
       50
176
     1
 62
   256
176
     0
 40
1.0
176
     0
 90
        2
176
     1
  1
strokes_ogs.tif
176
     1
290
     0
176
     1
 40
1.0
176
     1
 40
1.0
176
     1
  0
VISUALSTYLE
  5
66D
102
{ACAD_REACTORS
330
4EC
102
}
330
4EC
100
AcDbVisualStyle
  2
Basic
 70
     7
177
     3
291
     1
 70
    58
 90
        1
176
     1
 90
        0
176
     1
 90
        1
176
     1
 90
        0
176
     1
 40
0.6
176
     1
 40
30.0
176
     1
 62
     7
420
 16777215
176
     1
 90
        0
176
     1
 90
        4
176
     1
 62
     7
176
     1
 62
   257
176
     1
 90
        1
176
     1
 90
        1
176
     1
 40
1.0
176
     1
 90
        8
176
     1
 62
     7
176
     1
 40
1.0
176
     1
 90
        1
176
     1
 90
        6
176
     1
 90
        2
176
     1
 62
     7
176
     1
 90
        5
176
     1
 90
        0
176
     1
 90
        0
176
     1
290
     0
176
     1
 90
        1
176
     1
 40
0.0
176
     1
 90
        0
176
     1
290
     0
176
     1
290
     1
176
     1
290
     1
176
     1
290
     0
176
     1
290
     0
176
     1
290
     0
176
     1
290
     0
176
     1
290
     0
176
     1
290
     0
176
     1
 90
       50
176
     1
 40
0.0
176
     1
 40
1.0
176
     1
 90
        0
176
     1
 62
    18
176
     1
 90
       50
176
     1
 90
        3
176
     1
 62
     5
420
      255
176
     1
290
     0
176
     1
 90
       50
176
     1
 90
       50
176
     1
 90
       50
176
     1
290
     0
176
     1
 90
       50
176
     1
 62
   256
176
     0
 40
1.0
176
     0
 90
        2
176
     1
  1
strokes_ogs.tif
176
     1
290
     0
176
     1
 40
1.0
176
     1
 40
1.0
176
     1
  0
VISUALSTYLE
  5
674
102
{ACAD_REACTORS
330
4EC
102
}
330
4EC
100
AcDbVisualStyle
  2
Brighten
 70
    12
177
     3
291
     1
 70
    58
 90
        2
176
     1
 90
        2
176
     1
 90
        0
176
     1
 90
        0
176
     1
 40
0.6
176
     1
 40
30.0
176
     1
 62
     7
420
 16777215
176
     1
 90
        1
176
     1
 90
        4
176
     1
 62
     7
176
     1
 62
   257
176
     1
 90
        1
176
     1
 90
        1
176
     1
 40
1.0
176
     1
 90
        8
176
     1
 62
     7
176
     1
 40
1.0
176
     1
 90
        1
176
     1
 90
        6
176
     1
 90
        2
176
     1
 62
     7
176
     1
 90
        5
176
     1
 90
        0
176
     1
 90
        0
176
     1
290
     0
176
     1
 90
        1
176
     1
 40
50.0
176
     1
 90
        0
176
     1
290
     0
176
     1
290
     1
176
     1
290
     1
176
     1
290
     0
176
     1
290
     0
176
     1
290
     0
176
     1
290
     0
176
     1
290
     0
176
     1
290
     0
176
     1
 90
       50
176
     1
 40
0.0
176
     1
 40
1.0
176
     1
 90
        0
176
     1
 62
    18
176
     1
 90
       50
176
     1
 90
        3
176
     1
 62
     5
420
      255
176
     1
290
     0
176
     1
 90
       50
176
     1
 90
       50
176
     1
 90
       50
176
     1
290
     0
176
     1
 90
       50
176
     1
 62
   256
176
     0
 40
1.0
176
     0
 90
        2
176
     1
  1
strokes_ogs.tif
176
     1
290
     0
176
     1
 40
1.0
176
     1
 40
1.0
176
     1
  0
VISUALSTYLE
  5
678
102
{ACAD_REACTORS
330
4EC
102
}
330
4EC
100
AcDbVisualStyle
  2
ColorChange
 70
    16
177
     3
291
     1
 70
    58
 90
        2
176
     1
 90
        2
176
     1
 90
        3
176
     1
 90
        0
176
     1
 40
0.6
176
     1
 40
30.0
176
     1
 62
     8
420
  8421504
176
     1
 90
        1
176
     1
 90
        4
176
     1
 62
     7
176
     1
 62
   257
176
     1
 90
        1
176
     1
 90
        1
176
     1
 40
1.0
176
     1
 90
        8
176
     1
 62
     8
420
  8421504
176
     1
 40
1.0
176
     1
 90
        1
176
     1
 90
        6
176
     1
 90
        2
176
     1
 62
     7
176
     1
 90
        5
176
     1
 90
        0
176
     1
 90
        0
176
     1
290
     0
176
     1
 90
        1
176
     1
 40
0.0
176
     1
 90
        0
176
     1
290
     0
176
     1
290
     1
176
     1
290
     1
176
     1
290
     0
176
     1
290
     0
176
     1
290
     0
176
     1
290
     0
176
     1
290
     0
176
     1
290
     0
176
     1
 90
       50
176
     1
 40
0.0
176
     1
 40
1.0
176
     1
 90
        0
176
     1
 62
    18
176
     1
 90
       50
176
     1
 90
        3
176
     1
 62
     5
420
      255
176
     1
290
     0
176
     1
 90
       50
176
     1
 90
       50
176
     1
 90
       50
176
     1
290
     0
176
     1
 90
       50
176
     1
 62
   256
176
     0
 40
1.0
176
     0
 90
        2
176
     1
  1
strokes_ogs.tif
176
     1
290
     0
176
     1
 40
1.0
176
     1
 40
1.0
176
     1
  0
VISUALSTYLE
  5
671
102
{ACAD_REACTORS
330
4EC
102
}
330
4EC
100
AcDbVisualStyle
  2
Conceptual
 70
     9
177
     3
291
     0
 70
    58
 90
        3
176
     1
 90
        2
176
     1
 90
        0
176
     1
 90
        0
176
     1
 40
0.6
176
     1
 40
30.0
176
     1
 62
     7
420
 16777215
176
     1
 90
        2
176
     1
 90
        2
176
     1
 62
     7
176
     1
 62
   257
176
     1
 90
        1
176
     1
 90
        1
176
     1
 40
179.0
176
     1
 90
        8
176
     1
 62
     7
176
     1
 40
1.0
176
     1
 90
        1
176
     1
 90
        6
176
     1
 90
        2
176
     1
 62
     7
176
     1
 90
        3
176
     1
 90
        0
176
     1
 90
        0
176
     1
290
     0
176
     1
 90
        1
176
     1
 40
0.0
176
     1
 90
        0
176
     1
290
     0
176
     1
290
     1
176
     1
290
     1
176
     1
290
     0
176
     1
290
     0
176
     1
290
     0
176
     1
290
     0
176
     1
290
     0
176
     1
290
     0
176
     1
 90
       50
176
     1
 40
0.0
176
     1
 40
1.0
176
     1
 90
        0
176
     1
 62
    18
176
     1
 90
       50
176
     1
 90
        3
176
     1
 62
     5
420
      255
176
     1
290
     0
176
     1
 90
       50
176
     1
 90
       50
176
     1
 90
       50
176
     1
290
     0
176
     1
 90
       50
176
     1
 62
   256
176
     0
 40
1.0
176
     0
 90
        2
176
     1
  1
strokes_ogs.tif
176
     1
290
     0
176
     1
 40
1.0
176
     1
 40
1.0
176
     1
  0
VISUALSTYLE
  5
673
102
{ACAD_REACTORS
330
4EC
102
}
330
4EC
100
AcDbVisualStyle
  2
Dim
 70
    11
177
     3
291
     1
 70
    58
 90
        2
176
     1
 90
        2
176
     1
 90
        0
176
     1
 90
        0
176
     1
 40
0.6
176
     1
 40
30.0
176
     1
 62
     7
420
 16777215
176
     1
 90
        1
176
     1
 90
        4
176
     1
 62
     7
176
     1
 62
   257
176
     1
 90
        1
176
     1
 90
        1
176
     1
 40
1.0
176
     1
 90
        8
176
     1
 62
     7
176
     1
 40
1.0
176
     1
 90
        1
176
     1
 90
        6
176
     1
 90
        2
176
     1
 62
     7
176
     1
 90
        5
176
     1
 90
        0
176
     1
 90
        0
176
     1
290
     0
176
     1
 90
        1
176
     1
 40
-50.0
176
     1
 90
        0
176
     1
290
     0
176
     1
290
     1
176
     1
290
     1
176
     1
290
     0
176
     1
290
     0
176
     1
290
     0
176
     1
290
     0
176
     1
290
     0
176
     1
290
     0
176
     1
 90
       50
176
     1
 40
0.0
176
     1
 40
1.0
176
     1
 90
        0
176
     1
 62
    18
176
     1
 90
       50
176
     1
 90
        3
176
     1
 62
     5
420
      255
176
     1
290
     0
176
     1
 90
       50
176
     1
 90
       50
176
     1
 90
       50
176
     1
290
     0
176
     1
 90
       50
176
     1
 62
   256
176
     0
 40
1.0
176
     0
 90
        2
176
     1
  1
strokes_ogs.tif
176
     1
290
     0
176
     1
 40
1.0
176
     1
 40
1.0
176
     1
  0
VISUALSTYLE
  5
680
102
{ACAD_REACTORS
330
4EC
102
}
330
4EC
100
AcDbVisualStyle
  2
EdgeColorOff
 70
    22
177
     3
291
     1
 70
    58
 90
        2
176
     0
 90
        2
176
     0
 90
        0
176
     0
 90
        0
176
     0
 40
0.6
176
     0
 40
30.0
176
     0
 62
     7
420
 16777215
176
     0
 90
        1
176
     0
 90
        4
176
     0
 62
     7
176
     0
 62
   257
176
     0
 90
        1
176
     0
 90
        1
176
     0
 40
1.0
176
     0
 90
        8
176
     2
 62
     7
176
     0
 40
1.0
176
     0
 90
        1
176
     0
 90
        6
176
     0
 90
        2
176
     0
 62
     7
176
     0
 90
        5
176
     0
 90
        0
176
     0
 90
        0
176
     0
290
     0
176
     0
 90
        1
176
     0
 40
0.0
176
     0
 90
        0
176
     0
290
     0
176
     1
290
     1
176
     1
290
     1
176
     1
290
     0
176
     1
290
     0
176
     1
290
     0
176
     1
290
     0
176
     1
290
     0
176
     1
290
     0
176
     1
 90
       50
176
     0
 40
0.0
176
     0
 40
1.0
176
     0
 90
        0
176
     0
 62
    18
176
     0
 90
       50
176
     0
 90
        3
176
     0
 62
     5
420
      255
176
     0
290
     0
176
     1
 90
       50
176
     0
 90
       50
176
     0
 90
       50
176
     0
290
     0
176
     1
 90
       50
176
     0
 62
   256
176
     0
 40
1.0
176
     0
 90
        2
176
     0
  1
strokes_ogs.tif
176
     0
290
     0
176
     1
 40
1.0
176
     0
 40
1.0
176
     0
  0
VISUALSTYLE
  5
677
102
{ACAD_REACTORS
330
4EC
102
}
330
4EC
100
AcDbVisualStyle
  2
Facepattern
 70
    15
177
     3
291
     1
 70
    58
 90
        2
176
     1
 90
        2
176
     1
 90
        0
176
     1
 90
        0
176
     1
 40
0.6
176
     1
 40
30.0
176
     1
 62
     7
420
 16777215
176
     1
 90
        1
176
     1
 90
        4
176
     1
 62
     7
176
     1
 62
   257
176
     1
 90
        1
176
     1
 90
        1
176
     1
 40
1.0
176
     1
 90
        8
176
     1
 62
     7
176
     1
 40
1.0
176
     1
 90
        1
176
     1
 90
        6
176
     1
 90
        2
176
     1
 62
     7
176
     1
 90
        5
176
     1
 90
        0
176
     1
 90
        0
176
     1
290
     0
176
     1
 90
        1
176
     1
 40
0.0
176
     1
 90
        0
176
     1
290
     0
176
     1
290
     1
176
     1
290
     1
176
     1
290
     0
176
     1
290
     0
176
     1
290
     0
176
     1
290
     0
176
     1
290
     0
176
     1
290
     0
176
     1
 90
       50
176
     1
 40
0.0
176
     1
 40
1.0
176
     1
 90
        0
176
     1
 62
    18
176
     1
 90
       50
176
     1
 90
        3
176
     1
 62
     5
420
      255
176
     1
290
     0
176
     1
 90
       50
176
     1
 90
       50
176
     1
 90
       50
176
     1
290
     0
176
     1
 90
       50
176
     1
 62
   256
176
     0
 40
1.0
176
     0
 90
        2
176
     1
  1
strokes_ogs.tif
176
     1
290
     0
176
     1
 40
1.0
176
     1
 40
1.0
176
     1
  0
VISUALSTYLE
  5
669
102
{ACAD_REACTORS
330
4EC
102
}
330
4EC
100
AcDbVisualStyle
  2
Flat
 70
     0
177
     3
291
     1
 70
    58
 90
        2
176
     1
 90
        1
176
     1
 90
        1
176
     1
 90
        2
176
     1
 40
0.6
176
     1
 40
30.0
176
     1
 62
     7
420
 16777215
176
     1
 90
        0
176
     1
 90
        0
176
     1
 62
     7
176
     1
 62
   257
176
     1
 90
        1
176
     1
 90
        1
176
     1
 40
1.0
176
     1
 90
        8
176
     1
 62
     7
176
     1
 40
1.0
176
     1
 90
        1
176
     1
 90
        6
176
     1
 90
        2
176
     1
 62
     7
176
     1
 90
        5
176
     1
 90
        0
176
     1
 90
        0
176
     1
290
     0
176
     1
 90
       13
176
     1
 40
0.0
176
     1
 90
        0
176
     1
290
     0
176
     1
290
     1
176
     1
290
     1
176
     1
290
     0
176
     1
290
     0
176
     1
290
     0
176
     1
290
     0
176
     1
290
     0
176
     1
290
     0
176
     1
 90
       50
176
     1
 40
0.0
176
     1
 40
1.0
176
     1
 90
        0
176
     1
 62
    18
176
     1
 90
       50
176
     1
 90
        3
176
     1
 62
     5
420
      255
176
     1
290
     0
176
     1
 90
       50
176
     1
 90
       50
176
     1
 90
       50
176
     1
290
     0
176
     1
 90
       50
176
     1
 62
   256
176
     0
 40
1.0
176
     0
 90
        2
176
     1
  1
strokes_ogs.tif
176
     1
290
     0
176
     1
 40
1.0
176
     1
 40
1.0
176
     1
  0
VISUALSTYLE
  5
66A
102
{ACAD_REACTORS
330
4EC
102
}
330
4EC
100
AcDbVisualStyle
  2
FlatWithEdges
 70
     1
177
     3
291
     1
 70
    58
 90
        2
176
     1
 90
        1
176
     1
 90
        1
176
     1
 90
        2
176
     1
 40
0.6
176
     1
 40
30.0
176
     1
 62
     7
420
 16777215
176
     1
 90
        1
176
     1
 90
        0
176
     1
 62
     7
176
     1
 62
   257
176
     1
 90
        1
176
     1
 90
        1
176
     1
 40
1.0
176
     1
 90
        0
176
     1
 62
   257
176
     1
 40
1.0
176
     1
 90
        1
176
     1
 90
        6
176
     1
 90
        2
176
     1
 62
     7
176
     1
 90
        5
176
     1
 90
        0
176
     1
 90
        0
176
     1
290
     0
176
     1
 90
       13
176
     1
 40
0.0
176
     1
 90
        0
176
     1
290
     0
176
     1
290
     1
176
     1
290
     1
176
     1
290
     0
176
     1
290
     0
176
     1
290
     0
176
     1
290
     0
176
     1
290
     0
176
     1
290
     0
176
     1
 90
       50
176
     1
 40
0.0
176
     1
 40
1.0
176
     1
 90
        0
176
     1
 62
    18
176
     1
 90
       50
176
     1
 90
        3
176
     1
 62
     5
420
      255
176
     1
290
     0
176
     1
 90
       50
176
     1
 90
       50
176
     1
 90
       50
176
     1
290
     0
176
     1
 90
       50
176
     1
 62
   256
176
     0
 40
1.0
176
     0
 90
        2
176
     1
  1
strokes_ogs.tif
176
     1
290
     0
176
     1
 40
1.0
176
     1
 40
1.0
176
     1
  0
VISUALSTYLE
  5
66B
102
{ACAD_REACTORS
330
4EC
102
}
330
4EC
100
AcDbVisualStyle
  2
Gouraud
 70
     2
177
     3
291
     1
 70
    58
 90
        2
176
     1
 90
        2
176
     1
 90
        1
176
     1
 90
        2
176
     1
 40
0.6
176
     1
 40
30.0
176
     1
 62
     7
420
 16777215
176
     1
 90
        0
176
     1
 90
        0
176
     1
 62
     7
176
     1
 62
   257
176
     1
 90
        1
176
     1
 90
        1
176
     1
 40
1.0
176
     1
 90
        0
176
     1
 62
     7
176
     1
 40
1.0
176
     1
 90
        1
176
     1
 90
        6
176
     1
 90
        2
176
     1
 62
     7
176
     1
 90
        5
176
     1
 90
        0
176
     1
 90
        0
176
     1
290
     0
176
     1
 90
       13
176
     1
 40
0.0
176
     1
 90
        0
176
     1
290
     0
176
     1
290
     1
176
     1
290
     1
176
     1
290
     0
176
     1
290
     0
176
     1
290
     0
176
     1
290
     0
176
     1
290
     0
176
     1
290
     0
176
     1
 90
       50
176
     1
 40
0.0
176
     1
 40
1.0
176
     1
 90
        0
176
     1
 62
    18
176
     1
 90
       50
176
     1
 90
        3
176
     1
 62
     5
420
      255
176
     1
290
     0
176
     1
 90
       50
176
     1
 90
       50
176
     1
 90
       50
176
     1
290
     0
176
     1
 90
       50
176
     1
 62
   256
176
     0
 40
1.0
176
     0
 90
        2
176
     1
  1
strokes_ogs.tif
176
     1
290
     0
176
     1
 40
1.0
176
     1
 40
1.0
176
     1
  0
VISUALSTYLE
  5
66C
102
{ACAD_REACTORS
330
4EC
102
}
330
4EC
100
AcDbVisualStyle
  2
GouraudWithEdges
 70
     3
177
     3
291
     1
 70
    58
 90
        2
176
     1
 90
        2
176
     1
 90
        1
176
     1
 90
        2
176
     1
 40
0.6
176
     1
 40
30.0
176
     1
 62
     7
420
 16777215
176
     1
 90
        1
176
     1
 90
        0
176
     1
 62
     7
176
     1
 62
   257
176
     1
 90
        1
176
     1
 90
        1
176
     1
 40
1.0
176
     1
 90
        0
176
     1
 62
   257
176
     1
 40
1.0
176
     1
 90
        1
176
     1
 90
        6
176
     1
 90
        2
176
     1
 62
     7
176
     1
 90
        5
176
     1
 90
        0
176
     1
 90
        0
176
     1
290
     0
176
     1
 90
       13
176
     1
 40
0.0
176
     1
 90
        0
176
     1
290
     0
176
     1
290
     1
176
     1
290
     1
176
     1
290
     0
176
     1
290
     0
176
     1
290
     0
176
     1
290
     0
176
     1
290
     0
176
     1
290
     0
176
     1
 90
       50
176
     1
 40
0.0
176
     1
 40
1.0
176
     1
 90
        0
176
     1
 62
    18
176
     1
 90
       50
176
     1
 90
        3
176
     1
 62
     5
420
      255
176
     1
290
     0
176
     1
 90
       50
176
     1
 90
       50
176
     1
 90
       50
176
     1
290
     0
176
     1
 90
       50
176
     1
 62
   256
176
     0
 40
1.0
176
     0
 90
        2
176
     1
  1
strokes_ogs.tif
176
     1
290
     0
176
     1
 40
1.0
176
     1
 40
1.0
176
     1
  0
VISUALSTYLE
  5
670
102
{ACAD_REACTORS
330
4EC
102
}
330
4EC
100
AcDbVisualStyle
  2
Hidden
 70
     6
177
     3
291
     0
 70
    58
 90
        1
176
     1
 90
        2
176
     1
 90
        2
176
     1
 90
        0
176
     1
 40
0.6
176
     1
 40
30.0
176
     1
 62
     7
420
 16777215
176
     1
 90
        2
176
     1
 90
        2
176
     1
 62
     7
176
     1
 62
   257
176
     1
 90
        2
176
     1
 90
        1
176
     1
 40
40.0
176
     1
 90
        0
176
     1
 62
   257
176
     1
 40
1.0
176
     1
 90
        1
176
     1
 90
        6
176
     1
 90
        2
176
     1
 62
     7
176
     1
 90
        3
176
     1
 90
        0
176
     1
 90
        0
176
     1
290
     0
176
     1
 90
        1
176
     1
 40
0.0
176
     1
 90
        0
176
     1
290
     0
176
     1
290
     1
176
     1
290
     1
176
     1
290
     0
176
     1
290
     0
176
     1
290
     0
176
     1
290
     0
176
     1
290
     0
176
     1
290
     0
176
     1
 90
       50
176
     1
 40
0.0
176
     1
 40
1.0
176
     1
 90
        0
176
     1
 62
    18
176
     1
 90
       50
176
     1
 90
        3
176
     1
 62
     5
420
      255
176
     1
290
     0
176
     1
 90
       50
176
     1
 90
       50
176
     1
 90
       50
176
     1
290
     0
176
     1
 90
       50
176
     1
 62
   256
176
     0
 40
1.0
176
     0
 90
        2
176
     1
  1
strokes_ogs.tif
176
     1
290
     0
176
     1
 40
1.0
176
     1
 40
1.0
176
     1
  0
VISUALSTYLE
  5
67E
102
{ACAD_REACTORS
330
4EC
102
}
330
4EC
100
AcDbVisualStyle
  2
JitterOff
 70
    20
177
     3
291
     1
 70
    58
 90
        2
176
     0
 90
        2
176
     0
 90
        0
176
     0
 90
        0
176
     0
 40
0.6
176
     0
 40
30.0
176
     0
 62
     7
420
 16777215
176
     0
 90
        1
176
     0
 90
        4
176
     0
 62
     7
176
     0
 62
   257
176
     0
 90
        1
176
     0
 90
        1
176
     0
 40
1.0
176
     0
 90
       10
176
     2
 62
     7
176
     0
 40
1.0
176
     0
 90
        1
176
     0
 90
        6
176
     0
 90
        2
176
     0
 62
     7
176
     0
 90
        5
176
     0
 90
        0
176
     0
 90
        0
176
     0
290
     0
176
     0
 90
        1
176
     0
 40
0.0
176
     0
 90
        0
176
     0
290
     0
176
     1
290
     1
176
     1
290
     1
176
     1
290
     0
176
     1
290
     0
176
     1
290
     0
176
     1
290
     0
176
     1
290
     0
176
     1
290
     0
176
     1
 90
       50
176
     0
 40
0.0
176
     0
 40
1.0
176
     0
 90
        0
176
     0
 62
    18
176
     0
 90
       50
176
     0
 90
        3
176
     0
 62
     5
420
      255
176
     0
290
     0
176
     1
 90
       50
176
     0
 90
       50
176
     0
 90
       50
176
     0
290
     0
176
     1
 90
       50
176
     0
 62
   256
176
     0
 40
1.0
176
     0
 90
        2
176
     0
  1
strokes_ogs.tif
176
     0
290
     0
176
     1
 40
1.0
176
     0
 40
1.0
176
     0
  0
VISUALSTYLE
  5
676
102
{ACAD_REACTORS
330
4EC
102
}
330
4EC
100
AcDbVisualStyle
  2
Linepattern
 70
    14
177
     3
291
     1
 70
    58
 90
        2
176
     1
 90
        2
176
     1
 90
        0
176
     1
 90
        0
176
     1
 40
0.6
176
     1
 40
30.0
176
     1
 62
     7
420
 16777215
176
     1
 90
        1
176
     1
 90
        4
176
     1
 62
     7
176
     1
 62
   257
176
     1
 90
        7
176
     1
 90
        7
176
     1
 40
1.0
176
     1
 90
        8
176
     1
 62
     7
176
     1
 40
1.0
176
     1
 90
        1
176
     1
 90
        6
176
     1
 90
        2
176
     1
 62
     7
176
     1
 90
        5
176
     1
 90
        0
176
     1
 90
        0
176
     1
290
     0
176
     1
 90
        1
176
     1
 40
0.0
176
     1
 90
        0
176
     1
290
     0
176
     1
290
     1
176
     1
290
     1
176
     1
290
     0
176
     1
290
     0
176
     1
290
     0
176
     1
290
     0
176
     1
290
     0
176
     1
290
     0
176
     1
 90
       50
176
     1
 40
0.0
176
     1
 40
1.0
176
     1
 90
        0
176
     1
 62
    18
176
     1
 90
       50
176
     1
 90
        3
176
     1
 62
     5
420
      255
176
     1
290
     0
176
     1
 90
       50
176
     1
 90
       50
176
     1
 90
       50
176
     1
290
     0
176
     1
 90
       50
176
     1
 62
   256
176
     0
 40
1.0
176
     0
 90
        2
176
     1
  1
strokes_ogs.tif
176
     1
290
     0
176
     1
 40
1.0
176
     1
 40
1.0
176
     1
  0
VISUALSTYLE
  5
67F
102
{ACAD_REACTORS
330
4EC
102
}
330
4EC
100
AcDbVisualStyle
  2
OverhangOff
 70
    21
177
     3
291
     1
 70
    58
 90
        2
176
     0
 90
        2
176
     0
 90
        0
176
     0
 90
        0
176
     0
 40
0.6
176
     0
 40
30.0
176
     0
 62
     7
420
 16777215
176
     0
 90
        1
176
     0
 90
        4
176
     0
 62
     7
176
     0
 62
   257
176
     0
 90
        1
176
     0
 90
        1
176
     0
 40
1.0
176
     0
 90
        9
176
     2
 62
     7
176
     0
 40
1.0
176
     0
 90
        1
176
     0
 90
        6
176
     0
 90
        2
176
     0
 62
     7
176
     0
 90
        5
176
     0
 90
        0
176
     0
 90
        0
176
     0
290
     0
176
     0
 90
        1
176
     0
 40
0.0
176
     0
 90
        0
176
     0
290
     0
176
     1
290
     1
176
     1
290
     1
176
     1
290
     0
176
     1
290
     0
176
     1
290
     0
176
     1
290
     0
176
     1
290
     0
176
     1
290
     0
176
     1
 90
       50
176
     0
 40
0.0
176
     0
 40
1.0
176
     0
 90
        0
176
     0
 62
    18
176
     0
 90
       50
176
     0
 90
        3
176
     0
 62
     5
420
      255
176
     0
290
     0
176
     1
 90
       50
176
     0
 90
       50
176
     0
 90
       50
176
     0
290
     0
176
     1
 90
       50
176
     0
 62
   256
176
     0
 40
1.0
176
     0
 90
        2
176
     0
  1
strokes_ogs.tif
176
     0
290
     0
176
     1
 40
1.0
176
     0
 40
1.0
176
     0
  0
VISUALSTYLE
  5
672
102
{ACAD_REACTORS
330
4EC
102
}
330
4EC
100
AcDbVisualStyle
  2
Realistic
 70
     8
177
     3
291
     0
 70
    58
 90
        2
176
     1
 90
        3
176
     1
 90
        0
176
     1
 90
        2
176
     1
 40
0.6
176
     1
 40
30.0
176
     1
 62
     7
420
 16777215
176
     1
 90
        0
176
     1
 90
        0
176
     1
 62
     7
176
     1
 62
   257
176
     1
 90
        1
176
     1
 90
        1
176
     1
 40
1.0
176
     1
 90
        8
176
     1
 62
   257
176
     1
 40
1.0
176
     1
 90
        1
176
     1
 90
        6
176
     1
 90
        2
176
     1
 62
     7
176
     1
 90
        3
176
     1
 90
        0
176
     1
 90
        0
176
     1
290
     0
176
     1
 90
       13
176
     1
 40
0.0
176
     1
 90
        0
176
     1
290
     0
176
     1
290
     1
176
     1
290
     1
176
     1
290
     0
176
     1
290
     0
176
     1
290
     0
176
     1
290
     0
176
     1
290
     0
176
     1
290
     0
176
     1
 90
       50
176
     1
 40
0.0
176
     1
 40
1.0
176
     1
 90
        0
176
     1
 62
    18
176
     1
 90
       50
176
     1
 90
        3
176
     1
 62
     5
420
      255
176
     1
290
     0
176
     1
 90
       50
176
     1
 90
       50
176
     1
 90
       50
176
     1
290
     0
176
     1
 90
       50
176
     1
 62
   256
176
     0
 40
1.0
176
     0
 90
        2
176
     1
  1
strokes_ogs.tif
176
     1
290
     0
176
     1
 40
1.0
176
     1
 40
1.0
176
     1
  0
VISUALSTYLE
  5
67D
102
{ACAD_REACTORS
330
4EC
102
}
330
4EC
100
AcDbVisualStyle
  2
Shaded
 70
    27
177
     3
291
     0
 70
    58
 90
        2
176
     1
 90
        2
176
     1
 90
        1
176
     1
 90
        2
176
     1
 40
0.6
176
     1
 40
30.0
176
     1
 62
     7
420
 16777215
176
     1
 90
        0
176
     1
 90
        4
176
     1
 62
     7
176
     1
 62
   257
176
     1
 90
        1
176
     1
 90
        1
176
     1
 40
1.0
176
     1
 90
        8
176
     1
 62
   257
176
     1
 40
1.0
176
     1
 90
        1
176
     1
 90
        6
176
     1
 90
        2
176
     1
 62
     8
420
  7895160
176
     1
 90
        3
176
     1
 90
        0
176
     1
 90
        0
176
     1
290
     0
176
     1
 90
        5
176
     1
 40
0.0
176
     1
 90
        0
176
     1
290
     0
176
     1
290
     1
176
     1
290
     1
176
     1
290
     0
176
     1
290
     0
176
     1
290
     0
176
     1
290
     0
176
     1
290
     0
176
     1
290
     0
176
     1
 90
       50
176
     1
 40
0.0
176
     1
 40
1.0
176
     1
 90
        0
176
     1
 62
    18
176
     1
 90
       50
176
     1
 90
        3
176
     1
 62
     5
420
      255
176
     1
290
     0
176
     1
 90
       50
176
     1
 90
       50
176
     1
 90
       50
176
     1
290
     0
176
     1
 90
       50
176
     1
 62
   256
176
     0
 40
1.0
176
     0
 90
        2
176
     1
  1
strokes_ogs.tif
176
     1
290
     0
176
     1
 40
1.0
176
     1
 40
1.0
176
     1
  0
VISUALSTYLE
  5
67C
102
{ACAD_REACTORS
330
4EC
102
}
330
4EC
100
AcDbVisualStyle
  2
Shaded with edges
 70
    26
177
     3
291
     0
 70
    58
 90
        2
176
     1
 90
        2
176
     1
 90
        1
176
     1
 90
        2
176
     1
 40
0.6
176
     1
 40
30.0
176
     1
 62
     7
420
 16777215
176
     1
 90
        1
176
     1
 90
        2
176
     1
 62
     7
176
     1
 62
   257
176
     1
 90
        2
176
     1
 90
        1
176
     1
 40
1.0
176
     1
 90
        8
176
     1
 62
   257
176
     1
 40
1.0
176
     1
 90
        1
176
     1
 90
        6
176
     1
 90
        2
176
     1
 62
     7
176
     1
 90
        3
176
     1
 90
        0
176
     1
 90
        0
176
     1
290
     0
176
     1
 90
        5
176
     1
 40
0.0
176
     1
 90
        0
176
     1
290
     0
176
     1
290
     1
176
     1
290
     1
176
     1
290
     0
176
     1
290
     0
176
     1
290
     0
176
     1
290
     0
176
     1
290
     0
176
     1
290
     0
176
     1
 90
       50
176
     1
 40
0.0
176
     1
 40
1.0
176
     1
 90
        0
176
     1
 62
    18
176
     1
 90
       50
176
     1
 90
        3
176
     1
 62
     5
420
      255
176
     1
290
     0
176
     1
 90
       50
176
     1
 90
       50
176
     1
 90
       50
176
     1
290
     0
176
     1
 90
       50
176
     1
 62
   256
176
     0
 40
1.0
176
     0
 90
        2
176
     1
  1
strokes_ogs.tif
176
     1
290
     0
176
     1
 40
1.0
176
     1
 40
1.0
176
     1
  0
VISUALSTYLE
  5
679
102
{ACAD_REACTORS
330
4EC
102
}
330
4EC
100
AcDbVisualStyle
  2
Shades of Gray
 70
    23
177
     3
291
     0
 70
    58
 90
        2
176
     1
 90
        2
176
     1
 90
        3
176
     1
 90
        0
176
     1
 40
0.6
176
     1
 40
30.0
176
     1
 62
     7
420
 16777215
176
     1
 90
        2
176
     1
 90
        2
176
     1
 62
     7
176
     1
 62
     7
176
     1
 90
        1
176
     1
 90
        1
176
     1
 40
40.0
176
     1
 90
        8
176
     1
 62
     7
176
     1
 40
1.0
176
     1
 90
        1
176
     1
 90
        6
176
     1
 90
        2
176
     1
 62
     7
176
     1
 90
        3
176
     1
 90
        0
176
     1
 90
        0
176
     1
290
     0
176
     1
 90
        1
176
     1
 40
0.0
176
     1
 90
        0
176
     1
290
     0
176
     1
290
     1
176
     1
290
     1
176
     1
290
     0
176
     1
290
     0
176
     1
290
     0
176
     1
290
     0
176
     1
290
     0
176
     1
290
     0
176
     1
 90
       50
176
     1
 40
0.0
176
     1
 40
1.0
176
     1
 90
        0
176
     1
 62
    18
176
     1
 90
       50
176
     1
 90
        3
176
     1
 62
     5
420
      255
176
     1
290
     0
176
     1
 90
       50
176
     1
 90
       50
176
     1
 90
       50
176
     1
290
     0
176
     1
 90
       50
176
     1
 62
   256
176
     0
 40
1.0
176
     0
 90
        2
176
     1
  1
strokes_ogs.tif
176
     1
290
     0
176
     1
 40
1.0
176
     1
 40
1.0
176
     1
  0
VISUALSTYLE
  5
67A
102
{ACAD_REACTORS
330
4EC
102
}
330
4EC
100
AcDbVisualStyle
  2
Sketchy
 70
    24
177
     3
291
     0
 70
    58
 90
        1
176
     1
 90
        2
176
     1
 90
        2
176
     1
 90
        0
176
     1
 40
0.6
176
     1
 40
30.0
176
     1
 62
     7
420
 16777215
176
     1
 90
        2
176
     1
 90
        2
176
     1
 62
     7
176
     1
 62
     7
176
     1
 90
        1
176
     1
 90
        1
176
     1
 40
40.0
176
     1
 90
       11
176
     1
 62
     7
176
     1
 40
1.0
176
     1
 90
        1
176
     1
 90
        6
176
     1
 90
        2
176
     1
 62
     7
176
     1
 90
        6
176
     1
 90
        0
176
     1
 90
        0
176
     1
290
     0
176
     1
 90
        1
176
     1
 40
0.0
176
     1
 90
        0
176
     1
290
     0
176
     1
290
     1
176
     1
290
     1
176
     1
290
     0
176
     1
290
     0
176
     1
290
     0
176
     1
290
     0
176
     1
290
     0
176
     1
290
     0
176
     1
 90
       50
176
     1
 40
0.0
176
     1
 40
1.0
176
     1
 90
        0
176
     1
 62
    18
176
     1
 90
       50
176
     1
 90
        3
176
     1
 62
     5
420
      255
176
     1
290
     0
176
     1
 90
       50
176
     1
 90
       50
176
     1
 90
       50
176
     1
290
     0
176
     1
 90
       50
176
     1
 62
   256
176
     0
 40
1.0
176
     0
 90
        2
176
     1
  1
strokes_ogs.tif
176
     1
290
     0
176
     1
 40
1.0
176
     1
 40
1.0
176
     1
  0
VISUALSTYLE
  5
675
102
{ACAD_REACTORS
330
4EC
102
}
330
4EC
100
AcDbVisualStyle
  2
Thicken
 70
    13
177
     3
291
     1
 70
    58
 90
        2
176
     1
 90
        2
176
     1
 90
        0
176
     1
 90
        0
176
     1
 40
0.6
176
     1
 40
30.0
176
     1
 62
     7
420
 16777215
176
     1
 90
        1
176
     1
 90
        4
176
     1
 62
     7
176
     1
 62
   257
176
     1
 90
        1
176
     1
 90
        1
176
     1
 40
1.0
176
     1
 90
       12
176
     1
 62
     7
176
     1
 40
1.0
176
     1
 90
        1
176
     1
 90
        6
176
     1
 90
        2
176
     1
 62
     7
176
     1
 90
        5
176
     1
 90
        0
176
     1
 90
        0
176
     1
290
     0
176
     1
 90
        1
176
     1
 40
0.0
176
     1
 90
        0
176
     1
290
     0
176
     1
290
     1
176
     1
290
     1
176
     1
290
     0
176
     1
290
     0
176
     1
290
     0
176
     1
290
     0
176
     1
290
     0
176
     1
290
     0
176
     1
 90
       50
176
     1
 40
0.0
176
     1
 40
1.0
176
     1
 90
        0
176
     1
 62
    18
176
     1
 90
       50
176
     1
 90
        3
176
     1
 62
     5
420
      255
176
     1
290
     0
176
     1
 90
       50
176
     1
 90
       50
176
     1
 90
       50
176
     1
290
     0
176
     1
 90
       50
176
     1
 62
   256
176
     0
 40
1.0
176
     0
 90
        2
176
     1
  1
strokes_ogs.tif
176
     1
290
     0
176
     1
 40
1.0
176
     1
 40
1.0
176
     1
  0
VISUALSTYLE
  5
66F
102
{ACAD_REACTORS
330
4EC
102
}
330
4EC
100
AcDbVisualStyle
  2
Wireframe
 70
     5
177
     3
291
     0
 70
    58
 90
        0
176
     1
 90
        2
176
     1
 90
        0
176
     1
 90
        0
176
     1
 40
0.6
176
     1
 40
30.0
176
     1
 62
     7
420
 16777215
176
     1
 90
        1
176
     1
 90
        4
176
     1
 62
     7
176
     1
 62
   257
176
     1
 90
        1
176
     1
 90
        1
176
     1
 40
1.0
176
     1
 90
        0
176
     1
 62
   257
176
     1
 40
1.0
176
     1
 90
        1
176
     1
 90
        6
176
     1
 90
        2
176
     1
 62
     7
176
     1
 90
        3
176
     1
 90
        0
176
     1
 90
        0
176
     1
290
     0
176
     1
 90
        1
176
     1
 40
0.0
176
     1
 90
        0
176
     1
290
     0
176
     1
290
     1
176
     1
290
     1
176
     1
290
     0
176
     1
290
     0
176
     1
290
     0
176
     1
290
     0
176
     1
290
     0
176
     1
290
     0
176
     1
 90
       50
176
     1
 40
0.0
176
     1
 40
1.0
176
     1
 90
        0
176
     1
 62
    18
176
     1
 90
       50
176
     1
 90
        3
176
     1
 62
     5
420
      255
176
     1
290
     0
176
     1
 90
       50
176
     1
 90
       50
176
     1
 90
       50
176
     1
290
     0
176
     1
 90
       50
176
     1
 62
   256
176
     0
 40
1.0
176
     0
 90
        2
176
     1
  1
strokes_ogs.tif
176
     1
290
     0
176
     1
 40
1.0
176
     1
 40
1.0
176
     1
  0
VISUALSTYLE
  5
67B
102
{ACAD_REACTORS
330
4EC
102
}
330
4EC
100
AcDbVisualStyle
  2
X-Ray
 70
    25
177
     3
291
     0
 70
    58
 90
        2
176
     1
 90
        2
176
     1
 90
        1
176
     1
 90
        1
176
     1
 40
0.5
176
     1
 40
30.0
176
     1
 62
     7
420
 16777215
176
     1
 90
        1
176
     1
 90
        0
176
     1
 62
     7
176
     1
 62
   257
176
     1
 90
        1
176
     1
 90
        1
176
     1
 40
1.0
176
     1
 90
        8
176
     1
 62
     7
176
     1
 40
1.0
176
     1
 90
        1
176
     1
 90
        6
176
     1
 90
        2
176
     1
 62
     7
176
     1
 90
        3
176
     1
 90
        0
176
     1
 90
        0
176
     1
290
     0
176
     1
 90
       13
176
     1
 40
0.0
176
     1
 90
        0
176
     1
290
     0
176
     1
290
     1
176
     1
290
     1
176
     1
290
     0
176
     1
290
     0
176
     1
290
     0
176
     1
290
     0
176
     1
290
     0
176
     1
290
     0
176
     1
 90
       50
176
     1
 40
0.0
176
     1
 40
1.0
176
     1
 90
        0
176
     1
 62
    18
176
     1
 90
       50
176
     1
 90
        3
176
     1
 62
     5
420
      255
176
     1
290
     0
176
     1
 90
       50
176
     1
 90
       50
176
     1
 90
       50
176
     1
290
     0
176
     1
 90
       50
176
     1
 62
   256
176
     0
 40
1.0
176
     0
 90
        2
176
     1
  1
strokes_ogs.tif
176
     1
290
     0
176
     1
 40
1.0
176
     1
 40
1.0
176
     1
  0
DICTIONARYVAR
  5
6C2
102
{ACAD_REACTORS
330
6BD
102
}
330
6BD
100
DictionaryVariables
280
     0
  1
1:1
  0
DICTIONARYVAR
  5
6BF
102
{ACAD_REACTORS
330
6BD
102
}
330
6BD
100
DictionaryVariables
280
     0
  1
STANDARD
  0
DICTIONARYVAR
  5
6BE
102
{ACAD_REACTORS
330
6BD
102
}
330
6BD
100
DictionaryVariables
280
     0
  1
STANDARD
  0
DICTIONARYVAR
  5
6C0
102
{ACAD_REACTORS
330
6BD
102
}
330
6BD
100
DictionaryVariables
280
     0
  1
Metric50
  0
DICTIONARYVAR
  5
6C1
102
{ACAD_REACTORS
330
6BD
102
}
330
6BD
100
DictionaryVariables
280
     0
  1
Metric50
  0
DICTIONARY
  5
65A
330
659
100
AcDbDictionary
280
     1
281
     1
  3
BUMPTILE
360
65C
  3
DIFFUSETILE
360
65B
  3
OPACITYTILE
360
65F
  3
REFLECTIONTILE
360
65E
  3
REFRACTIONTILE
360
660
  3
SPECULARTILE
360
65D
  0
DICTIONARY
  5
652
330
651
100
AcDbDictionary
280
     1
281
     1
  3
BUMPTILE
360
654
  3
DIFFUSETILE
360
653
  3
OPACITYTILE
360
657
  3
REFLECTIONTILE
360
656
  3
REFRACTIONTILE
360
658
  3
SPECULARTILE
360
655
  0
DICTIONARY
  5
662
330
661
100
AcDbDictionary
280
     1
281
     1
  3
BUMPTILE
360
664
  3
DIFFUSETILE
360
663
  3
OPACITYTILE
360
667
  3
REFLECTIONTILE
360
666
  3
REFRACTIONTILE
360
668
  3
SPECULARTILE
360
665
  0
DICTIONARY
  5
8D9
330
681
100
AcDbDictionary
280
     1
281
     1
  3
ACAD_ROUNDTRIP_2008_TABLESTYLE_CELLSTYLEMAP
360
124D
  0
XRECORD
  5
65C
102
{ACAD_REACTORS
330
65A
102
}
330
65A
100
AcDbXrecord
280
     1
270
     1
271
     1
  0
XRECORD
  5
65B
102
{ACAD_REACTORS
330
65A
102
}
330
65A
100
AcDbXrecord
280
     1
270
     1
271
     1
  0
XRECORD
  5
65F
102
{ACAD_REACTORS
330
65A
102
}
330
65A
100
AcDbXrecord
280
     1
270
     1
271
     1
  0
XRECORD
  5
65E
102
{ACAD_REACTORS
330
65A
102
}
330
65A
100
AcDbXrecord
280
     1
270
     1
271
     1
  0
XRECORD
  5
660
102
{ACAD_REACTORS
330
65A
102
}
330
65A
100
AcDbXrecord
280
     1
270
     1
271
     1
  0
XRECORD
  5
65D
102
{ACAD_REACTORS
330
65A
102
}
330
65A
100
AcDbXrecord
280
     1
270
     1
271
     1
  0
XRECORD
  5
654
102
{ACAD_REACTORS
330
652
102
}
330
652
100
AcDbXrecord
280
     1
270
     1
271
     1
  0
XRECORD
  5
653
102
{ACAD_REACTORS
330
652
102
}
330
652
100
AcDbXrecord
280
     1
270
     1
271
     1
  0
XRECORD
  5
657
102
{ACAD_REACTORS
330
652
102
}
330
652
100
AcDbXrecord
280
     1
270
     1
271
     1
  0
XRECORD
  5
656
102
{ACAD_REACTORS
330
652
102
}
330
652
100
AcDbXrecord
280
     1
270
     1
271
     1
  0
XRECORD
  5
658
102
{ACAD_REACTORS
330
652
102
}
330
652
100
AcDbXrecord
280
     1
270
     1
271
     1
  0
XRECORD
  5
655
102
{ACAD_REACTORS
330
652
102
}
330
652
100
AcDbXrecord
280
     1
270
     1
271
     1
  0
XRECORD
  5
664
102
{ACAD_REACTORS
330
662
102
}
330
662
100
AcDbXrecord
280
     1
270
     1
271
     1
  0
XRECORD
  5
663
102
{ACAD_REACTORS
330
662
102
}
330
662
100
AcDbXrecord
280
     1
270
     1
271
     1
  0
XRECORD
  5
667
102
{ACAD_REACTORS
330
662
102
}
330
662
100
AcDbXrecord
280
     1
270
     1
271
     1
  0
XRECORD
  5
666
102
{ACAD_REACTORS
330
662
102
}
330
662
100
AcDbXrecord
280
     1
270
     1
271
     1
  0
XRECORD
  5
668
102
{ACAD_REACTORS
330
662
102
}
330
662
100
AcDbXrecord
280
     1
270
     1
271
     1
  0
XRECORD
  5
665
102
{ACAD_REACTORS
330
662
102
}
330
662
100
AcDbXrecord
280
     1
270
     1
271
     1
  0
CELLSTYLEMAP
  5
124D
102
{ACAD_REACTORS
330
8D9
102
}
330
8D9
100
AcDbCellStyleMap
 90
        3
300
CELLSTYLE
  1
TABLEFORMAT_BEGIN
 90
        5
170
     1
 91
        0
 92
    32768
 62
   257
 93
        1
300
CONTENTFORMAT
  1
CONTENTFORMAT_BEGIN
 90
        0
 91
        0
 92
      512
 93
        0
300

 40
0.0
140
1.0
 94
        5
 62
     0
340
11
144
6.0
309
CONTENTFORMAT_END
171
     1
301
MARGIN
  1
CELLMARGIN_BEGIN
 40
1.5
 40
1.5
 40
1.5
 40
1.5
 40
0.18
 40
0.18
309
CELLMARGIN_END
 94
        6
 95
        1
302
GRIDFORMAT
  1
GRIDFORMAT_BEGIN
 90
        0
 91
        1
 62
     0
 92
       -2
340
0
 93
        0
 40
1.125
309
GRIDFORMAT_END
 95
        2
302
GRIDFORMAT
  1
GRIDFORMAT_BEGIN
 90
        0
 91
        1
 62
     0
 92
       -2
340
0
 93
        0
 40
1.125
309
GRIDFORMAT_END
 95
        4
302
GRIDFORMAT
  1
GRIDFORMAT_BEGIN
 90
        0
 91
        1
 62
     0
 92
       -2
340
0
 93
        0
 40
1.125
309
GRIDFORMAT_END
 95
        8
302
GRIDFORMAT
  1
GRIDFORMAT_BEGIN
 90
        0
 91
        1
 62
     0
 92
       -2
340
0
 93
        0
 40
1.125
309
GRIDFORMAT_END
 95
       16
302
GRIDFORMAT
  1
GRIDFORMAT_BEGIN
 90
        0
 91
        1
 62
     0
 92
       -2
340
0
 93
        0
 40
1.125
309
GRIDFORMAT_END
 95
       32
302
GRIDFORMAT
  1
GRIDFORMAT_BEGIN
 90
        0
 91
        1
 62
     0
 92
       -2
340
0
 93
        0
 40
1.125
309
GRIDFORMAT_END
309
TABLEFORMAT_END
  1
CELLSTYLE_BEGIN
 90
        1
 91
        1
300
_TITLE
309
CELLSTYLE_END
300
CELLSTYLE
  1
TABLEFORMAT_BEGIN
 90
        5
170
     1
 91
        0
 92
        0
 62
   257
 93
        1
300
CONTENTFORMAT
  1
CONTENTFORMAT_BEGIN
 90
        0
 91
        0
 92
      512
 93
        0
300

 40
0.0
140
1.0
 94
        5
 62
     0
340
11
144
4.5
309
CONTENTFORMAT_END
171
     1
301
MARGIN
  1
CELLMARGIN_BEGIN
 40
1.5
 40
1.5
 40
1.5
 40
1.5
 40
0.18
 40
0.18
309
CELLMARGIN_END
 94
        6
 95
        1
302
GRIDFORMAT
  1
GRIDFORMAT_BEGIN
 90
        0
 91
        1
 62
     0
 92
       -2
340
0
 93
        0
 40
1.125
309
GRIDFORMAT_END
 95
        2
302
GRIDFORMAT
  1
GRIDFORMAT_BEGIN
 90
        0
 91
        1
 62
     0
 92
       -2
340
0
 93
        0
 40
1.125
309
GRIDFORMAT_END
 95
        4
302
GRIDFORMAT
  1
GRIDFORMAT_BEGIN
 90
        0
 91
        1
 62
     0
 92
       -2
340
0
 93
        0
 40
1.125
309
GRIDFORMAT_END
 95
        8
302
GRIDFORMAT
  1
GRIDFORMAT_BEGIN
 90
        0
 91
        1
 62
     0
 92
       -2
340
0
 93
        0
 40
1.125
309
GRIDFORMAT_END
 95
       16
302
GRIDFORMAT
  1
GRIDFORMAT_BEGIN
 90
        0
 91
        1
 62
     0
 92
       -2
340
0
 93
        0
 40
1.125
309
GRIDFORMAT_END
 95
       32
302
GRIDFORMAT
  1
GRIDFORMAT_BEGIN
 90
        0
 91
        1
 62
     0
 92
       -2
340
0
 93
        0
 40
1.125
309
GRIDFORMAT_END
309
TABLEFORMAT_END
  1
CELLSTYLE_BEGIN
 90
        2
 91
        1
300
_HEADER
309
CELLSTYLE_END
300
CELLSTYLE
  1
TABLEFORMAT_BEGIN
 90
        5
170
     1
 91
        0
 92
        0
 62
   257
 93
        1
300
CONTENTFORMAT
  1
CONTENTFORMAT_BEGIN
 90
        0
 91
        0
 92
      512
 93
        0
300

 40
0.0
140
1.0
 94
        2
 62
     0
340
11
144
4.5
309
CONTENTFORMAT_END
171
     1
301
MARGIN
  1
CELLMARGIN_BEGIN
 40
1.5
 40
1.5
 40
1.5
 40
1.5
 40
0.18
 40
0.18
309
CELLMARGIN_END
 94
        6
 95
        1
302
GRIDFORMAT
  1
GRIDFORMAT_BEGIN
 90
        0
 91
        1
 62
     0
 92
       -2
340
0
 93
        0
 40
1.125
309
GRIDFORMAT_END
 95
        2
302
GRIDFORMAT
  1
GRIDFORMAT_BEGIN
 90
        0
 91
        1
 62
     0
 92
       -2
340
0
 93
        0
 40
1.125
309
GRIDFORMAT_END
 95
        4
302
GRIDFORMAT
  1
GRIDFORMAT_BEGIN
 90
        0
 91
        1
 62
     0
 92
       -2
340
0
 93
        0
 40
1.125
309
GRIDFORMAT_END
 95
        8
302
GRIDFORMAT
  1
GRIDFORMAT_BEGIN
 90
        0
 91
        1
 62
     0
 92
       -2
340
0
 93
        0
 40
1.125
309
GRIDFORMAT_END
 95
       16
302
GRIDFORMAT
  1
GRIDFORMAT_BEGIN
 90
        0
 91
        1
 62
     0
 92
       -2
340
0
 93
        0
 40
1.125
309
GRIDFORMAT_END
 95
       32
302
GRIDFORMAT
  1
GRIDFORMAT_BEGIN
 90
        0
 91
        1
 62
     0
 92
       -2
340
0
 93
        0
 40
1.125
309
GRIDFORMAT_END
309
TABLEFORMAT_END
  1
CELLSTYLE_BEGIN
 90
        3
 91
        2
300
_DATA
309
CELLSTYLE_END
  0
ENDSEC
  0
SECTION
  2
ACDSDATA
 70
     2
 71
     8
  0
ACDSSCHEMA
 90
        0
  1
AcDb_Thumbnail_Schema
  2
AcDbDs::ID
280
    10
 91
        8
  2
Thumbnail_Data
280
    15
 91
        0
101
ACDSRECORD
 95
        0
 90
        1
  2
AcDbDs::TreatedAsObjectData
280
     1
291
     1
101
ACDSRECORD
 95
        0
 90
        2
  2
AcDbDs::Legacy
280
     1
291
     1
101
ACDSRECORD
  1
AcDbDs::ID
 90
        3
  2
AcDs:Indexable
280
     1
291
     1
101
ACDSRECORD
  1
AcDbDs::ID
 90
        4
  2
AcDbDs::HandleAttribute
280
     7
282
     1
  0
ACDSSCHEMA
 90
        1
  1
AcDbDs::TreatedAsObjectDataSchema
  2
AcDbDs::TreatedAsObjectData
280
     1
 91
        0
  0
ACDSSCHEMA
 90
        2
  1
AcDbDs::LegacySchema
  2
AcDbDs::Legacy
280
     1
 91
        0
  0
ACDSSCHEMA
 90
        3
  1
AcDbDs::IndexedPropertySchema
  2
AcDs:Indexable
280
     1
 91
        0
  0
ACDSSCHEMA
 90
        4
  1
AcDbDs::HandleAttributeSchema
  2
AcDbDs::HandleAttribute
280
     7
 91
        1
284
     1
  0
ACDSRECORD
 90
        0
  2
AcDbDs::ID
280
    10
320
4ED
  2
Thumbnail_Data
280
    15
 94
     1520
310
89504E470D0A1A0A0000000D4948445200000100000000700803000000C6F95E2100000300504C5445212830FFFFFF2128300000000000000000000000000000000000000000000000000000330000660000990000CC0000FF0033000033330033660033990033CC0033FF0066000066330066660066990066CC0066FF0099
310
000099330099660099990099CC0099FF00CC0000CC3300CC6600CC9900CCCC00CCFF00FF0000FF3300FF6600FF9900FFCC00FFFF3300003300333300663300993300CC3300FF3333003333333333663333993333CC3333FF3366003366333366663366993366CC3366FF3399003399333399663399993399CC3399FF33CC00
310
33CC3333CC6633CC9933CCCC33CCFF33FF0033FF3333FF6633FF9933FFCC33FFFF6600006600336600666600996600CC6600FF6633006633336633666633996633CC6633FF6666006666336666666666996666CC6666FF6699006699336699666699996699CC6699FF66CC0066CC3366CC6666CC9966CCCC66CCFF66FF0066
310
FF3366FF6666FF9966FFCC66FFFF9900009900339900669900999900CC9900FF9933009933339933669933999933CC9933FF9966009966339966669966999966CC9966FF9999009999339999669999999999CC9999FF99CC0099CC3399CC6699CC9999CCCC99CCFF99FF0099FF3399FF6699FF9999FFCC99FFFFCC0000CC00
310
33CC0066CC0099CC00CCCC00FFCC3300CC3333CC3366CC3399CC33CCCC33FFCC6600CC6633CC6666CC6699CC66CCCC66FFCC9900CC9933CC9966CC9999CC99CCCC99FFCCCC00CCCC33CCCC66CCCC99CCCCCCCCCCFFCCFF00CCFF33CCFF66CCFF99CCFFCCCCFFFFFF0000FF0033FF0066FF0099FF00CCFF00FFFF3300FF3333
310
FF3366FF3399FF33CCFF33FFFF6600FF6633FF6666FF6699FF66CCFF66FFFF9900FF9933FF9966FF9999FF99CCFF99FFFFCC00FFCC33FFCC66FFCC99FFCCCCFFCCFFFFFF00FFFF33FFFF66FFFF99FFFFCCFFFFFF0000000D0D0D1A1A1A2828283535354343435050505D5D5D6B6B6B787878868686939393A1A1A1AEAEAEBB
310
BBBBC9C9C9D6D6D6E4E4E4F1F1F1FFFFFF0000000000000000000000000000000000000000000000000000000000002E4550F1000002064944415478DAED9AC16E03310844F9FFFFE5DE4B5B19336CBD5155EDA4EF5D22AD12290C98B1F1460000000000000000000000000000000000000000000000C09F90E5E31FC6FFCD
310
FFCC7D6E0AA47B29E72BB9EF3897F2B95625F3CE0A8C294C1DFA56F49FA59F37557C66EE332E13A9642A02C4F2C822F4E54FD7088644D6F0D7EF9A09907D11F708A40063BAAD0450951C25AB67029472281DD1AAF85B224F05587F11B16A52BEF07C019614AECBFF4A8096F4F0DA0ED4F6B73E2A999CD64EF46A113DC04180
310
BDA76F899C4E3EB55FA4A5002D91872ED03D2F261B7CB400ADA28F04C8531770A980148D6D10E02BE4E602295DC0A5078C2EB007A0374DDD05EA69C9CA05AAB7EF4D70B33755402615503BF7E4026DCCF5B53348E1025636A85CEEE430548FFDA15690890BACC57FC305C6B36FD6156420C09EB53317D0022C6DB3F7D0470B
310
A06AB86F0DEEBB403CDF058400657BFB930BCC05E4E102DBFC4B7431ED026A16E479182AC7DDB909EAC350DE1A89396C857F6524E62B40E9ECEAD18D9158BA1D867ABA6F0B907D39391F86D40DCF2440BF0EDCBA8AD748AC666DED6FD75EB04698A3A44F1640FC4F79D3F773FCBB0011CF1E8ECF95AAFAE2B08D10B3221B01
310
62BCD2EF5BFEB3F1BEECA19EB7E42F09A0DCD0FB3581972BE06DDE93B8BA1F3AECAD9EAF0DE575933C5F46EFF0E258BE491C000000000000000000000000767C00BF31FD76BF02B20B0000000049454E44AE426082F8AD37F9EFFE0000000049454E44AE426082009752B80F80D103A097C0E035491A9F18C9BC5D3E3A3132
310
09A0FD80CCBBC5C7672B2E85638D2C951E30FC8C0E00914696A71BD48700E05E2BB3CA03DACD4101280005001A00D1BD3A930078EED59902100922EC0082DBB87604007CABCA3B2EB11F00A63B36BFE9B8C83C6233006565656565656565656565656565DFD81F014CDD98C627FCDD0000000049454E44AE426082
  0
ENDSEC
  0
EOF
