M48
; DRILL file {KiCad (5.1.2)-2} date 27/10/2019 18:25:32
; FORMAT={-:-/ absolute / inch / decimal}
; #@! TF.CreationDate,2019-10-27T18:25:32+08:00
; #@! TF.GenerationSoftware,Kicad,Pcbnew,(5.1.2)-2
; #@! TF.FileFunction,Plated,1,2,PTH
FMAT,2
INCH
T1C0.0157
T2C0.0320
T3C0.0394
T4C0.0512
T5C0.0579
T6C0.0630
%
G90
G05
T1
X4.1308Y-2.6006
X7.6941Y-2.3136
X7.8007Y-3.6053
X8.4315Y-3.6388
X8.4477Y-3.5185
X8.4581Y-3.0899
X8.4878Y-2.9681
X8.6549Y-3.4457
X8.7938Y-2.9205
X8.8453Y-3.2138
X8.8501Y-3.4111
X8.8573Y-3.2945
X8.3276Y-3.7937
X8.365Y-3.715
X8.4024Y-3.7937
T2
X6.2618Y-3.4937
X6.5618Y-3.4937
X6.0858Y-2.9094
X6.0858Y-3.2094
X5.5118Y-2.9311
X5.8118Y-2.9311
X7.0118Y-1.4315
X7.3118Y-1.4315
X6.8358Y-1.5972
X6.8358Y-1.8972
X7.0118Y-2.9315
X7.3118Y-2.9315
X5.3358Y-3.8469
X5.3358Y-4.1469
X5.3358Y-3.0969
X5.3358Y-3.3969
X4.7618Y-2.4587
X5.0618Y-2.4587
X6.8358Y-3.8472
X6.8358Y-4.1472
X8.5476Y-4.0457
X8.8476Y-4.0457
X4.5858Y-2.6244
X4.5858Y-2.9244
X7.7618Y-3.0213
X8.0618Y-3.0213
X8.3358Y-4.7843
X8.3358Y-5.0843
X6.0858Y-2.1594
X6.0858Y-2.4594
X7.0118Y-2.1815
X7.3118Y-2.1815
X6.8358Y-4.5972
X6.8358Y-4.8972
X5.3358Y-1.5969
X5.3358Y-1.8969
X5.5118Y-1.4311
X5.8118Y-1.4311
X8.5118Y-4.6185
X8.8118Y-4.6185
X7.0118Y-3.6815
X7.3118Y-3.6815
X4.5858Y-4.1244
X4.5858Y-4.4244
X6.8358Y-3.0972
X6.8358Y-3.3972
X4.7618Y-3.2087
X5.0618Y-3.2087
X3.8358Y-4.222
X3.8358Y-4.522
X3.8358Y-2.722
X3.8358Y-3.022
X4.0118Y-4.0563
X4.3118Y-4.0563
X7.5858Y-3.187
X7.5858Y-3.487
X4.0118Y-2.5563
X4.3118Y-2.5563
X4.7618Y-1.7087
X5.0618Y-1.7087
X8.5476Y-3.9374
X8.8476Y-3.9374
X5.3358Y-2.3469
X5.3358Y-2.6469
X7.7618Y-3.7713
X8.0618Y-3.7713
X6.8358Y-2.3472
X6.8358Y-2.6472
X5.5118Y-2.1811
X5.8118Y-2.1811
X7.7618Y-1.5213
X8.0618Y-1.5213
X7.5858Y-2.437
X7.5858Y-2.737
X7.7618Y-4.5213
X8.0618Y-4.5213
X4.7618Y-3.9587
X5.0618Y-3.9587
X3.8358Y-3.472
X3.8358Y-3.772
X4.0118Y-3.3063
X4.3118Y-3.3063
X7.5858Y-4.687
X7.5858Y-4.987
X6.0858Y-1.4094
X6.0858Y-1.7094
X6.2618Y-2.7437
X6.5618Y-2.7437
X3.0858Y-3.2843
X3.0858Y-3.5843
X3.8496Y-1.972
X3.8496Y-2.272
X5.5118Y-3.6811
X5.8118Y-3.6811
X6.0858Y-3.6594
X6.0858Y-3.9594
X3.2618Y-3.1185
X3.5618Y-3.1185
X4.5858Y-3.3744
X4.5858Y-3.6744
X6.2618Y-1.9937
X6.5618Y-1.9937
X7.5858Y-3.937
X7.5858Y-4.237
X4.5858Y-1.8744
X4.5858Y-2.1744
X7.7618Y-2.2713
X8.0618Y-2.2713
X6.2618Y-1.2437
X6.5618Y-1.2437
X7.5858Y-1.687
X7.5858Y-1.987
X4.0118Y-1.8083
X4.3118Y-1.8083
X7.0118Y-4.4315
X7.3118Y-4.4315
X8.3346Y-2.5111
X8.3346Y-2.6111
X8.3346Y-2.7111
X8.3346Y-2.8111
X8.3346Y-2.9111
X8.3346Y-3.0111
X8.3346Y-3.1111
X8.3346Y-3.2111
X8.3346Y-3.3111
X8.3346Y-3.4111
X8.3346Y-3.5111
X8.3346Y-3.6111
X8.3869Y-2.4611
X8.3869Y-2.5611
X8.3869Y-2.6611
X8.3869Y-2.7611
X8.3869Y-2.8611
X8.3869Y-2.9611
X8.3869Y-3.0611
X8.3869Y-3.1611
X8.3869Y-3.2611
X8.3869Y-3.3611
X8.3869Y-3.4611
X8.3869Y-3.5611
X8.9346Y-2.5111
X8.9346Y-2.6111
X8.9346Y-2.7111
X8.9346Y-2.8111
X8.9346Y-2.9111
X8.9346Y-3.0111
X8.9346Y-3.1111
X8.9346Y-3.2111
X8.9346Y-3.3111
X8.9346Y-3.4111
X8.9346Y-3.5111
X8.9346Y-3.6111
X8.9861Y-2.4611
X8.9861Y-2.5611
X8.9861Y-2.6611
X8.9861Y-2.7611
X8.9861Y-2.8611
X8.9861Y-2.9611
X8.9861Y-3.0611
X8.9861Y-3.1611
X8.9861Y-3.2611
X8.9861Y-3.3611
X8.9861Y-3.4611
X8.9861Y-3.5611
X8.5476Y-4.1539
X8.8476Y-4.1539
T3
X8.365Y-3.9165
X8.365Y-4.0165
X8.365Y-4.1165
X8.365Y-4.2165
X8.365Y-4.3165
X8.365Y-4.4165
T4
X8.5697Y-3.7535
X8.8256Y-3.7535
T5
X4.0118Y-3.722
X4.0618Y-3.822
X4.2618Y-3.822
X4.3118Y-3.722
X7.7618Y-2.687
X7.8118Y-2.787
X8.0118Y-2.787
X8.0618Y-2.687
X7.7618Y-1.937
X7.8118Y-2.037
X8.0118Y-2.037
X8.0618Y-1.937
X4.0118Y-4.472
X4.0618Y-4.572
X4.2618Y-4.572
X4.3118Y-4.472
X5.5118Y-2.5969
X5.5618Y-2.6969
X5.7618Y-2.6969
X5.8118Y-2.5969
X7.7618Y-3.437
X7.8118Y-3.537
X8.0118Y-3.537
X8.0618Y-3.437
X5.5118Y-1.8469
X5.5618Y-1.9469
X5.7618Y-1.9469
X5.8118Y-1.8469
X4.7618Y-4.3744
X4.8118Y-4.4744
X5.0118Y-4.4744
X5.0618Y-4.3744
X7.0118Y-4.0972
X7.0618Y-4.1972
X7.2618Y-4.1972
X7.3118Y-4.0972
X4.7618Y-3.6244
X4.8118Y-3.7244
X5.0118Y-3.7244
X5.0618Y-3.6244
X4.7618Y-2.1244
X4.8118Y-2.2244
X5.0118Y-2.2244
X5.0618Y-2.1244
X5.5118Y-3.3469
X5.5618Y-3.4469
X5.7618Y-3.4469
X5.8118Y-3.3469
X4.0118Y-2.222
X4.0618Y-2.322
X4.2618Y-2.322
X4.3118Y-2.222
X6.2618Y-3.9094
X6.3118Y-4.0094
X6.5118Y-4.0094
X6.5618Y-3.9094
X3.2618Y-3.5343
X3.3118Y-3.6343
X3.5118Y-3.6343
X3.5618Y-3.5343
X7.0118Y-2.5972
X7.0618Y-2.6972
X7.2618Y-2.6972
X7.3118Y-2.5972
X7.0118Y-1.8472
X7.0618Y-1.9472
X7.2618Y-1.9472
X7.3118Y-1.8472
X7.0118Y-3.3472
X7.0618Y-3.4472
X7.2618Y-3.4472
X7.3118Y-3.3472
X6.2618Y-2.4094
X6.3118Y-2.5094
X6.5118Y-2.5094
X6.5618Y-2.4094
X7.7618Y-4.187
X7.8118Y-4.287
X8.0118Y-4.287
X8.0618Y-4.187
X6.2618Y-3.1594
X6.3118Y-3.2594
X6.5118Y-3.2594
X6.5618Y-3.1594
X4.0118Y-2.972
X4.0618Y-3.072
X4.2618Y-3.072
X4.3118Y-2.972
X7.7618Y-4.937
X7.8118Y-5.037
X8.0118Y-5.037
X8.0618Y-4.937
X8.5118Y-5.0343
X8.5618Y-5.1343
X8.7618Y-5.1343
X8.8118Y-5.0343
X4.7618Y-2.8744
X4.8118Y-2.9744
X5.0118Y-2.9744
X5.0618Y-2.8744
X5.5118Y-4.0969
X5.5618Y-4.1969
X5.7618Y-4.1969
X5.8118Y-4.0969
X7.0118Y-4.8472
X7.0618Y-4.9472
X7.2618Y-4.9472
X7.3118Y-4.8472
X6.2618Y-1.6594
X6.3118Y-1.7594
X6.5118Y-1.7594
X6.5618Y-1.6594
T6
X7.1118Y-1.5472
X7.2118Y-1.5472
X7.1118Y-3.0472
X7.2118Y-3.0472
X5.6118Y-3.0469
X5.7118Y-3.0469
X7.8618Y-3.887
X7.9618Y-3.887
X7.8618Y-1.637
X7.9618Y-1.637
X4.1118Y-3.422
X4.2118Y-3.422
X4.8618Y-3.3244
X4.9618Y-3.3244
X5.6118Y-2.2969
X5.7118Y-2.2969
X5.6118Y-3.7969
X5.7118Y-3.7969
X7.1118Y-3.7972
X7.2118Y-3.7972
X7.1118Y-4.5472
X7.2118Y-4.5472
X4.1118Y-4.172
X4.2118Y-4.172
X7.8618Y-3.137
X7.9618Y-3.137
X4.1118Y-2.672
X4.2118Y-2.672
X7.8618Y-4.637
X7.9618Y-4.637
X4.8618Y-2.5744
X4.9618Y-2.5744
X6.3618Y-2.1094
X6.4618Y-2.1094
X6.3618Y-2.8594
X6.4618Y-2.8594
X3.3618Y-3.2343
X3.4618Y-3.2343
X6.3618Y-1.3594
X6.4618Y-1.3594
X8.6118Y-4.7343
X8.7118Y-4.7343
X7.8618Y-2.387
X7.9618Y-2.387
X5.6118Y-1.5469
X5.7118Y-1.5469
X4.8618Y-4.0744
X4.9618Y-4.0744
X4.8618Y-1.8244
X4.9618Y-1.8244
X7.1118Y-2.2972
X7.2118Y-2.2972
X4.1118Y-1.922
X4.2118Y-1.922
X6.3618Y-3.6094
X6.4618Y-3.6094
T3
G00X8.5098Y-4.3185
M15
G01X8.4902Y-4.3185
M16
G05
G00X8.5098Y-4.415
M15
G01X8.4902Y-4.415
M16
G05
G00X8.5689Y-4.2496
M15
G01X8.5492Y-4.2496
M16
G05
G00X8.5689Y-4.4839
M15
G01X8.5492Y-4.4839
M16
G05
G00X8.7264Y-4.2496
M15
G01X8.7067Y-4.2496
M16
G05
G00X8.7264Y-4.4839
M15
G01X8.7067Y-4.4839
M16
G05
G00X8.8445Y-4.2496
M15
G01X8.8248Y-4.2496
M16
G05
G00X8.8445Y-4.4839
M15
G01X8.8248Y-4.4839
M16
G05
T0
M30
