M48
; DRILL file {KiCad (5.1.2)-2} date 22/01/2020 17:58:58
; FORMAT={-:-/ absolute / inch / decimal}
; #@! TF.CreationDate,2020-01-22T17:58:58+08:00
; #@! TF.GenerationSoftware,Kicad,Pcbnew,(5.1.2)-2
; #@! TF.FileFunction,Plated,1,2,PTH
FMAT,2
INCH
T1C0.0157
T2C0.0320
T3C0.0394
T4C0.0512
T5C0.0591
T6C0.0596
T7C0.0866
%
G90
G05
T1
X7.3432Y-3.0087
X7.665Y-3.269
X8.0242Y-3.3139
X8.3459Y-3.9108
X8.454Y-3.5101
X8.4543Y-3.293
X8.462Y-3.2126
X8.4725Y-3.439
X8.8444Y-3.0019
X8.8452Y-3.1274
X8.8527Y-2.9366
X4.1067Y-3.198
X4.2169Y-3.198
X6.8358Y-2.4323
X6.8358Y-2.5622
X4.1067Y-2.448
X4.2169Y-2.448
X8.602Y-3.8831
X8.7122Y-3.8831
X7.5858Y-4.022
X7.5858Y-4.152
X7.1067Y-5.0732
X7.2169Y-5.0732
X7.5858Y-4.772
X7.5858Y-4.902
X3.8358Y-2.0571
X3.8358Y-2.187
X3.3567Y-3.7602
X3.4669Y-3.7602
X6.0858Y-2.9945
X6.0858Y-3.1244
X4.5858Y-2.7094
X4.5858Y-2.8394
X7.1067Y-2.8232
X7.2169Y-2.8232
X5.3358Y-2.4319
X5.3358Y-2.5618
X5.6067Y-3.5728
X5.7169Y-3.5728
X4.5858Y-3.4594
X4.5858Y-3.5894
X4.1067Y-4.698
X4.2169Y-4.698
X8.3358Y-4.8693
X8.3358Y-4.9992
X7.8567Y-3.663
X7.9669Y-3.663
X7.1067Y-2.0732
X7.2169Y-2.0732
X6.3567Y-3.3854
X6.4669Y-3.3854
X6.3567Y-1.8854
X6.4669Y-1.8854
X8.602Y-3.9976
X8.7122Y-3.9976
X5.6067Y-2.0728
X5.7169Y-2.0728
X8.602Y-3.7685
X8.7122Y-3.7685
X5.3358Y-3.9319
X5.3358Y-4.0618
X8.6067Y-5.2602
X8.7169Y-5.2602
X3.0858Y-3.3693
X3.0858Y-3.4992
X4.5858Y-1.9594
X4.5858Y-2.0894
X6.3567Y-2.6354
X6.4669Y-2.6354
X6.8358Y-3.9323
X6.8358Y-4.0622
X6.8358Y-1.6823
X6.8358Y-1.8122
X7.8567Y-2.913
X7.9669Y-2.913
X3.8358Y-3.5571
X3.8358Y-3.687
X7.8567Y-5.163
X7.9669Y-5.163
X4.8567Y-4.6004
X4.9669Y-4.6004
X3.8358Y-4.3071
X3.8358Y-4.437
X7.1067Y-4.3232
X7.2169Y-4.3232
X4.8567Y-2.3504
X4.9669Y-2.3504
X4.8567Y-3.1004
X4.9669Y-3.1004
X7.8567Y-2.163
X7.9669Y-2.163
X7.1067Y-3.5732
X7.2169Y-3.5732
X7.5858Y-2.522
X7.5858Y-2.652
X3.8358Y-2.8071
X3.8358Y-2.937
X4.5858Y-4.2094
X4.5858Y-4.3394
X6.0858Y-1.4945
X6.0858Y-1.6244
X7.8567Y-4.413
X7.9669Y-4.413
X6.8358Y-4.6823
X6.8358Y-4.8122
X5.3358Y-1.6819
X5.3358Y-1.8118
X5.6067Y-2.8228
X5.7169Y-2.8228
X7.5858Y-3.272
X7.5858Y-3.402
X7.5858Y-1.772
X7.5858Y-1.902
X4.8567Y-3.8504
X4.9669Y-3.8504
X6.8358Y-3.1823
X6.8358Y-3.3122
X6.0858Y-2.2445
X6.0858Y-2.3744
X6.3567Y-4.1354
X6.4669Y-4.1354
X6.0858Y-3.7445
X6.0858Y-3.8744
X5.6067Y-4.3228
X5.7169Y-4.3228
X5.3358Y-3.1819
X5.3358Y-3.3118
X4.1067Y-3.948
X4.2169Y-3.948
T2
X3.8358Y-1.972
X3.8358Y-2.272
X3.2618Y-3.7602
X3.5618Y-3.7602
X6.0858Y-2.9094
X6.0858Y-3.2094
X4.5858Y-2.6244
X4.5858Y-2.9244
X7.0118Y-2.8232
X7.3118Y-2.8232
X5.3358Y-2.3469
X5.3358Y-2.6469
X5.5118Y-3.5728
X5.8118Y-3.5728
X4.5858Y-3.3744
X4.5858Y-3.6744
X4.0118Y-4.698
X4.3118Y-4.698
X8.3358Y-4.7843
X8.3358Y-5.0843
X7.7618Y-3.663
X8.0618Y-3.663
X7.0118Y-2.0732
X7.3118Y-2.0732
X6.2618Y-3.3854
X6.5618Y-3.3854
X6.2618Y-1.8854
X6.5618Y-1.8854
X8.5071Y-3.9976
X8.8071Y-3.9976
X5.5118Y-2.0728
X5.8118Y-2.0728
X8.5071Y-3.7685
X8.8071Y-3.7685
X5.3358Y-3.8469
X5.3358Y-4.1469
X8.5118Y-5.2602
X8.8118Y-5.2602
X3.0858Y-3.2843
X3.0858Y-3.5843
X4.5858Y-1.8744
X4.5858Y-2.1744
X6.2618Y-2.6354
X6.5618Y-2.6354
X6.8358Y-3.8472
X6.8358Y-4.1472
X6.8358Y-1.5972
X6.8358Y-1.8972
X7.7618Y-2.913
X8.0618Y-2.913
X3.8358Y-3.472
X3.8358Y-3.772
X7.7618Y-5.163
X8.0618Y-5.163
X4.7618Y-4.6004
X5.0618Y-4.6004
X3.8358Y-4.222
X3.8358Y-4.522
X7.0118Y-4.3232
X7.3118Y-4.3232
X4.7618Y-2.3504
X5.0618Y-2.3504
X4.7618Y-3.1004
X5.0618Y-3.1004
X7.7618Y-2.163
X8.0618Y-2.163
X7.0118Y-3.5732
X7.3118Y-3.5732
X7.5858Y-2.437
X7.5858Y-2.737
X3.8358Y-2.722
X3.8358Y-3.022
X4.5858Y-4.1244
X4.5858Y-4.4244
X6.0858Y-1.4094
X6.0858Y-1.7094
X7.7618Y-4.413
X8.0618Y-4.413
X6.8358Y-4.5972
X6.8358Y-4.8972
X5.3358Y-1.5969
X5.3358Y-1.8969
X5.5118Y-2.8228
X5.8118Y-2.8228
X7.5858Y-3.187
X7.5858Y-3.487
X7.5858Y-1.687
X7.5858Y-1.987
X4.7618Y-3.8504
X5.0618Y-3.8504
X6.8358Y-3.0972
X6.8358Y-3.3972
X8.3327Y-2.5477
X8.3327Y-2.6477
X8.3327Y-2.7477
X8.3327Y-2.8477
X8.3327Y-2.9477
X8.3327Y-3.0477
X8.3327Y-3.1477
X8.3327Y-3.2477
X8.3327Y-3.3477
X8.3327Y-3.4477
X8.3327Y-3.5477
X8.3327Y-3.6477
X8.3849Y-2.4977
X8.3849Y-2.5977
X8.3849Y-2.6977
X8.3849Y-2.7977
X8.3849Y-2.8977
X8.3849Y-2.9977
X8.3849Y-3.0977
X8.3849Y-3.1977
X8.3849Y-3.2977
X8.3849Y-3.3977
X8.3849Y-3.4977
X8.3849Y-3.5977
X8.9327Y-2.5477
X8.9327Y-2.6477
X8.9327Y-2.7477
X8.9327Y-2.8477
X8.9327Y-2.9477
X8.9327Y-3.0477
X8.9327Y-3.1477
X8.9327Y-3.2477
X8.9327Y-3.3477
X8.9327Y-3.4477
X8.9327Y-3.5477
X8.9327Y-3.6477
X8.9841Y-2.4977
X8.9841Y-2.5977
X8.9841Y-2.6977
X8.9841Y-2.7977
X8.9841Y-2.8977
X8.9841Y-2.9977
X8.9841Y-3.0977
X8.9841Y-3.1977
X8.9841Y-3.2977
X8.9841Y-3.3977
X8.9841Y-3.4977
X8.9841Y-3.5977
X6.0858Y-2.1594
X6.0858Y-2.4594
X6.2618Y-4.1354
X6.5618Y-4.1354
X6.0858Y-3.6594
X6.0858Y-3.9594
X5.5118Y-4.3228
X5.8118Y-4.3228
X5.3358Y-3.0969
X5.3358Y-3.3969
X4.0118Y-3.948
X4.3118Y-3.948
X4.0118Y-3.198
X4.3118Y-3.198
X6.8358Y-2.3472
X6.8358Y-2.6472
X4.0118Y-2.448
X4.3118Y-2.448
X8.5071Y-3.8831
X8.8071Y-3.8831
X7.5858Y-3.937
X7.5858Y-4.237
X7.0118Y-5.0732
X7.3118Y-5.0732
X7.5858Y-4.687
X7.5858Y-4.987
T4
X8.9598Y-3.7736
X8.9598Y-4.0295
T6
X7.8618Y-2.7866
X7.9618Y-2.7866
X6.961Y-1.5976
X7.0118Y-1.6512
X7.3118Y-1.6512
X7.3626Y-1.5976
X6.961Y-2.3476
X7.0118Y-2.4012
X7.3118Y-2.4012
X7.3626Y-2.3476
X6.3618Y-3.2591
X6.4618Y-3.2591
X5.6118Y-3.4465
X5.7118Y-3.4465
X4.1118Y-3.8217
X4.2118Y-3.8217
X6.961Y-3.0976
X7.0118Y-3.1512
X7.3118Y-3.1512
X7.3626Y-3.0976
X8.6118Y-5.1339
X8.7118Y-5.1339
X4.711Y-4.1248
X4.7618Y-4.1783
X5.0618Y-4.1783
X5.1126Y-4.1248
X6.3618Y-4.0091
X6.4618Y-4.0091
X4.1118Y-3.0717
X4.2118Y-3.0717
X6.961Y-3.8476
X7.0118Y-3.9012
X7.3118Y-3.9012
X7.3626Y-3.8476
X3.961Y-2.7224
X4.0118Y-2.776
X4.3118Y-2.776
X4.3626Y-2.7224
X5.6118Y-4.1965
X5.7118Y-4.1965
X6.3618Y-1.7591
X6.4618Y-1.7591
X4.711Y-3.3748
X4.7618Y-3.4283
X5.0618Y-3.4283
X5.1126Y-3.3748
X7.1118Y-1.9469
X7.2118Y-1.9469
X7.711Y-3.9374
X7.7618Y-3.9909
X8.0618Y-3.9909
X8.1126Y-3.9374
X5.461Y-2.3472
X5.5118Y-2.4008
X5.8118Y-2.4008
X5.8626Y-2.3472
X5.6118Y-1.9465
X5.7118Y-1.9465
X3.961Y-4.2224
X4.0118Y-4.276
X4.3118Y-4.276
X4.3626Y-4.2224
X4.711Y-2.6248
X4.7618Y-2.6783
X5.0618Y-2.6783
X5.1126Y-2.6248
X7.1118Y-3.4469
X7.2118Y-3.4469
X7.1118Y-4.1969
X7.2118Y-4.1969
X4.1118Y-2.3217
X4.2118Y-2.3217
X6.961Y-4.5976
X7.0118Y-4.6512
X7.3118Y-4.6512
X7.3626Y-4.5976
X6.211Y-2.9098
X6.2618Y-2.9634
X6.5618Y-2.9634
X6.6126Y-2.9098
X4.8618Y-4.474
X4.9618Y-4.474
X4.8618Y-2.224
X4.9618Y-2.224
X6.211Y-1.4098
X6.2618Y-1.4634
X6.5618Y-1.4634
X6.6126Y-1.4098
X7.8618Y-4.2866
X7.9618Y-4.2866
X5.6118Y-2.6965
X5.7118Y-2.6965
X7.711Y-1.6874
X7.7618Y-1.7409
X8.0618Y-1.7409
X8.1126Y-1.6874
X7.8618Y-3.5366
X7.9618Y-3.5366
X3.211Y-3.2846
X3.2618Y-3.3382
X3.5618Y-3.3382
X3.6126Y-3.2846
X7.711Y-3.1874
X7.7618Y-3.2409
X8.0618Y-3.2409
X8.1126Y-3.1874
X4.8618Y-2.974
X4.9618Y-2.974
X7.711Y-2.4374
X7.7618Y-2.4909
X8.0618Y-2.4909
X8.1126Y-2.4374
X6.3618Y-2.5091
X6.4618Y-2.5091
X6.211Y-3.6598
X6.2618Y-3.7134
X6.5618Y-3.7134
X6.6126Y-3.6598
X3.961Y-3.4724
X4.0118Y-3.526
X4.3118Y-3.526
X4.3626Y-3.4724
X3.961Y-1.9724
X4.0118Y-2.026
X4.3118Y-2.026
X4.3626Y-1.9724
X3.3618Y-3.6339
X3.4618Y-3.6339
X8.461Y-4.7846
X8.5118Y-4.8382
X8.8118Y-4.8382
X8.8626Y-4.7846
X4.8618Y-3.724
X4.9618Y-3.724
X7.711Y-4.6874
X7.7618Y-4.7409
X8.0618Y-4.7409
X8.1126Y-4.6874
X4.711Y-1.8748
X4.7618Y-1.9283
X5.0618Y-1.9283
X5.1126Y-1.8748
X4.1118Y-4.5717
X4.2118Y-4.5717
X7.8618Y-2.0366
X7.9618Y-2.0366
X5.461Y-3.0972
X5.5118Y-3.1508
X5.8118Y-3.1508
X5.8626Y-3.0972
X7.1118Y-4.9469
X7.2118Y-4.9469
X7.1118Y-2.6969
X7.2118Y-2.6969
X6.211Y-2.1598
X6.2618Y-2.2134
X6.5618Y-2.2134
X6.6126Y-2.1598
X7.8618Y-5.0366
X7.9618Y-5.0366
X5.461Y-1.5972
X5.5118Y-1.6508
X5.8118Y-1.6508
X5.8626Y-1.5972
X5.461Y-3.8472
X5.5118Y-3.9008
X5.8118Y-3.9008
X5.8626Y-3.8472
T7
X8.3862Y-4.4423
X8.9374Y-4.4423
T3
G00X8.5654Y-4.1197
M15
G01X8.4866Y-4.1197
M16
G05
G00X8.5654Y-4.285
M15
G01X8.4866Y-4.285
M16
G05
G00X8.7228Y-4.1207
M15
G01X8.7031Y-4.1207
M16
G05
G00X8.7228Y-4.285
M15
G01X8.7031Y-4.285
M16
G05
G00X8.8409Y-4.1207
M15
G01X8.8213Y-4.1207
M16
G05
G00X8.8409Y-4.285
M15
G01X8.8213Y-4.285
M16
G05
T5
G00X4.1618Y-1.9038
M15
G01X4.1618Y-1.9033
M16
G05
G00X8.6618Y-4.716
M15
G01X8.6618Y-4.7155
M16
G05
G00X7.9118Y-4.6188
M15
G01X7.9118Y-4.6182
M16
G05
G00X4.9118Y-1.8062
M15
G01X4.9118Y-1.8056
M16
G05
G00X5.6618Y-3.0286
M15
G01X5.6618Y-3.0281
M16
G05
G00X6.4118Y-2.0912
M15
G01X6.4118Y-2.0907
M16
G05
G00X5.6618Y-1.5286
M15
G01X5.6618Y-1.5281
M16
G05
G00X5.6618Y-3.7786
M15
G01X5.6618Y-3.7781
M16
G05
G00X7.1618Y-1.529
M15
G01X7.1618Y-1.5285
M16
G05
G00X7.1618Y-2.279
M15
G01X7.1618Y-2.2785
M16
G05
G00X7.1618Y-3.029
M15
G01X7.1618Y-3.0285
M16
G05
G00X4.9118Y-4.0562
M15
G01X4.9118Y-4.0556
M16
G05
G00X7.1618Y-3.779
M15
G01X7.1618Y-3.7785
M16
G05
G00X4.1618Y-2.6538
M15
G01X4.1618Y-2.6533
M16
G05
G00X4.9118Y-3.3062
M15
G01X4.9118Y-3.3056
M16
G05
G00X7.9118Y-3.8688
M15
G01X7.9118Y-3.8682
M16
G05
G00X5.6618Y-2.2786
M15
G01X5.6618Y-2.2781
M16
G05
G00X4.1618Y-4.1538
M15
G01X4.1618Y-4.1533
M16
G05
G00X4.9118Y-2.5562
M15
G01X4.9118Y-2.5556
M16
G05
G00X7.1618Y-4.529
M15
G01X7.1618Y-4.5285
M16
G05
G00X6.4118Y-2.8412
M15
G01X6.4118Y-2.8407
M16
G05
G00X6.4118Y-1.3412
M15
G01X6.4118Y-1.3407
M16
G05
G00X7.9118Y-1.6188
M15
G01X7.9118Y-1.6182
M16
G05
G00X3.4118Y-3.216
M15
G01X3.4118Y-3.2155
M16
G05
G00X7.9118Y-3.1188
M15
G01X7.9118Y-3.1182
M16
G05
G00X7.9118Y-2.3688
M15
G01X7.9118Y-2.3682
M16
G05
G00X6.4118Y-3.5912
M15
G01X6.4118Y-3.5907
M16
G05
G00X4.1618Y-3.4038
M15
G01X4.1618Y-3.4033
M16
G05
T6
G00X7.0618Y-1.5566
M15
G01X7.0618Y-1.5954
M16
G05
G00X7.2618Y-1.5566
M15
G01X7.2618Y-1.5954
M16
G05
G00X7.0618Y-2.3066
M15
G01X7.0618Y-2.3454
M16
G05
G00X7.2618Y-2.3066
M15
G01X7.2618Y-2.3454
M16
G05
G00X7.0618Y-3.0566
M15
G01X7.0618Y-3.0954
M16
G05
G00X7.2618Y-3.0566
M15
G01X7.2618Y-3.0954
M16
G05
G00X4.8118Y-4.0837
M15
G01X4.8118Y-4.1226
M16
G05
G00X5.0118Y-4.0837
M15
G01X5.0118Y-4.1226
M16
G05
G00X7.0618Y-3.8066
M15
G01X7.0618Y-3.8454
M16
G05
G00X7.2618Y-3.8066
M15
G01X7.2618Y-3.8454
M16
G05
G00X4.0618Y-2.6814
M15
G01X4.0618Y-2.7202
M16
G05
G00X4.2618Y-2.6814
M15
G01X4.2618Y-2.7202
M16
G05
G00X4.8118Y-3.3337
M15
G01X4.8118Y-3.3726
M16
G05
G00X5.0118Y-3.3337
M15
G01X5.0118Y-3.3726
M16
G05
G00X7.8118Y-3.8963
M15
G01X7.8118Y-3.9352
M16
G05
G00X8.0118Y-3.8963
M15
G01X8.0118Y-3.9352
M16
G05
G00X5.5618Y-2.3062
M15
G01X5.5618Y-2.345
M16
G05
G00X5.7618Y-2.3062
M15
G01X5.7618Y-2.345
M16
G05
G00X4.0618Y-4.1814
M15
G01X4.0618Y-4.2202
M16
G05
G00X4.2618Y-4.1814
M15
G01X4.2618Y-4.2202
M16
G05
G00X4.8118Y-2.5837
M15
G01X4.8118Y-2.6226
M16
G05
G00X5.0118Y-2.5837
M15
G01X5.0118Y-2.6226
M16
G05
G00X7.0618Y-4.5566
M15
G01X7.0618Y-4.5954
M16
G05
G00X7.2618Y-4.5566
M15
G01X7.2618Y-4.5954
M16
G05
G00X6.3118Y-2.8688
M15
G01X6.3118Y-2.9076
M16
G05
G00X6.5118Y-2.8688
M15
G01X6.5118Y-2.9076
M16
G05
G00X6.3118Y-1.3688
M15
G01X6.3118Y-1.4076
M16
G05
G00X6.5118Y-1.3688
M15
G01X6.5118Y-1.4076
M16
G05
G00X7.8118Y-1.6463
M15
G01X7.8118Y-1.6852
M16
G05
G00X8.0118Y-1.6463
M15
G01X8.0118Y-1.6852
M16
G05
G00X3.3118Y-3.2436
M15
G01X3.3118Y-3.2824
M16
G05
G00X3.5118Y-3.2436
M15
G01X3.5118Y-3.2824
M16
G05
G00X7.8118Y-3.1463
M15
G01X7.8118Y-3.1852
M16
G05
G00X8.0118Y-3.1463
M15
G01X8.0118Y-3.1852
M16
G05
G00X7.8118Y-2.3963
M15
G01X7.8118Y-2.4352
M16
G05
G00X8.0118Y-2.3963
M15
G01X8.0118Y-2.4352
M16
G05
G00X6.3118Y-3.6188
M15
G01X6.3118Y-3.6576
M16
G05
G00X6.5118Y-3.6188
M15
G01X6.5118Y-3.6576
M16
G05
G00X4.0618Y-3.4314
M15
G01X4.0618Y-3.4702
M16
G05
G00X4.2618Y-3.4314
M15
G01X4.2618Y-3.4702
M16
G05
G00X4.0618Y-1.9314
M15
G01X4.0618Y-1.9702
M16
G05
G00X4.2618Y-1.9314
M15
G01X4.2618Y-1.9702
M16
G05
G00X8.5618Y-4.7436
M15
G01X8.5618Y-4.7824
M16
G05
G00X8.7618Y-4.7436
M15
G01X8.7618Y-4.7824
M16
G05
G00X7.8118Y-4.6463
M15
G01X7.8118Y-4.6852
M16
G05
G00X8.0118Y-4.6463
M15
G01X8.0118Y-4.6852
M16
G05
G00X4.8118Y-1.8337
M15
G01X4.8118Y-1.8726
M16
G05
G00X5.0118Y-1.8337
M15
G01X5.0118Y-1.8726
M16
G05
G00X5.5618Y-3.0562
M15
G01X5.5618Y-3.095
M16
G05
G00X5.7618Y-3.0562
M15
G01X5.7618Y-3.095
M16
G05
G00X6.3118Y-2.1188
M15
G01X6.3118Y-2.1576
M16
G05
G00X6.5118Y-2.1188
M15
G01X6.5118Y-2.1576
M16
G05
G00X5.5618Y-1.5562
M15
G01X5.5618Y-1.595
M16
G05
G00X5.7618Y-1.5562
M15
G01X5.7618Y-1.595
M16
G05
G00X5.5618Y-3.8062
M15
G01X5.5618Y-3.845
M16
G05
G00X5.7618Y-3.8062
M15
G01X5.7618Y-3.845
M16
G05
T0
M30
