M48
; DRILL file {KiCad (5.1.2)-2} date 24/10/2019 17:59:06
; FORMAT={-:-/ absolute / inch / decimal}
; #@! TF.CreationDate,2019-10-24T17:59:06+08:00
; #@! TF.GenerationSoftware,Kicad,Pcbnew,(5.1.2)-2
; #@! TF.FileFunction,Plated,1,2,PTH
FMAT,2
INCH
T1C0.0157
T2C0.0320
T3C0.0394
T4C0.0512
T5C0.0579
T6C0.0630
%
G90
G05
T1
X5.58Y-2.1977
X6.5081Y-2.0214
X6.9664Y-3.4509
X7.4323Y-3.8425
X7.7147Y-2.0475
X8.0403Y-2.2961
X8.0831Y-3.1236
X8.1215Y-3.4348
X8.1388Y-3.1117
X8.1808Y-3.8846
X8.1865Y-3.188
X8.1877Y-3.3319
X8.1883Y-3.1427
X8.2259Y-3.0373
X8.2441Y-3.3598
X8.2951Y-3.4521
X8.5009Y-3.6222
X8.6974Y-3.791
X8.7024Y-3.711
X8.7229Y-3.586
X8.3276Y-3.7937
X8.365Y-3.715
X8.4024Y-3.7937
T2
X7.5996Y-4.687
X7.5996Y-4.987
X5.3496Y-2.3469
X5.3496Y-2.6469
X5.3496Y-3.8469
X5.3496Y-4.1469
X6.0996Y-2.1594
X6.0996Y-2.4594
X7.7618Y-3.6508
X8.0618Y-3.6508
X3.2618Y-3.748
X3.5618Y-3.748
X7.5996Y-3.937
X7.5996Y-4.237
X6.2618Y-4.1232
X6.5618Y-4.1232
X7.7618Y-2.9008
X8.0618Y-2.9008
X4.7618Y-2.3382
X5.0618Y-2.3382
X7.7618Y-4.4008
X8.0618Y-4.4008
X8.5476Y-4.1539
X8.8476Y-4.1539
X6.2618Y-1.8732
X6.5618Y-1.8732
X4.7618Y-3.8382
X5.0618Y-3.8382
X7.5996Y-3.187
X7.5996Y-3.487
X7.0118Y-3.561
X7.3118Y-3.561
X3.8496Y-2.722
X3.8496Y-3.022
X5.3496Y-1.5969
X5.3496Y-1.8969
X7.0118Y-2.061
X7.3118Y-2.061
X6.8496Y-1.5972
X6.8496Y-1.8972
X6.8496Y-4.5972
X6.8496Y-4.8972
X7.5996Y-2.437
X7.5996Y-2.737
X6.2618Y-2.6232
X6.5618Y-2.6232
X6.8496Y-3.8472
X6.8496Y-4.1472
X4.5996Y-3.3744
X4.5996Y-3.6744
X4.0118Y-3.1858
X4.3118Y-3.1858
X3.0996Y-3.2843
X3.0996Y-3.5843
X7.0118Y-4.311
X7.3118Y-4.311
X8.5118Y-5.248
X8.8118Y-5.248
X4.0118Y-2.4358
X4.3118Y-2.4358
X4.0118Y-4.6858
X4.3118Y-4.6858
X8.5476Y-3.9374
X8.8476Y-3.9374
X5.5118Y-2.0606
X5.8118Y-2.0606
X4.0118Y-3.9358
X4.3118Y-3.9358
X6.2618Y-3.3732
X6.5618Y-3.3732
X4.5996Y-2.6244
X4.5996Y-2.9244
X5.3496Y-3.0969
X5.3496Y-3.3969
X6.0996Y-1.4094
X6.0996Y-1.7094
X7.7618Y-2.1508
X8.0618Y-2.1508
X8.3346Y-2.5111
X8.3346Y-2.6111
X8.3346Y-2.7111
X8.3346Y-2.8111
X8.3346Y-2.9111
X8.3346Y-3.0111
X8.3346Y-3.1111
X8.3346Y-3.2111
X8.3346Y-3.3111
X8.3346Y-3.4111
X8.3346Y-3.5111
X8.3346Y-3.6111
X8.3869Y-2.4611
X8.3869Y-2.5611
X8.3869Y-2.6611
X8.3869Y-2.7611
X8.3869Y-2.8611
X8.3869Y-2.9611
X8.3869Y-3.0611
X8.3869Y-3.1611
X8.3869Y-3.2611
X8.3869Y-3.3611
X8.3869Y-3.4611
X8.3869Y-3.5611
X8.9346Y-2.5111
X8.9346Y-2.6111
X8.9346Y-2.7111
X8.9346Y-2.8111
X8.9346Y-2.9111
X8.9346Y-3.0111
X8.9346Y-3.1111
X8.9346Y-3.2111
X8.9346Y-3.3111
X8.9346Y-3.4111
X8.9346Y-3.5111
X8.9346Y-3.6111
X8.9861Y-2.4611
X8.9861Y-2.5611
X8.9861Y-2.6611
X8.9861Y-2.7611
X8.9861Y-2.8611
X8.9861Y-2.9611
X8.9861Y-3.0611
X8.9861Y-3.1611
X8.9861Y-3.2611
X8.9861Y-3.3611
X8.9861Y-3.4611
X8.9861Y-3.5611
X7.5996Y-1.687
X7.5996Y-1.987
X4.5996Y-4.1244
X4.5996Y-4.4244
X6.0996Y-2.9094
X6.0996Y-3.2094
X5.5118Y-3.5606
X5.8118Y-3.5606
X7.7618Y-5.1508
X8.0618Y-5.1508
X6.0996Y-3.6594
X6.0996Y-3.9594
X6.8496Y-3.0972
X6.8496Y-3.3972
X5.5118Y-4.3106
X5.8118Y-4.3106
X7.0118Y-5.061
X7.3118Y-5.061
X8.3496Y-4.7843
X8.3496Y-5.0843
X7.0118Y-2.811
X7.3118Y-2.811
X8.5476Y-4.0457
X8.8476Y-4.0457
X4.7618Y-4.5882
X5.0618Y-4.5882
X3.8496Y-4.222
X3.8496Y-4.522
X5.5118Y-2.8106
X5.8118Y-2.8106
X6.8496Y-2.3472
X6.8496Y-2.6472
X4.7618Y-3.0882
X5.0618Y-3.0882
X3.8496Y-3.472
X3.8496Y-3.772
X4.5996Y-1.8744
X4.5996Y-2.1744
X3.8496Y-1.972
X3.8496Y-2.272
T3
X8.365Y-3.9165
X8.365Y-4.0165
X8.365Y-4.1165
X8.365Y-4.2165
X8.365Y-4.3165
X8.365Y-4.4165
T4
X8.5697Y-3.7535
X8.8256Y-3.7535
T5
X5.5118Y-3.8969
X5.5618Y-3.7969
X5.7618Y-3.7969
X5.8118Y-3.8969
X4.0118Y-4.272
X4.0618Y-4.172
X4.2618Y-4.172
X4.3118Y-4.272
X4.7618Y-3.4244
X4.8118Y-3.3244
X5.0118Y-3.3244
X5.0618Y-3.4244
X7.0118Y-1.6472
X7.0618Y-1.5472
X7.2618Y-1.5472
X7.3118Y-1.6472
X7.7618Y-2.487
X7.8118Y-2.387
X8.0118Y-2.387
X8.0618Y-2.487
X4.7618Y-2.6744
X4.8118Y-2.5744
X5.0118Y-2.5744
X5.0618Y-2.6744
X8.5118Y-4.8343
X8.5618Y-4.7343
X8.7618Y-4.7343
X8.8118Y-4.8343
X5.5118Y-1.6469
X5.5618Y-1.5469
X5.7618Y-1.5469
X5.8118Y-1.6469
X3.2618Y-3.3343
X3.3118Y-3.2343
X3.5118Y-3.2343
X3.5618Y-3.3343
X6.2618Y-3.7094
X6.3118Y-3.6094
X6.5118Y-3.6094
X6.5618Y-3.7094
X6.2618Y-2.9594
X6.3118Y-2.8594
X6.5118Y-2.8594
X6.5618Y-2.9594
X5.5118Y-3.1469
X5.5618Y-3.0469
X5.7618Y-3.0469
X5.8118Y-3.1469
X7.7618Y-1.737
X7.8118Y-1.637
X8.0118Y-1.637
X8.0618Y-1.737
X5.5118Y-2.3969
X5.5618Y-2.2969
X5.7618Y-2.2969
X5.8118Y-2.3969
X6.2618Y-2.2094
X6.3118Y-2.1094
X6.5118Y-2.1094
X6.5618Y-2.2094
X7.0118Y-3.8972
X7.0618Y-3.7972
X7.2618Y-3.7972
X7.3118Y-3.8972
X4.0118Y-2.022
X4.0618Y-1.922
X4.2618Y-1.922
X4.3118Y-2.022
X6.2618Y-1.4594
X6.3118Y-1.3594
X6.5118Y-1.3594
X6.5618Y-1.4594
X7.0118Y-3.1472
X7.0618Y-3.0472
X7.2618Y-3.0472
X7.3118Y-3.1472
X7.0118Y-4.6472
X7.0618Y-4.5472
X7.2618Y-4.5472
X7.3118Y-4.6472
X7.7618Y-3.237
X7.8118Y-3.137
X8.0118Y-3.137
X8.0618Y-3.237
X4.7618Y-4.1744
X4.8118Y-4.0744
X5.0118Y-4.0744
X5.0618Y-4.1744
X4.0118Y-2.772
X4.0618Y-2.672
X4.2618Y-2.672
X4.3118Y-2.772
X7.0118Y-2.3972
X7.0618Y-2.2972
X7.2618Y-2.2972
X7.3118Y-2.3972
X4.0118Y-3.522
X4.0618Y-3.422
X4.2618Y-3.422
X4.3118Y-3.522
X4.7618Y-1.9244
X4.8118Y-1.8244
X5.0118Y-1.8244
X5.0618Y-1.9244
X7.7618Y-4.737
X7.8118Y-4.637
X8.0118Y-4.637
X8.0618Y-4.737
X7.7618Y-3.987
X7.8118Y-3.887
X8.0118Y-3.887
X8.0618Y-3.987
T6
X5.6118Y-1.9469
X5.7118Y-1.9469
X7.1118Y-2.6972
X7.2118Y-2.6972
X6.3618Y-1.7594
X6.4618Y-1.7594
X7.8618Y-2.787
X7.9618Y-2.787
X7.8618Y-4.287
X7.9618Y-4.287
X7.8618Y-3.537
X7.9618Y-3.537
X7.1118Y-1.9472
X7.2118Y-1.9472
X7.1118Y-4.9472
X7.2118Y-4.9472
X6.3618Y-2.5094
X6.4618Y-2.5094
X4.1118Y-4.572
X4.2118Y-4.572
X4.8618Y-3.7244
X4.9618Y-3.7244
X6.3618Y-3.2594
X6.4618Y-3.2594
X3.3618Y-3.6343
X3.4618Y-3.6343
X4.8618Y-4.4744
X4.9618Y-4.4744
X4.1118Y-3.072
X4.2118Y-3.072
X4.1118Y-3.822
X4.2118Y-3.822
X5.6118Y-2.6969
X5.7118Y-2.6969
X7.1118Y-3.4472
X7.2118Y-3.4472
X6.3618Y-4.0094
X6.4618Y-4.0094
X7.8618Y-2.037
X7.9618Y-2.037
X7.1118Y-4.1972
X7.2118Y-4.1972
X5.6118Y-4.1969
X5.7118Y-4.1969
X4.1118Y-2.322
X4.2118Y-2.322
X7.8618Y-5.037
X7.9618Y-5.037
X4.8618Y-2.2244
X4.9618Y-2.2244
X8.6118Y-5.1343
X8.7118Y-5.1343
X4.8618Y-2.9744
X4.9618Y-2.9744
X5.6118Y-3.4469
X5.7118Y-3.4469
T3
G00X8.5098Y-4.3185
M15
G01X8.4902Y-4.3185
M16
G05
G00X8.5098Y-4.415
M15
G01X8.4902Y-4.415
M16
G05
G00X8.5689Y-4.2496
M15
G01X8.5492Y-4.2496
M16
G05
G00X8.5689Y-4.4839
M15
G01X8.5492Y-4.4839
M16
G05
G00X8.7264Y-4.2496
M15
G01X8.7067Y-4.2496
M16
G05
G00X8.7264Y-4.4839
M15
G01X8.7067Y-4.4839
M16
G05
G00X8.8445Y-4.2496
M15
G01X8.8248Y-4.2496
M16
G05
G00X8.8445Y-4.4839
M15
G01X8.8248Y-4.4839
M16
G05
T0
M30
